<?xml version="1.0" standalone="no"?>
<!DOCTYPE svg PUBLIC "-//W3C//DTD SVG 1.1//EN" "http://www.w3.org/Graphics/SVG/1.1/DTD/svg11.dtd" >
<svg xmlns="http://www.w3.org/2000/svg" xmlns:xlink="http://www.w3.org/1999/xlink" version="1.1">
<metadata>
Created by FontForge 20200314 at Mon Oct 11 14:01:23 2021
 By Utilisateur

</metadata>
<defs>
<font id="philum" horiz-adv-x="2048" >
  <font-face 
    font-family="walk"
    font-weight="400"
    font-stretch="normal"
    units-per-em="2048"
    panose-1="0 0 0 0 0 0 0 0 0 0"
    ascent="1536"
    descent="-512"
    x-height="1288"
    cap-height="1425"
    bbox="-492 -594 8689 1728"
    underline-thickness="102"
    underline-position="-102"
    unicode-range="U+0001-260A"
  />
    <missing-glyph />
    <glyph glyph-name="circle" unicode="&#xe3;" 
d="M381 1285v-1285h1281v1285h-1281zM255 1408h1537v-1540h-1537v1540z" />
    <glyph glyph-name="square" unicode="&#xe4;" 
d="M256 -129l770 1537l766 -1537h-1536z" />
    <glyph glyph-name="triangle" unicode="&#xe5;" 
d="M256 -129l770 1537l766 -1537h-1536zM1026 1117l-559 -1116h1115z" />
    <glyph glyph-name="doc" unicode="&#xe6;" 
d="M1143 1284h-539q-54 0 -83 -43q-17 -26 -17 -57v-1089q0 -54 43 -83q26 -17 57 -17h833q59 0 83 38q17 26 17 62v785q0 48 -32 81l-277 286q-36 37 -85 37zM1592 1044q65 -68 65 -164v-785q0 -101 -77 -167q-63 -53 -143 -53h-833q-101 0 -167 77q-53 63 -53 143v1089
q0 101 77 167q63 53 143 53h539q101 0 171 -73zM1410 256v-128h-776v128h776zM1020 1024v-384h-388v384h388zM1412 1026v-124h-268v124h268zM1412 766v-122h-268v122h268zM1412 512v-124h-784v124h784z" />
    <glyph glyph-name="alert" unicode="!" 
d="M1838 210q44 -70 44 -130v-6q0 -44 -22 -82q-54 -90 -200 -90h-1272q-148 0 -200 90q-22 38 -22 82q0 56 46 136l634 1094q74 126 170 128h10q0 2 30 2q74 -4 148 -130zM1030 94q48 0 80 33t32 78t-32 77t-80 32q-46 0 -77 -32t-31 -77t31 -78t77 -33zM1108 382l54 632
h-260l52 -632h154z" />
    <glyph glyph-name="quote" unicode="&#x22;" 
d="M252 592q0 120 16 236q14 102 55 207t109 177t185 120t277 58v-320q-216 0 -275 -56t-59 -262l-8 -2h252q36 0 63 -27t27 -65v-608q0 -36 -27 -63t-63 -27h-462q-36 0 -63 26t-27 64v528v14zM1156 672q0 134 14 196t55 167t110 177t185 120t276 58v-320q-218 0 -277 -56
t-59 -262l-8 -2h252q36 0 63 -27t27 -65v-608q0 -36 -26 -63t-64 -27h-458q-38 0 -65 26t-27 64v608q0 10 2 14z" />
    <glyph glyph-name="trash" unicode="#" 
d="M1702 1122q18 -28 -16 -30h-98v-1160q0 -14 -11 -25t-25 -11h-1050q-14 0 -25 10t-11 26v1160h-106q-14 0 -19 8t3 22l64 94q18 28 54 28h154v136q0 40 24 60l100 100q24 24 60 26h444q36 0 60 -26l108 -106q26 -26 26 -60v-130h146q36 0 54 -28zM766 1252v-8h520v8v58
q0 40 -24 60l-18 22q-24 24 -62 24h-318q-36 0 -62 -24l-12 -12q-24 -24 -24 -62v-66zM1438 1056q0 32 -34 36h-570h-182q-14 0 -25 -11t-11 -25v-976q0 -14 10 -24t26 -10h750q14 0 25 10t11 24v976zM796 990q14 0 26 -10t12 -24v-776q0 -14 -12 -25t-26 -11h-42
q-14 0 -26 10t-12 26v776q0 14 12 24t26 10h42zM1004 144q-14 0 -26 10t-12 26v776q0 14 12 24t26 10h42q14 0 25 -10t11 -24v-776q0 -14 -11 -25t-25 -11h-42zM1252 144q-14 0 -25 10t-11 26v776q0 14 10 24t26 10h44q14 0 25 -10t11 -24v-776q0 -14 -11 -25t-25 -11h-44z
" />
    <glyph glyph-name="msql" unicode="$" 
d="M447 1158h1154v-256h-1154v256zM447 646h1154v-258h-1154v258zM447 134h1154v-258h-1154v258z" />
    <glyph glyph-name="back" unicode="%" 
d="M446 198l386 392v-262h510v512h260v-770h-770v-262z" />
    <glyph glyph-name="add" unicode="&#x26;" 
d="M1217 768h512v-382h-512v-512h-386v512h-512v382h512v512h386v-512z" />
    <glyph glyph-name="less" unicode="'" 
d="M319 388v380h1410v-380h-1410z" />
    <glyph glyph-name="lock" unicode="(" 
d="M1473 760h126v-888h-1150v888h130v210q0 178 130 305t308 127h8h8q180 0 310 -127t130 -305v-210zM1161 0l-66 288q66 40 66 118q0 58 -39 96t-97 38q-56 0 -96 -39t-40 -95q0 -78 68 -116l-68 -290h272zM1219 760v210q0 88 -48 151t-138 63h-6h-10q-88 0 -137 -63
t-49 -151v-210h388z" />
    <glyph glyph-name="unlock" unicode=")" 
d="M1667 920v108q0 90 -84 187t-176 97h-4h-10q-90 0 -167 -97t-77 -187v-262h130v-894h-1152v894h776v262q0 250 155 376t335 126h6h8q180 0 347 -126t167 -376v-262h-254v58v96zM781 0l-68 290q68 40 68 118q0 58 -40 97t-94 39q-58 0 -98 -40t-40 -96q0 -76 68 -118
l-68 -290h272z" />
    <glyph glyph-name="close" unicode="*" 
d="M1662 84l-214 -214l-416 412l-426 -428l-226 226l428 428l-424 424l216 216l424 -424l418 418l226 -226l-418 -416z" />
    <glyph glyph-name="plus" unicode="+" 
d="M1024 1436q356 0 608 -252t252 -608t-252 -608t-608 -252t-608 252t-252 608t252 608t608 252zM1534 534v84q0 30 -21 52t-53 22h-248q-30 0 -52 23t-22 53v248q0 30 -22 52t-54 22h-82q-30 0 -52 -22t-22 -52v-248q0 -30 -23 -53t-53 -23h-246q-32 0 -54 -21t-22 -53
v-84q0 -30 21 -53t55 -23h246q30 0 53 -21t23 -51v-248q0 -30 21 -52t53 -22h82q30 0 53 21t23 53v248q0 30 22 51t52 21h248q30 0 52 23t22 53z" />
    <glyph glyph-name="builders" unicode="," 
d="M1813 718q18 -2 31 -18t13 -34v-194q0 -18 -13 -34t-31 -18l-248 -46q-18 -4 -24 -16t4 -28l144 -212q10 -16 10 -32q0 -20 -18 -38l-136 -136q-18 -18 -36 -18q-16 0 -32 12l-212 142q-14 10 -29 5t-17 -23l-46 -250q-2 -18 -18 -31t-34 -13h-194q-18 0 -34 13t-18 31
l-46 250q-2 18 -17 23t-29 -5l-210 -142q-18 -10 -34 -10q-18 -2 -36 16l-136 136q-18 18 -18 38q0 16 10 32l144 212q10 16 4 28t-24 16l-248 46q-18 2 -31 18t-13 34v194q0 18 13 34t31 18l248 46q44 12 20 46l-144 212q-10 16 -10 30q2 22 18 38l136 136q18 18 38 18
q16 0 32 -10l210 -144q14 -10 29 -4t17 24l46 248q2 18 18 31t34 13h194q18 0 34 -13t18 -31l46 -248q2 -18 17 -24t29 4l212 144q16 10 30 10q20 0 38 -18l136 -136q18 -18 18 -38q-2 -14 -10 -30l-144 -212q-24 -34 20 -46zM1023 268q126 0 214 88t88 212t-88 213t-214 89
q-124 0 -212 -89t-88 -213t88 -212t212 -88z" />
    <glyph glyph-name="minus" unicode="-" 
d="M1025 1436q356 0 608 -253t252 -610t-252 -609t-608 -252q-358 0 -610 252t-252 609t252 610t610 253zM1503 534v80q0 38 -29 67t-67 29h-770q-38 0 -68 -28t-30 -68v-80q0 -40 29 -68t69 -28h770q38 0 67 28t29 68z" />
    <glyph glyph-name="etc" unicode="." 
d="M385 760q76 0 131 -55t55 -131q0 -78 -55 -133t-132 -55t-133 55t-56 133t56 132t134 54zM1025 760q78 0 134 -54t56 -132t-56 -133t-134 -55t-132 55t-54 133q0 76 54 131t132 55zM1665 760q78 0 133 -54t55 -132t-55 -133t-133 -55t-133 55t-55 133q0 76 55 131t133 55
z" />
    <glyph glyph-name="print" unicode="/" 
d="M1464 1136h394v-260v-622h-390v-104l-260 -278h-754v388h-264v616v260h396v258h878v-258zM1740 1020h-216v-110h216v110zM698 1284v-148h654v148h-654zM1096 -18v274h260v274v112h112v-264h156v400h-1236v-400h66l66 228v36h112v-112l-66 -548h530z" />
    <glyph glyph-name="refresh" unicode="0" 
d="M1739 1003q0 -22 -25 -22l-444 -10q-19 0 -19 13q0 6 5 14l99 136q-152 100 -333 100q-163 0 -288 -70.5t-208 -184.5q-115 -160 -115 -358q0 -102 32 -200h-13l-198 -3q-26 104 -26 204q0 264 154 477q109 150 280.5 244.5t381.5 94.5q248 0 453 -137l101 141q6 9 16 9
t14 -16l133 -422v-10zM1026 -200q-247 0 -453 138l-101 -141q-6 -10 -16 -10q-9 0 -14 16l-132 423q-1 3 -1 9q0 23 25 23l444 9q20 0 20 -13q0 -6 -6 -14l-99 -136q153 -99 333 -99q158 0 286 71t210 183q115 160 115 357q0 101 -31 197l212 5q24 -100 24 -202
q0 -258 -154 -477q-109 -150 -280.5 -244.5t-381.5 -94.5z" />
    <glyph glyph-name="reload" unicode="1" 
d="M1671 584h58v-62q0 -292 -206 -498t-498 -206t-499 207t-207 497q0 292 207 499t499 207q32 0 52 -2v162v146l100 -102l320 -322l44 -44l-44 -40l-320 -322l-100 -102v144v180q-36 4 -52 4q-170 0 -289 -119t-119 -289q0 -168 120 -287t288 -119t287 119t119 287v62h60
h180z" />
    <glyph glyph-name="true" unicode="2" 
d="M1023 1436q356 0 608 -252t252 -608t-252 -608t-608 -252q-354 0 -606 252t-252 608t252 608t606 252zM1573 802q12 12 13 31t-13 33l-112 110q-12 12 -30 13t-34 -13l-496 -498q-30 -32 -64 0l-180 180q-32 32 -64 0l-112 -112q-12 -14 -12 -32t12 -30l284 -288
q30 -30 76 -30h54q40 0 74 30z" />
    <glyph glyph-name="valid" unicode="3" 
d="M192 490q-20 20 -21 49t21 49l170 170q20 20 47 20t49 -20l278 -276q20 -20 48 -21t48 21l760 762q20 20 48 20t48 -20l170 -168q20 -20 20 -48t-20 -50l-922 -922q-50 -50 -116 -50h-80q-66 0 -114 50z" />
    <glyph glyph-name="next" unicode="4" 
d="M305 1426l1438 -720l-1438 -716v1436z" />
    <glyph glyph-name="gsm" unicode="5" 
d="M1281 -128v126h-514v-126h514zM1533 122v1156h-1018v-1156h1018zM515 -252q-58 0 -98 38q-38 40 -38 96v1396q0 54 38 94t98 40h1018q56 0 96 -40t40 -94v-1396q0 -56 -40 -96q-38 -38 -96 -38h-1018z" />
    <glyph glyph-name="select" unicode="6" 
d="M1215 1280h130v-126h-130v126zM957 1280h130v-126h-130v126zM701 1280h128v-126h-128v126zM1469 1280h132v-126h-132v126zM447 1280h130v-126h-130v126zM1469 1024h132v-128h-132v128zM447 1024h130v-128h-130v128zM1469 766h132v-124h-132v124zM447 766h130v-124h-130
v124zM1469 512h132v-124h-132v124zM447 512h130v-124h-130v124zM1469 258h132v-128h-132v128zM447 258h130v-128h-130v128zM1469 0h132v-126h-132v126zM1215 0h130v-126h-130v126zM957 0h130v-126h-130v126zM701 0h128v-126h-128v126zM447 0h130v-126h-130v126z" />
    <glyph glyph-name="topo" unicode="7" 
d="M1207 -154q-46 0 -84 38q-30 34 -34 94h-392v916q-48 0 -90 38q-40 40 -40 100v122q0 56 40 96q42 42 90 42h138q46 0 88 -42q38 -36 38 -96v-122q0 -62 -38 -100t-88 -38v-258h248q0 52 40 88q48 44 84 44h136q52 0 96 -44q42 -46 42 -96v-126q0 -48 -42 -90
q-40 -40 -96 -40h-136q-44 0 -84 40q-38 40 -40 90h-248v-394h254q0 62 34 96q42 42 84 42h136q54 0 96 -42t42 -96v-130q0 -52 -42 -94q-38 -38 -96 -38h-136z" />
    <glyph glyph-name="topoopen" unicode="8" 
d="M1560 -14q-66 0 -104 38q-38 42 -38 92h-264q0 -52 -40 -92q-38 -38 -104 -38h-136q-36 0 -74 38q-40 40 -40 92v130q0 54 40 94q42 42 94 42v132q-52 0 -94 42q-38 40 -40 82h-254h-140v400q-50 0 -88 38q-42 42 -42 100v114q0 56 40 96t90 40h140q44 0 84 -40t40 -96
v-114q0 -60 -40 -100q-38 -38 -86 -38v-264h256q0 48 40 88q2 2 11 12t12 12t10 8t12 7t13 3t16 2h136q60 0 104 -44q38 -38 40 -88v-136q0 -42 -40 -82q-42 -40 -88 -42v-132q46 0 88 -42q36 -36 40 -94h264q0 52 38 94t104 42h138q18 0 32 -7t18 -11l24 -24q40 -40 40 -94
v-130q0 -52 -40 -92q-36 -36 -74 -38h-138z" />
    <glyph glyph-name="play" unicode="9" 
d="M1024 1437q356 0 608 -252t252 -608t-252 -608t-608 -252t-608 252t-252 608t252 608t608 252zM692 135l882 442l-882 442v-884z" />
    <glyph glyph-name="conn" unicode=":" 
d="M191 -102v1272h510v-246h-254v-778h254v-248h-510zM1339 -102v248h262v778h-262v246h518v-1272h-518z" />
    <glyph glyph-name="delconn" unicode=";" 
d="M1339 -102v248h262v778h-262v246h518v-1272h-518zM191 -102v1272h510v-246h-254v-778h254v-248h-510zM1293 354l-92 -92l-176 176l-182 -182l-96 96l182 182l-180 180l92 92l180 -180l178 178l96 -96l-178 -178z" />
    <glyph glyph-name="disk" unicode="&#x3c;" 
d="M880 644q0 -62 44 -104q42 -40 100 -40t102 42q42 40 42 102q0 64 -44 104t-102 40t-100 -41t-42 -103zM1070 -134q296 0 514 236q224 242 224 548v6q0 294 -228 526q-226 230 -544 230h-6q-314 0 -538 -232q-228 -236 -228 -534t228 -540q226 -240 544 -240h34zM128 640
q0 336 282 620q256 258 618 258q344 0 620 -258q272 -254 272 -618q0 -346 -272 -620q-256 -258 -618 -258q-364 0 -633 257t-269 619zM704 644q0 134 93 227t228 93t227 -93t92 -228t-92 -227t-227 -92t-228 92t-93 228z" />
    <glyph glyph-name="icons" unicode="=" 
d="M1605 -5v356h-359v-356h359zM791 -5v356h-350v-356h350zM1605 785v356h-359v-356h359zM791 785v356h-350v-356h350zM910 -124h-586v594h586v-594zM1724 -124h-596v594h596v-594zM910 664h-586v594h586v-594zM1724 664h-596v594h596v-594z" />
    <glyph glyph-name="sound" unicode="&#x3e;" 
d="M402 892l406 456v-1414l-406 454h-230v504h230zM1032 954q154 -102 154 -298q0 -220 -154 -320l-68 136q72 58 72 170v2q-2 90 -72 170v4zM1536 654q0 -198 -94 -367t-252 -259l-70 136q120 70 193 203t73 288t-72 277t-194 192v4l68 132q158 -90 253 -249t95 -357z
M1346 1568q242 -136 386 -375t144 -537t-144 -550t-386 -384l-68 134q202 114 325 330t123 469t-122 457t-328 318z" />
    <glyph glyph-name="question" unicode="?" 
d="M1024 1438q358 0 610 -253t252 -609t-252 -609t-610 -253q-356 0 -609 253t-253 609t253 609t609 253zM846 166v-20q0 -50 36 -86q38 -34 102 -34t100 35t36 95t-38 96q-40 34 -99 34t-101 -34q-36 -36 -36 -86zM870 420l2 -50l2 -22h204v24q0 54 16 86q18 32 42 62
q28 28 59 51q43 32 67 61q69 83 70 208q1 2 1 4q-36 153 -80 191q-82 71 -203 71q-122 0 -193 -23t-131 -65l-20 -12l94 -178l22 16q4 2 28 16q75 44 142.5 44t83.5 -22q22 -22 22 -55t-14 -59q-26 -35 -48 -54.5t-33 -29.5t-32 -29q-58 -53 -91 -151q-10 -46 -10 -84z" />
    <glyph glyph-name="localize" unicode="@" 
d="M1031 1440q188 0 323 -135t135 -321q0 -220 -416 -1120l-50 -102q-52 108 -129 276t-206 501t-129 445q0 188 134 322t322 134h8h8zM1023 814q86 0 148 61t62 149q0 86 -62 147t-148 61q-88 0 -149 -61t-61 -147q0 -88 61 -149t149 -61z" />
    <glyph glyph-name="textjustify" unicode="A" 
d="M256 512v130h1538v-130h-1538zM256 1v127h1538v-127h-1538zM254 254v130h1540v-130h-1540zM254 772v126h1284v-126h-1284zM256 1022v130h1538v-130h-1538z" />
    <glyph glyph-name="textcenter" unicode="B" 
d="M257 512v130h1534v-130h-1534zM257 1v127h1534v-127h-1534zM512 254v130h1027v-130h-1027zM512 772v126h1027v-126h-1027zM257 1022v130h1534v-130h-1534z" />
    <glyph glyph-name="textright" unicode="C" 
d="M508 512v130h1284v-130h-1284zM256 1v127h1536v-127h-1536zM772 254v130h1020v-130h-1020zM772 772v126h1020v-126h-1020zM256 1022v130h1536v-130h-1536z" />
    <glyph glyph-name="false" unicode="D" 
d="M1025 1430q354 0 605 -252t251 -606t-251 -605t-605 -251t-606 251t-252 605t252 606t606 252zM1261 516q-22 24 -22 57t22 57l222 222q22 24 23 58t-23 56l-62 64q-24 22 -58 22t-58 -22l-220 -224q-24 -22 -58 -22t-58 22l-222 224q-22 22 -56 22t-58 -22l-62 -64
q-22 -22 -23 -56t23 -58l222 -222q22 -24 23 -57t-23 -57l-222 -222q-22 -24 -23 -58t23 -56l62 -64q22 -22 56 -22t58 22l222 224q22 22 56 22t60 -22l220 -224q22 -22 56 -22t60 22l62 64q22 22 23 56t-23 58z" />
    <glyph glyph-name="view" unicode="E" 
d="M1024 1088q129 0 265 -48t237 -117t184 -138t125 -117l44 -48v-16q-16 -18 -45 -50t-122 -112t-189 -141t-234 -111t-267 -50t-265 48t-236 116t-183 137t-127 117l-42 48v18q16 18 45 50t122 112t188 141t233 111t267 50zM1021 324q118 0 201 83t83 201q0 116 -83 199
t-201 83q-116 0 -200 -83t-84 -199q0 -118 84 -201t200 -83zM1020 740q53 0 92 -39t39 -92t-39 -91t-92 -38t-91 38t-38 91t38 92t91 39z" />
    <glyph glyph-name="file" unicode="F" 
d="M1280 1024h258l-258 262v-262zM514 2h1024v902h-384l2 382h-642v-1284zM1660 -116h-1272v1530h892l380 -390v-1140z" />
    <glyph glyph-name="global" unicode="G" 
d="M521 664l30 -54q0 -4 -2 -4h-6q-28 0 -67 114t-41 116q-62 -126 -62 -264q0 -248 174 -444q194 -218 478 -218q142 0 271 60t221 168q18 22 18 66v22q0 26 4 38q12 -4 15 -1t8 14t9 15q2 -6 2 -19t-10 -42t-10 -49q122 172 122 378q0 34 -17 47t-48 21t-47 24
q18 -34 14 -40q12 8 12 -10q20 0 30 2q2 2 12 0t10 -12q0 -18 -74 -68l-24 -14h-4q-8 0 -48 71t-42 83q12 0 16 7t6 23t6 24q-8 -4 -23 -4t-39 12t-28 24q-2 -6 -2 -15t-2 -15v-4l-14 20q-44 56 -54 56q-4 0 -4 -2q8 -6 24 -23t16 -23q-8 4 -8 0l-4 -8l-6 -8q0 22 -14 36
q-12 12 -38 12t-32 2q-22 -58 -47 -58t-25 58q4 -4 27 -4t23 4q4 0 -5 18t-15 26q2 -2 14 -2t36 26t24 44q12 4 16 6q6 -6 6 -14q30 8 -3 23t-35 5q-10 10 -10 18t26 14t26 10t5 2t5 0l-10 4q0 2 46 24t94 22t64 -22q-8 0 -25 -2t-25 -2q34 -50 60 2q-94 110 -225 169
t-275 59q-258 0 -442 -172q24 -12 40 -28h-12l-12 -4l-12 -4l-4 -4q22 -8 50 0q10 2 -2 6q12 -4 42 26q8 -2 26 -21t18 -23q8 0 17 11t23 13l-18 -40q16 -6 26 -14q-20 0 -27 -1t-7 3v10q2 6 2 10l-12 2q-36 0 -36 -52q0 -8 2 -18v-12q40 -10 46 -15t16 -17t18 -20
q20 0 20 33t-6 63q6 2 18 2q40 0 56 -36q18 -2 26 18q8 -16 33 -39t25 -25q-18 0 -63 -19t-45 -39l48 24q0 -4 -2 -14q-4 -18 16 -18q0 -10 -30 -10q0 2 6 2t4 8q-22 -8 -67 -79t-45 -93q-10 26 -20 34t-38 8q-48 -8 -48 -55t30 -47q22 0 40 24q4 -14 -4 -26t-10 -19t3 -8
t21 3v-2q0 -10 22 -41t33 -31t11 22q0 16 20 16l68 -14h2q34 -16 81 -61t47 -61q18 8 32 8q22 0 22 -30q0 -28 -40 -112q-40 -82 -46 -88q-26 -8 -73 -67t-47 -75v-24q0 -8 -11 -14t-7 -20q-50 0 -50 58q0 30 20 103t20 99t-12 42q-62 80 -62 114v6q18 48 18 75t-10 27
q-42 0 -112 68q-106 104 -114 112l-20 20q-2 0 -2 -2zM1025 1368q332 0 569 -238t237 -570t-237 -570t-569 -238t-570 238t-238 570t238 570t570 238zM1605 746q-4 10 -18 18q0 14 -6 17t-1 6t9 3l6 4q-16 16 -25 16t-9 -19t13 -50t20 -31t9 8q-2 0 -7 12t-5 16h14z
M1457 752l56 6q0 14 -31 30t-45 16h-2q-8 -16 -8 -30q0 -22 30 -22zM1089 976l46 -6q0 -26 -60 -12q0 18 14 18zM1223 900q-6 -18 24 -48q-4 -4 -32 -12q0 2 -10 12q-12 8 10 12q-4 20 -9 28t3 14q6 -2 6 -4zM1181 880q20 -32 -10 -32q-8 12 10 32zM893 796q4 4 8 6
q0 -6 -8 -6zM1289 756q6 4 6 0q-2 -12 -12 -16v22l2 -4zM1329 726q0 -10 -7 -5t-11 5q12 2 18 0zM1465 612q8 -36 37 -80t59 -44q10 0 20 6q0 -10 -42 -82t-42 -83t6 -11v-14q0 -32 -16 -74t-20 -56q-26 -72 -70 -72q-34 0 -64 40t-30 158q0 116 -10 134q-14 6 -66 12
t-86 22t-34 54q0 16 20 66q48 132 156 132h12q10 -4 14 -23t16 -19h18q50 0 50 -8q74 -38 74 -48zM771 596l26 -16q6 -8 -4 -8t-22 6t0 18zM815 568q18 -4 20 2q8 -2 12 -12q-32 -8 -42 2q8 -2 11 -1t-1 9zM777 560q6 0 6 -6q-8 0 -6 6z" />
    <glyph glyph-name="home" unicode="H" 
d="M1532 644v-770h-362v464h-294v-464h-366v770h-382l892 894l900 -894h-388z" />
    <glyph glyph-name="batch" unicode="I" 
d="M1859 506v-624h-1670v624l316 906h1046zM1261 506h398l-212 704l-838 2l-208 -706h394l100 -244h260z" />
    <glyph glyph-name="collide" unicode="J" 
d="M1878 1094l-250 -250l168 -168l-756 -86l88 756l164 -166l250 250zM420 304l-168 168l756 88l-88 -758l-166 168l-250 -250l-334 334zM514 794l404 -138l-452 36zM946 854v-174l-56 164zM1538 356l-402 142l452 -40zM1106 300v174l58 -166z" />
    <glyph glyph-name="copy" unicode="K" 
d="M1731 127v392h-388v-392h388zM1215 -2v262h-760v382h-262v638h638v-638h-258v-262h642v262h640v-644h-640z" />
    <glyph glyph-name="paste" unicode="L" 
d="M705 768v392h-388v-392h388zM1215 -2v262h-760v382h-262v638h638v-638h-258v-262h642v262h640v-644h-640z" />
    <glyph glyph-name="mail" unicode="M" 
d="M1709 0l-550 512l-136 -128l-138 128l-548 -512h1372zM333 120l486 452l-624 580v-1152zM1115 596l594 556h-1372l686 -640zM1859 1152l-630 -576l630 -576v1152zM63 -128v1408h1922v-1408h-1922z" />
    <glyph glyph-name="articles" unicode="N" 
d="M1781 1386q34 0 46 -12t12 -48v-1378q0 -34 -12 -47t-46 -13h-146h-1118h-146q-58 0 -110 54t-52 108v1034q0 34 13 47t47 13h188v182q0 34 12 47t48 13h1264zM1739 -10v1294h-1182v-166v-102v-882h-100v908h-146v-992q0 -14 23 -37t37 -23h146h1118h104zM1089 1148v-378
h-378v378h378zM1603 1150v-124h-382v124h382zM1603 888v-122h-382v122h382zM1603 640v-124h-896v124h896zM1601 382v-128h-888v128h888z" />
    <glyph glyph-name="upload" unicode="O" 
d="M257 518h248v-262h1040v262h246v-518h-1534v518zM887 510v262h-262l394 452l392 -452h-262v-262h-262z" />
    <glyph glyph-name="img" unicode="P" 
d="M704 960q0 -80 -56 -136t-136 -56t-136 56t-56 136t56 136t136 56t136 -56t56 -136zM1728 576v-448h-1408v192l320 320l160 -160l512 512zM1824 1280h-1600q-13 0 -22.5 -9.5t-9.5 -22.5v-1216q0 -13 9.5 -22.5t22.5 -9.5h1600q13 0 22.5 9.5t9.5 22.5v1216
q0 13 -9.5 22.5t-22.5 9.5zM1984 1248v-1216q0 -66 -47 -113t-113 -47h-1600q-66 0 -113 47t-47 113v1216q0 66 47 113t113 47h1600q66 0 113 -47t47 -113z" />
    <glyph glyph-name="logout" unicode="Q" 
d="M1554 1130q124 -110 195 -265t71 -329q0 -330 -233 -565t-563 -235t-563 235t-233 565q0 174 71 329t197 267q36 32 86 32h8q56 -4 90 -46q32 -34 32 -84v-10q-4 -54 -44 -88q-180 -160 -180 -400q0 -224 157 -382t380 -158t379 158t158 382q0 240 -180 398
q-40 36 -42 90q-2 4 -2 8q0 50 34 86q34 38 90 42q4 2 8 2q50 0 84 -32zM1027 402q-53 0 -91 39t-38 93v832q0 54 38 93t91 39t92 -39t39 -93v-832q0 -54 -39 -93t-92 -39z" />
    <glyph glyph-name="get" unicode="R" 
d="M1512 172v262l188 138v-572h-1532v1026h670q-44 -36 -98 -58q-56 -22 -80 -44q-68 -60 -72 -64l-234 -4v-684h1158zM1880 854l-640 -432v280q-184 0 -290 -14q-100 -12 -183 -43t-130 -69t-80 -73t-45 -57l-12 -24q0 110 41 204t105 155t144 108t159 72t144 41t105 20
l42 4v258z" />
    <glyph glyph-name="like" unicode="S" 
d="M1755 832q56 0 82 -29q25 -28 24 -56t-22 -57q-5 -7 -34 -28l-376 -248q-4 -2 -11 -14t-5 -22v-8l166 -484q8 -22 8 -50t-18 -54t-58 -28h-2q-32 2 -74 30l-390 318q-6 6 -20 6t-18 -6l-370 -314q-36 -28 -74 -32h-8q-36 0 -54 27t-18 49t8 52l148 482v8q2 10 -4 23
t-12 15l-380 250q-55 38 -55 84v3v3q-1 1 -1 4q5 39 50 66q17 10 56 10h470q12 0 24 9t14 19l136 490q21 76 86 82q45 -2 68 -40q6 -10 20 -42l136 -490q0 -10 12 -19t24 -9h472z" />
    <glyph glyph-name="users" unicode="T" 
d="M783 -130v524h-142v496q0 54 38 92q40 40 104 40h492q54 0 92 -40q40 -38 40 -92v-496h-132v-524h-492zM259 0v394h-132v630q0 54 38 92t94 38h382q-56 0 -94 -38q-36 -36 -36 -94v-768h130v-254h-382zM1407 0v254h126v768q0 72 -22 94q-38 38 -72 38h350q54 0 92 -38
q40 -38 40 -92v-500h-132v-524h-382zM1013 1150q-46 0 -84 38q-36 38 -38 94q0 54 38 92t94 38q54 0 92 -38t38 -92q0 -56 -38 -94q-38 -36 -92 -38h-10zM373 1276q-46 0 -84 36q-36 38 -36 94q0 54 36 92q38 38 94 40q54 0 92 -40q38 -38 40 -92q0 -56 -40 -94
q-38 -36 -92 -36h-10zM1645 1278q-38 0 -76 36q-36 38 -38 94q0 54 38 92t94 40q54 0 92 -40q38 -38 38 -92q0 -56 -38 -94q-38 -36 -92 -36h-18z" />
    <glyph glyph-name="user" unicode="U" 
d="M1384 1124l-6 -128q0 -148 -22 -206q-78 -196 -146 -274q134 -22 192 -56q20 -12 93 -53t143 -81t137 -97t73 -87l6 -30v-238h-1660v238q0 67 110 142q56 38 92 53t122 64q200 114 372 145q-72 74 -148 274q-22 58 -22 206l-4 122q0 51 8 86q52 228 318 228
q254 0 330 -228q12 -36 12 -80z" />
    <glyph glyph-name="video" unicode="V" 
d="M720 1000l718 -360l-718 -356v716zM1732 1148h-1408v-1016h1408v1016zM1856 132q0 -60 -40 -100q-36 -36 -96 -36h-1396q-52 0 -92 38t-40 98v1016q0 56 40 96t92 40h1396q52 0 96 -40q40 -36 40 -96v-1016z" />
    <glyph glyph-name="edit" unicode="W" 
d="M1482 124v426l198 216v-642q0 -146 -64 -202q-58 -50 -212 -50h-1008q-124 0 -184 66q-68 74 -68 186v1010q0 140 58 206q58 64 194 64h1074q36 0 50 -4l-178 -186h-944q-26 0 -40 -16q-16 -18 -16 -40v-1034q0 -24 16 -40t40 -16h1028q24 0 40 16t16 40zM1006 756
l628 626l270 -270l-658 -662l-66 -64l-400 -128l128 400zM1146 440l-182 182l-88 -268z" />
    <glyph glyph-name="block" unicode="X" 
d="M765 512v128h1025v-128h-1025zM256 1v127h1536v-127h-1536zM765 254v130h1025v-130h-1025zM765 772v126h1025v-126h-1025zM256 1022v130h1536v-130h-1536zM258 908l336 -334l-336 -336v670z" />
    <glyph glyph-name="unblock" unicode="Y" 
d="M766 514v126h1024v-126h-1024zM256 1v127h1536v-127h-1536zM766 254v130h1024v-130h-1024zM766 769v129h1024v-129h-1024zM256 1022v130h1536v-130h-1536zM595 238l-336 336l335 334z" />
    <glyph glyph-name="apps" unicode="Z" 
d="M1023 -246q-362 0 -620 258t-258 620q0 364 258 622t620 258q364 0 622 -258t258 -622q0 -362 -258 -620t-622 -258zM1023 1294q-276 0 -464 -194q-196 -194 -196 -468q0 -270 196 -464q188 -194 464 -194q274 0 468 194t194 464q0 274 -194 468t-468 194zM1381 990
l-234 -506l-506 -234l216 524zM1087 546l-158 156l-116 -282z" />
    <glyph glyph-name="previous" unicode="[" 
d="M1743 1418v-1420l-1438 700z" />
    <glyph glyph-name="agenda" unicode="\" 
d="M1594 1156h198v-1412h-1536v1412h184v94q0 72 40 111t114 39t116 -40t42 -110v-94h106v94q0 70 42 110t116 40t115 -39t41 -111v-94h106v94q0 70 42 110t116 40t116 -40t42 -110v-94zM1364 1250v-178q0 -66 72 -66q38 0 56 16t18 50v178q0 34 -17 50t-57 16
q-72 0 -72 -66zM942 1250v-178q0 -34 18 -50t56 -16q72 0 72 66v178q0 66 -72 66q-38 0 -56 -16t-18 -50zM522 1250v-178q0 -66 72 -66q38 0 56 16t18 50v178q0 34 -17 50t-57 16q-72 0 -72 -66zM1666 -130v1024h-1282v-1024h1282zM1018 274q0 -92 -71 -143t-185 -51
q-74 0 -148 28l14 108q72 -28 148 -30q50 0 79 23t29 57q0 46 -34 67t-122 25v108q128 10 128 76v2q0 56 -80 56h-6q-60 0 -124 -30l-14 106q70 30 172 30q92 0 145 -36t53 -94q0 -102 -132 -148v-2q148 -42 148 -152zM1240 540l-106 -40l-16 106l188 90h62v-606h-128v450z
" />
    <glyph glyph-name="download" unicode="]" 
d="M257 518h248v-262h1040v262h246v-518h-1534v518zM1151 1150v-262h262l-394 -452l-392 452h262v262h262z" />
    <glyph glyph-name="local" unicode="^" 
d="M864 1280q0 62 46 108t110 46t110 -46t46 -110q0 -60 -46 -108t-110 -48t-110 47t-46 111zM638 898v32v2v2v2v2q-4 8 38 50q38 38 90 38h512q52 0 90 -38t38 -82v-8l-40 -512h-148l-28 -350q132 -12 236 -44q166 -52 166 -124t-166 -124t-402 -52t-402 52t-166 124
t166 124q102 32 232 44l-28 350h-148zM608 -160q0 -10 116 -62t268 -52h32q244 0 304 50l88 58l20 34q0 70 -110 110q-62 22 -138 32l-10 -136h-312l-10 136q-64 -8 -134 -32q-118 -40 -128 -104z" />
    <glyph glyph-name="redim" unicode="_" 
d="M256 754h664v531h-664v-531zM1922 1q0 -55 -49 -95q-41 -33 -83 -33h-1534q-56 0 -92 40q-33 37 -38 88v1279q0 57 38 94q39 38 92 38h1520q64 0 105 -38t41 -94v-1279zM256 644v-643h1534v1284h-764v-513q0 -55 -49 -95q-40 -33 -83 -33h-638z" />
    <glyph glyph-name="fullscreen" unicode="`" 
d="M1219 663l-92 92l273 273l-92 92l274 -3l2 -273l-92 92zM1922 1284v-1279q0 -56 -41 -94t-105 -38h-1520q-53 0 -92 38q-38 37 -38 94v1279q5 51 38 88q36 40 92 40h1534q42 0 83 -33q49 -40 49 -95zM256 641h638q43 0 83 -33q49 -40 49 -95v-513h764v1284h-1534v-643z
" />
    <glyph glyph-name="anchor" unicode="a" 
d="M1024 1106q59 0 102 42q42 41 42 101v3q0.0227273 1.27273 0.0227273 2.53874q0 54.4385 -42.0227 96.4613q-43 43 -102 43q-58 0 -101 -43t-43 -102t42.5 -101t101.5 -42zM1617 142q-111 -116 -261 -187t-332 -71q-232 0 -427 120q-96 59 -168 137l-126 -127
q-9 -7 -17 -7q-10 0 -13 17l-63 439q-1 14 8 23q8 8 22 6l440 -62q15 -3 17 -15q1 -7 -8 -14l-113 -115q128 -142 314 -181v629h-183v141h183v138q-80 56 -117 141q-20 46 -20 103v6q0 68 40 131q39 62 95 92q66 36 137 36q80 0 141 -38q60 -38 96 -98q37 -63 37 -135v-4
q0.0243902 -1.68293 0.0243902 -3.36228q0 -67.1743 -39.0244 -128.638q-40 -63 -96 -102v-138h173v-141h-173v-629q178 36 311 181l-116 114q-7 7 -8 17t18 13l438 61q15 3 23 -5q9 -9 7 -23l-63 -439q-2 -18 -14 -18q-7 0 -15 8z" />
    <glyph glyph-name="server" unicode="b" 
d="M815 -18v206l-416 3v-207zM817 506v200h-415v-200h415zM813 1020v200h-411v-200h411zM197 -124v407h322v127h-322v390h322v129h-322v399h1654v-399h-1181v-129h1181v-390h-1181v-127h1181v-407h-1654z" />
    <glyph glyph-name="upcloud" unicode="c" 
d="M1174 1290q34 4 66 4q116 -2 182 -46q92 -62 170 -128q170 -144 170 -410q0 -46 -18 -58q138 -58 188 -116q64 -74 64 -216q0 -90 -16 -124q-38 -84 -94 -146q-102 -112 -272 -112h-20h-464v378h72h174q28 0 36 14q8 16 -8 38l-340 406q-20 24 -44 24q-26 0 -46 -24
l-338 -406q-20 -24 -12 -38t36 -14h178h72v-378h-464q-126 0 -220 16q-92 16 -100 38q-74 204 -74 338q0 104 52 196q50 88 140 144q-12 40 -12 76q0 108 78 188t188 80q92 0 162 -56q94 190 214 242q176 76 300 90z" />
    <glyph glyph-name="forbid" unicode="d" 
d="M1024 1268q192 0 354 -94t256 -256t94 -354t-94 -354t-256 -256t-354 -94q-190 0 -352 94q-158 92 -256 256q-96 162 -96 354t94 354q96 162 258 256t352 94zM1026 1074q-212 0 -362 -150q-148 -148 -148 -362q0 -92 98 -278l690 692q-186 98 -278 98zM1026 50
q212 0 364 152q148 148 148 360q0 100 -104 286l-694 -694q188 -104 286 -104z" />
    <glyph glyph-name="del" unicode="e" 
d="M802 -128q-9 -9 -15 -9q-3 0 -3 8v13l147 625q2 6 2 8q0 15 -26 15h-320q-8 0 -13 5q-4 5 -4 14q0 11 4 16q500 661 674 893q6 9 11 9t5 -9v-7l-146 -617q-1 -5 -1 -10q0 -10 6 -14q5 -5 16 -5h320q19 0 19 -15q0 -8 -6 -14q-666 -899 -670 -906z" />
    <glyph glyph-name="rss" unicode="f" 
d="M326 48q0 76 54 130t130 54t130 -54t54 -130t-54 -130t-130 -54t-130 54t-54 130zM1202 -112h-244q0 110 -37 214t-109 194t-195 145t-279 55v256q216 0 385 -70t272 -192t155 -274t52 -328zM1722 -112h-240q0 242 -69 444t-205 356t-358 241t-512 87v260q340 0 605 -103
t434 -289t257 -438t88 -558z" />
    <glyph glyph-name="fileshare" unicode="g" 
d="M1143 1284h-539q-54 0 -83 -43q-17 -26 -17 -57v-1089q0 -54 43 -83q26 -17 57 -17h833q59 0 83 38q17 26 17 62v785q0 48 -32 81l-277 286q-36 37 -85 37zM1592 1044q65 -68 65 -164v-785q0 -101 -77 -167q-63 -53 -143 -53h-833q-101 0 -167 77q-53 63 -53 143v1089
q0 101 77 167q63 53 143 53h539q101 0 171 -73zM890 131v252h-104v302q0 32 28 56q30 26 76 26h264q36 0 66 -26t30 -56v-302h-96v-252h-264zM1012 851q-32 0 -58 24q-28 24 -28 60q0 30 26 56q28 28 66 28q46 0 68 -24q26 -28 26 -60q0 -34 -26 -60q-24 -24 -68 -24h-6z
" />
    <glyph glyph-name="info" unicode="h" 
d="M1024 1424q234 0 422 -112t304 -308q114 -192 114 -420q0 -232 -112 -422q-112 -192 -308 -306q-192 -112 -420 -112t-422 112t-306 306t-112 422t112 422q112 192 306 305t422 113zM884 1144v-280h280v280h-280zM1304 24v140h-140v560h-420v-140h140v-420h-140v-140h560
z" />
    <glyph glyph-name="sticky" unicode="i" 
d="M1370 258v-202l200 202h-200zM480 1152v-1096h758v336h332v760h-1090zM322 -100v1404h1404v-1086l-314 -318h-1090z" />
    <glyph glyph-name="url" unicode="j" 
d="M947 583q-20 -20 -20 -42q-8 -18 -8 -60t44 -90l322 -322q44 -44 108 -44t104 44l132 130q42 42 42 107t-42 107l-202 200q2 12 2 46q0 182 -126 308q86 -26 150 -90l320 -320q36 -36 48 -59t14 -23v-2l2 -2v-4q40 -74 40 -156q-2 -46 -12 -92q-20 -90 -92 -164
l-130 -130q-104 -104 -252 -104t-250 104l-322 322q-76 76 -98 186q-4 40 -4 69t6 67l6 24q8 30 28 70v2l26 38v2l16 18v4q18 18 20 22l58 56l124 -124l8 -12l4 -14l-50 -52q-6 -6 -10 -12t-6 -8zM1119 603q0 2 4 14t4 51t-44 91l-322 322q-44 44 -104 44q-2 0 -4 -2
q-62 0 -104 -42l-132 -132q-42 -42 -42 -108t42 -104l202 -202q-2 -12 -2 -47t8 -69q20 -134 118 -238q-82 24 -144 86l-6 4l-320 322q-36 36 -48 59t-14 23v2l-2 2v2q-38 78 -38 138t10 112q24 94 92 164l130 128q104 104 252 104l2 2q146 0 248 -106l158 -154l96 -100
l68 -66q104 -104 104 -250q0 -22 -8 -72l-6 -24q-6 -24 -26 -70q-6 -8 -12 -22l-6 -6q-4 -8 -11 -15t-13 -19l-80 -82l-124 124q-2 2 -4 7t-4 7t-2 7t-2 7l50 50q2 2 8 11t7 9t1 2v2q14 14 20 32v2z" />
    <glyph glyph-name="love" unicode="k" 
d="M1783 806q0 -114 -70 -244t-204 -224q-130 -92 -214 -166q-96 -86 -142 -140q-44 -50 -80 -104q-32 -46 -40 -70l-8 -24q-4 18 -8 26q-22 38 -40 66q-28 44 -82 106q-54 64 -142 140q-96 84 -214 166q-130 90 -202 224t-72 262q0 126 72 238q70 108 202 154q52 18 108 18
h18q46 0 100 -20q124 -46 188 -112q72 -72 72 -136q0 64 72 138q68 70 188 110q60 20 116 20q54 0 108 -18q132 -44 204 -156q70 -110 70 -236v-18z" />
    <glyph glyph-name="filelist" unicode="l" 
d="M190 4v252h256v-252h-256zM190 516v256h256v-256h-256zM190 1028v256h256v-256h-256zM702 4v252h1156v-252h-1156zM702 516v256h1156v-256h-1156zM702 1028v256h1156v-256h-1156z" />
    <glyph glyph-name="music" unicode="m" 
d="M1775 1396v-1190q-2 -106 -96 -180t-207 -74t-207 76t-94 183t94 182t203 75t177 -26v632l-766 -172v-1014q-2 -106 -77 -181t-207 -75q-134 0 -228 75t-94 185q0 106 95 182t227 76q84 0 154 -28l2 1022z" />
    <glyph glyph-name="table" unicode="n" 
d="M704 32v192q0 14 -9 23t-23 9h-320q-14 0 -23 -9t-9 -23v-192q0 -14 9 -23t23 -9h320q14 0 23 9t9 23zM704 416v192q0 14 -9 23t-23 9h-320q-14 0 -23 -9t-9 -23v-192q0 -14 9 -23t23 -9h320q14 0 23 9t9 23zM1216 32v192q0 14 -9 23t-23 9h-320q-14 0 -23 -9t-9 -23
v-192q0 -14 9 -23t23 -9h320q14 0 23 9t9 23zM704 800v192q0 14 -9 23t-23 9h-320q-14 0 -23 -9t-9 -23v-192q0 -14 9 -23t23 -9h320q14 0 23 9t9 23zM1216 416v192q0 14 -9 23t-23 9h-320q-14 0 -23 -9t-9 -23v-192q0 -14 9 -23t23 -9h320q14 0 23 9t9 23zM1728 32v192
q0 14 -9 23t-23 9h-320q-14 0 -23 -9t-9 -23v-192q0 -14 9 -23t23 -9h320q14 0 23 9t9 23zM1216 800v192q0 14 -9 23t-23 9h-320q-14 0 -23 -9t-9 -23v-192q0 -14 9 -23t23 -9h320q14 0 23 9t9 23zM1728 416v192q0 14 -9 23t-23 9h-320q-14 0 -23 -9t-9 -23v-192
q0 -14 9 -23t23 -9h320q14 0 23 9t9 23zM1728 800v192q0 14 -9 23t-23 9h-320q-14 0 -23 -9t-9 -23v-192q0 -14 9 -23t23 -9h320q14 0 23 9t9 23zM1856 1120v-1088q0 -66 -47 -113t-113 -47h-1344q-66 0 -113 47t-47 113v1088q0 66 47 113t113 47h1344q66 0 113 -47t47 -113
z" />
    <glyph glyph-name="folder" unicode="o" 
d="M1725 0v894h-898v262h-506v-1156h1404zM321 -130q-56 0 -94 36q-36 38 -36 94v1156q0 54 36 92q40 40 94 40h506q54 0 92 -39t38 -93v-130h768q54 0 93 -39t39 -93v-894q0 -56 -40 -94q-38 -36 -92 -36h-1404z" />
    <glyph glyph-name="editor" unicode="p" 
d="M629 -132l-464 -150l64 208l86 256l942 942l314 -312l-812 -812zM533 134l776 776l-52 52l-778 -778zM1569 1436l314 -314l-206 -204l-314 312z" />
    <glyph glyph-name="forum" unicode="q" 
d="M1833 248q0 -86 -53 -154t-135 -90q34 -102 134 -168q26 -18 -18 -28q-24 -6 -52 -6q-84 0 -182 48q-106 52 -198 146h-520q-86 0 -158 56q62 36 114 88h474q152 0 259 107t107 259v482q96 -10 162 -82t66 -170v-488zM1491 506q0 -106 -74 -180t-178 -74h-518
q-100 -102 -205 -147t-185 -45q-70 0 -70 22q0 6 6 10q102 78 136 168q-82 22 -135 90t-53 156v486q0 104 73 179t181 75h770q104 0 178 -75t74 -179v-486z" />
    <glyph glyph-name="virtual" unicode="r" 
d="M1725 0v894h-898v262h-508v-1156h1406zM321 -130q-56 0 -94 36q-36 38 -36 94v1156q0 48 36 86q40 40 94 40h506q54 0 92 -39t38 -87v-130h768q54 0 93 -39t39 -93v-894q0 -56 -40 -94q-38 -36 -92 -36h-1404zM445 126v130h1152v-130h-1152zM445 384v128h768v-128h-768z
M445 642v126h896v-126h-896z" />
    <glyph glyph-name="search" unicode="s" 
d="M1817 -12q46 -46 46 -106v-4q0 -60 -40 -98q-38 -38 -96 -40q-66 0 -114 48l-448 448q-152 -98 -340 -98q-264 0 -452 187t-188 451t188 452t452 188t451 -188t187 -452q0 -184 -96 -338zM1181 777q0 147 -104 252t-252 105t-252 -105t-104 -252t104 -252t252 -105
t252 105t104 252z" />
    <glyph glyph-name="time" unicode="t" 
d="M1023 -246q-362 0 -620 258t-258 620q0 364 258 622t620 258q364 0 622 -258t258 -622q0 -362 -258 -620t-622 -258zM1023 1294q-276 0 -464 -194q-196 -194 -196 -468q0 -270 196 -464q188 -194 464 -194q274 0 468 194t194 464q0 274 -194 468t-468 194zM1419 638v-126
h-490v636h178v-510h312z" />
    <glyph glyph-name="network" unicode="u" 
d="M661 824l96 -10q134 0 233 61t139 113q30 38 122 242q22 50 96 118q72 64 124 64h54q4 -2 6 -1t6 1q20 0 98 -20q94 -24 132 -104q36 -76 36 -158q0 -74 -28 -130q-42 -84 -70 -112q-94 -140 -111 -196t-17 -148t18 -136q24 -60 48 -94q52 -74 60 -86q52 -68 76 -122
q24 -56 24 -133t-39 -147t-127 -108q-50 -22 -90 -22q-150 0 -206 74q-24 30 -90 114q-8 10 -45 101t-82 144t-125 99q-114 68 -234 68q-26 0 -42 -4q-28 -6 -60 -6h-66l-76 -16q-48 0 -117 30t-114 101t-45 151t41 154t108 103t107 29q38 0 66 -4l28 -4zM1373 868
q-50 2 -80 2q-42 0 -44 2t-6 2q-12 -2 -66 -14t-126 -54q-70 -40 -119 -94t-53 -72l-28 -108q44 -66 84 -120q96 -128 240 -160q72 -16 106 -16t92 10q22 28 54 74q58 86 58 276q0 94 -31 151t-81 121z" />
    <glyph glyph-name="photo" unicode="v" 
d="M1580 940v-152h160v152h-160zM740 1124h576v192h-576v-192zM1862 1130q20 0 36 -14t16 -36v-1006q0 -24 -16 -38t-36 -14h-1674q-22 0 -38 14t-16 38v1006q0 22 16 36t38 14h368q0 2 2 2l50 218q4 16 30 32q22 14 46 14h678q66 0 78 -46l52 -218v-2h370zM1022 200
q162 0 274 112t112 272t-114 274q-112 112 -272 112q-154 0 -270 -114q-114 -112 -114 -272t113 -272t271 -112z" />
    <glyph glyph-name="chat" unicode="w" 
d="M1874 814q4 -34 4 -70q0 -240 -198 -436q-232 -232 -578 -264q-86 -8 -124 -8h-14q-54 0 -108 8q-188 -194 -402 -218q-26 -2 -48 -2q-54 0 -68 18q-6 8 6 16q166 124 166 272q0 12 -2 26q-142 80 -229 201t-105 265q-4 34 -4 70q0 238 198 434q226 228 576 268
q66 8 130 8q274 0 496 -138q270 -170 304 -450z" />
    <glyph glyph-name="tools" unicode="x" 
d="M1176 204q4 20 4 34l200 200l284 -284l194 -142l20 -78l-214 -212l-76 20l-142 192zM1644 46q-36 0 -62 -26t-26 -66q0 -36 26 -62t62 -26q38 0 64 26t26 62q0 38 -26 65t-64 27zM1058 760l-200 -200q-12 0 -32 -4l-146 142q-66 -30 -116 -30q-152 0 -273 123t-123 273
q0 2 34 38q130 -130 146 -140t92 -10q60 0 134 74t74 136q0 74 -12 93t-136 141q30 36 36 38h4q150 0 270 -124q122 -122 124 -274q0 -56 -34 -116zM1708 414q0 6 1 15t1 38t-3 57t-11 65t-22 69t-39 63t-59 49h-6q-20 0 -70 -46l-446 -444q6 -20 6 -36q0 -34 -22 -60
q-4 -2 -14 -12l-412 -412q-10 -10 -12 -14q-22 -22 -60 -22q-84 0 -158 98q-40 56 -40 98q0 32 24 60q6 4 12 12l414 414q10 6 12 12q22 22 58 22q18 0 38 -6l398 398l8 12q8 12 11 16t10 17t10 23t4 23t-3 27t-10 28q-32 60 -122 78h-2q-32 0 -112 76l-14 12q-38 38 -40 52
v2q0 12 36 54l148 148q34 34 54 36q12 0 52 -42l14 -12q68 -68 74 -100q8 -40 50 -94q6 -8 37 -8t39 -8l244 -244q94 -94 94 -274q0 -106 -34 -242l-30 -102z" />
    <glyph glyph-name="txt" unicode="y" 
d="M768 1016v262l-258 -262h258zM1534 -6v1284h-642l2 -382h-384v-902h1024zM388 -124v1140l380 390h892v-1530h-1272zM638 128v124h768v-124h-768zM638 384v124h768v-124h-768zM638 644v120h768v-120h-768z" />
    <glyph glyph-name="tag" unicode="z" 
d="M1147 -68q70 0 114 48l360 360l80 -80q30 -30 0 -64l-520 -520q-30 -32 -64 0l-716 718q-30 30 -36 72l-16 200l686 -686q46 -48 112 -48zM983 1360l718 -714q32 -32 0 -64l-520 -522q-14 -12 -33 -12t-31 12l-716 716q-30 34 -36 76l-34 390v10q0 38 28 62l88 90
q30 26 70 28h6l388 -36q44 -4 72 -36zM497 1264q-28 -26 -28 -68q-2 0 -2 -2q0 -38 30 -66q28 -26 68 -26t67 27t27 67t-28 68t-66 28t-68 -28z" />
    <glyph glyph-name="up" unicode="{" 
d="M1782 644h-480v-767h-548v767h-488l758 876z" />
    <glyph glyph-name="popup" unicode="|" 
d="M1706 948l-50 -50l-96 96l-102 -100l-52 52l100 100l-98 100l50 50l100 -98l98 98l52 -54l-98 -98zM1406 0v262h-752q-64 0 -102 38t-38 94v502h-258v-896h1150zM1788 384v896h-1148v-896h1148zM260 -132q-56 0 -94 38q-36 38 -36 94v896q0 54 36 92q38 38 94 38h254v254
q0 54 38 92t88 38h1148q56 0 92 -38q38 -40 38 -92v-886q0 -56 -38 -94q-40 -38 -92 -38h-252v-262q0 -56 -38 -94q-40 -38 -92 -38h-1146z" />
    <glyph glyph-name="down" unicode="}" 
d="M266 753h480v767h548v-767h488l-758 -876z" />
    <glyph glyph-name="update" unicode="~" 
d="M1024 1434q356 0 608 -252t252 -608t-252 -608t-608 -252t-608 252t-252 608t252 608t608 252zM1470 -12v642h-442l372 394h-304v260h-142v-260h-296l350 -394h-424v-642h388l-78 -120h258l-80 120h398zM700 128v376h638v-376h-638z" />
    <glyph glyph-name="stats" unicode="&#xae;" 
d="M160 -124v128h128v288q0 13 9 22q10 10 23 10h256q13 0 22 -9q10 -10 10 -23v-288h64v672q0 13 9 22q10 10 23 10h256q13 0 22 -9q10 -10 10 -23v-672h64v1376q0 13 9 22q10 10 23 10h256q13 0 22 -9q10 -10 10 -23v-1376h64v928q0 13 9 22q10 10 23 10h256q13 0 22 -9
q10 -10 10 -23v-928h128v-128h-1728z" />
    <glyph glyph-name="phi2" unicode="&#xaf;" 
d="M304 1316h288v-576h864v288h-576v288h864v-864h-576v-576h-288v576h-576v864z" />
    <glyph glyph-name="fb" unicode="&#xa3;" 
d="M1145 1h-288v495h-240v278h240v204q0 176 97 271q98 96 258 96h3q138 0 216 -9v-250h-149q-81 0 -108 -33q-29 -35 -29 -101v-178h276l-38 -278h-238v-495z" />
    <glyph glyph-name="corp" unicode="&#xa7;" 
d="M1219 382v128h-384v-128h384zM1219 638v128h-384v-128h384zM1219 896v128h-384v-128h384zM1219 1150v128h-384v-128h384zM1351 254v-128h382v128h-382zM1351 514v-128h382v128h-382zM1351 766v-128h382v128h-382zM319 254v-128h382v128h-382zM319 514v-128h382v128h-382z
M319 766v-128h382v128h-382zM831 258v-264h386v264h-386zM189 -128v1021l520 1l3 516h256v318h128v-318h257l-1 -516h507v-1022h-1670z" />
    <glyph glyph-name="phi" unicode="&#xb1;" 
d="M128 1280h1792v-1532h-1792v1532zM1152 514v254h256v-254h-256zM1152 2v256h512v768h-766v-512h-256v512h-256v-768h512v-256h254z" />
    <glyph glyph-name="menu" unicode="&#xa2;" 
d="M192 -42v252h1664v-252h-1664zM192 494v256h1664v-256h-1664zM192 1042v260h1664v-260h-1664z" />
    <glyph glyph-name="s1" unicode="&#xbc;" 
d="M1065 299h-80v182v122l-86 -86l-130 -130l-56 56l128 130l86 86h-120h-184v80h184h120l-86 86l-128 130l56 56l130 -130l86 -86v122v182h80v-182v-122l84 86l130 130l56 -56l-128 -130l-86 -86h120h184v-80h-184h-120l86 -86l128 -130l-56 -56l-130 130l-84 86v-122v-182
z" />
    <glyph glyph-name="s2" unicode="&#xbd;" 
d="M1577 300h-80v182v122l-86 -86l-130 -130l-56 56l130 130l84 86h-120h-184v80h184h120l-84 86l-130 130l56 56l130 -130l86 -86v122v182h80v-182v-122l84 86l130 130l58 -56l-130 -130l-86 -86h122h182v-80h-182h-122l86 -86l130 -130l-58 -56l-130 130l-84 86v-122v-182
zM553 300h-80v182v122l-86 -86l-130 -130l-56 56l128 130l86 86h-120h-184v80h184h120l-86 86l-128 130l56 56l130 -130l86 -86v122v182h80v-182v-122l84 86l130 130l56 -56l-128 -130l-86 -86h120h184v-80h-184h-120l86 -86l128 -130l-56 -56l-130 130l-84 86v-122v-182z
" />
    <glyph glyph-name="s3" unicode="&#xbe;" 
d="M1687 556h-80v182v122l-86 -86l-130 -130l-56 56l128 130l86 86h-120h-184v80h184h120l-86 86l-128 130l56 56l130 -130l86 -86v122v182h80v-182v-122l84 86l130 130l56 -56l-128 -130l-86 -86h120h184v-80h-184h-120l86 -86l128 -130l-56 -56l-130 130l-84 86v-122v-182
zM1249 602l58 -56l-102 -102l-86 -86h122h184v-80h-184h-120l84 -84l130 -130l-56 -56l-130 128l-86 86v-120v-184h-80v184v120l-86 -86l-128 -128l-58 56l130 130l86 84h-122h-182v80h182h122l-86 86l-102 104l56 56l102 -102l86 -86v120v184h80v-184v-120zM443 556h-80
v182v122l-86 -86l-130 -130l-56 56l128 130l86 86h-120h-184v80h184h120l-86 86l-128 130l56 56l130 -130l86 -86v122v182h80v-182v-122l84 86l130 130l56 -56l-128 -130l-86 -86h120h184v-80h-184h-120l86 -86l128 -130l-56 -56l-130 130l-84 86v-122v-182z" />
    <glyph glyph-name="ktop" unicode="&#xc0;" 
d="M1024 634l-454 -452q-54 -54 -126 -54q-78 0 -132 54q-52 52 -52 126q0 76 52 128l584 584q50 54 124 54h6q76 0 126 -54l582 -584q54 -54 54 -128q0 -72 -54 -126t-130 -54q-74 0 -128 54z" />
    <glyph glyph-name="kdown" unicode="&#xc1;" 
d="M1023 568l454 452q54 54 130 54q74 0 128 -54t54 -128q0 -76 -54 -130l-584 -580q-54 -54 -126 -54h-4q-72 0 -126 54l-584 580q-52 52 -52 132q0 74 52 126q54 54 130 54q74 0 128 -54z" />
    <glyph glyph-name="kleft" unicode="&#xc2;" 
d="M990 512l454 -456q54 -54 54 -128q0 -76 -54 -130q-52 -52 -130 -52q-74 0 -126 52l-584 584q-54 50 -54 128v4q0 74 54 124l584 584q54 54 126 54q76 0 130 -54t54 -128q0 -76 -54 -130z" />
    <glyph glyph-name="kright" unicode="&#xc3;" 
d="M1058 510l-454 456q-54 54 -54 128q0 76 54 130q52 52 130 52q74 0 126 -52l584 -584q54 -50 54 -128v-4q0 -74 -54 -124l-584 -584q-54 -54 -126 -54q-76 0 -130 54t-54 128q0 76 54 130z" />
    <glyph glyph-name="save" unicode="&#xfe;" 
d="M1557 86v-164h122v164h-122zM1573 65h92v-66h-92v66zM532 652v-652h1004v652h-1004zM600 464h868v-52h-868v52zM600 304h868v-52h-868v52zM600 148h868v-52h-868v52zM1700 1207v-1307h-1352v1383h1258zM1436 1243h-670v-445h670v445zM1362 1177v-339h-152v339h46v16h68
v-16h38z" />
    <glyph glyph-name="divide" unicode="&#xfd;" 
d="M318 899v376q0 54 38 96q36 40 90 40h1148q56 0 96 -40t40 -96v-376q0 -54 -40 -92t-96 -38h-1148q-54 0 -91 38t-37 92zM318 129v380q0 52 38 94q36 40 90 40h1148q54 0 96 -40q40 -38 40 -94v-380q0 -56 -40 -92t-96 -36h-1148q-54 0 -91 38t-37 90zM1602 899v384
h-1156v-384h1156zM1602 129v386h-1156v-386h1156z" />
    <glyph glyph-name="flap" unicode="&#xfc;" 
d="M831 0h-376q-58 0 -98 38t-40 90v1146q0 56 40 96t98 40h376q52 0 90 -40t38 -96v-1146q0 -52 -38 -90t-90 -38zM1601 0h-380q-54 0 -94 38t-40 90v1146q0 54 40 96q38 40 94 40h382q52 0 90 -40t38 -96v-1146q0 -52 -39 -90t-91 -38zM831 1282h-386v-1154h386v1154z
M1603 1282h-388v-1154h388v1154z" />
    <glyph glyph-name="admin" unicode="&#xf9;" 
d="M248 374h1552v912h-1552v-912zM1916 266h-774v-164q0 -84 16 -98q14 -12 156 -12q36 0 56 -10q24 -12 36 -28q16 -20 18 -32q4 -18 4 -28l2 -12h-822v12q4 0 8 28q2 16 16 32t36 26q26 12 56 12q138 0 154 14t16 96v164h-762v1128h1784v-1128z" />
    <glyph glyph-name="shared" unicode="&#xf8;" 
d="M137 624q0 328 278 596q258 242 599 242t593 -220q196 -166 276 -446q28 -106 28 -138v-36q0 -452 -304 -714q-148 -128 -336 -184q-122 -36 -248 -36q-236 0 -444 120h-2l-30 20q-104 70 -132 104q-6 4 -54 52v2l-42 50l-2 4q-8 8 -24 32l-12 18q-8 8 -11 15t-25 42
t-24 47t-18 46t-24 62v2l-26 96v6q-6 24 -8 40l-8 120v58zM1075 152v-360l46 6l20 4q94 112 166 294l22 56h-254zM717 152l22 -56q58 -148 164 -294l18 -4l50 -6v360h-254zM1455 152l-10 -28q-22 -70 -54 -138l-76 -148l158 96q92 64 162 152l54 66h-234zM357 152l54 -66
q70 -88 162 -152l160 -94l-78 146q-32 68 -54 138l-10 28h-234zM1517 524l-2 -38q-6 -90 -24 -182l-8 -48h256l10 26q40 96 52 196l6 46h-290zM1075 524v-268h284l8 32q20 96 28 192l2 44h-322zM647 524l4 -44q8 -98 28 -192l8 -32h284v268h-324zM239 524l6 -46
q12 -102 52 -196l10 -26h256l-10 48q-16 92 -22 182l-2 38h-290zM1483 896l8 -50q18 -90 24 -180l2 -38h290l-6 46q-12 100 -52 196l-10 26h-256zM1075 896v-268h322l-2 44q-8 96 -28 192l-8 32h-284zM687 896l-8 -32q-20 -96 -28 -192l-4 -44h324v268h-284zM307 896
l-10 -26q-40 -96 -52 -196l-6 -46h290l2 38q6 90 22 180l10 50h-256zM1301 1324q62 -98 90 -158t54 -140l10 -28h234l-54 68q-98 120 -284 238zM1075 1358v-360h254l-22 56q-60 152 -164 296q-22 2 -22 4zM971 1358l-46 -4q-2 -2 -22 -4q-92 -112 -164 -296l-22 -56h254v360
zM715 1304l-142 -88q-92 -64 -162 -150l-54 -68h234l10 28q12 38 74 160l74 132z" />
    <glyph glyph-name="right" unicode="&#xed;" 
d="M970 -60v480h-768v548h768v488l876 -758z" />
    <glyph glyph-name="left" unicode="&#xec;" 
d="M1078 1456v-480h768v-548h-768v-488l-876 758z" />
    <glyph glyph-name="flag" unicode="&#xeb;" 
d="M1641 446q4 -46 14 -84l22 -56l-10 -10q-14 -16 -30 -24q-48 -24 -82 -34q-66 -20 -128 -20h-8h-22q-98 0 -224 74t-246 74t-188 -20q-62 -18 -94 -36l-32 -18v778l30 18q14 8 80 28t146 20h20q130 0 264 -66q138 -68 256 -68h12q62 0 130 18t90 32l28 18q24 -42 24 -158
q0 -108 -24 -232zM487 1114v-1244h-132v1244q0 32 26 62q28 24 42 24t38 -24q26 -26 26 -62z" />
    <glyph glyph-name="folder2" unicode="&#xea;" 
d="M321 -130q-56 0 -94 36q-36 38 -36 94v1156q0 54 36 92q40 40 94 40h506q54 0 92 -39t38 -93v-130h768q54 0 93 -39t39 -93v-894q0 -56 -40 -94q-38 -36 -92 -36h-1404z" />
    <glyph glyph-name="export" unicode="&#xe9;" 
d="M1397 254v-159q0 -101 -77 -167q-63 -53 -143 -53h-833q-101 0 -167 77q-53 63 -53 143v1089q0 101 77 167q63 53 143 53h539q100 0 171 -73l278 -287q65 -67 65 -164v-111l-120 -1v112q0 48 -32 81l-277 286q-36 37 -85 37h-539q-54 0 -83 -43q-17 -26 -17 -57v-1089
q0 -54 43 -83q26 -17 57 -17h833q59 0 83 38q17 26 17 62v159h120zM892 642h643v266l448 -396l-448 -390v264h-643v256z" />
    <glyph glyph-name="mini" unicode="&#xe8;" 
d="M1143 1284h-539q-54 0 -83 -43q-17 -26 -17 -57v-1089q0 -54 43 -83q26 -17 57 -17h833q59 0 83 38q17 26 17 62v785q0 48 -32 81l-277 286q-36 37 -85 37zM1592 1044q65 -68 65 -164v-785q0 -101 -77 -167q-63 -53 -143 -53h-833q-101 0 -167 77q-53 63 -53 143v1089
q0 101 77 167q63 53 143 53h539q101 0 171 -73zM638 138v322l214 264l260 -336l176 200l116 -128v-322h-766z" />
    <glyph glyph-name="editxt" unicode="&#xe7;" 
d="M1603 1032q54 -64 54 -152v-785q0 -101 -77 -167q-63 -53 -143 -53h-833q-101 0 -167 77q-53 63 -53 143v1089q0 101 77 167q63 53 143 53h539q103 0 178 -77l31 -32l-67 -107l-57 59q-36 37 -85 37h-539q-54 0 -83 -43q-17 -26 -17 -57v-1089q0 -54 43 -83
q26 -17 57 -17h833q59 0 83 38q17 26 17 62v785v43zM1209 506l-202 126l502 808l204 -126zM993 610l202 -126l-234 -152zM635 129v126h768v-126h-768z" />
    <glyph glyph-name="fix" unicode="&#xe0;" 
d="M1126 1264l492 -492l-346 -142l-156 -360l-184 184l-458 -390l-44 46l390 456l-196 196l352 150z" />
    <glyph glyph-name="philum2" unicode="&#xb3;" horiz-adv-x="6144" 
d="M513 516h255v252h-255v-252zM513 0h-261v1026h770v-771h-509v-255zM2049 0h-261v255h-256v-255h-256v1026h256v-510h256v510h261v-1026zM2560 0h-258v1026h258v-1026zM3327 0h-511v1026h256v-771h255v-255zM4352 0h-768v1026h256v-771h252v771h260v-1026zM5892 0h-259
v768h-257v-768h-256v768h-255v-768h-257v1026h1284v-1026z" />
    <glyph glyph-name="philum" unicode="&#xb2;" horiz-adv-x="6133" 
d="M513 516v252h255v-252h-255zM513 0v255h509v771h-770v-1026h261zM2049 0v1026h-261v-510h-256v510h-256v-1026h256v255h256v-255h261zM2560 0v1026h-258v-1026h258zM3327 0v255h-255v771h-256v-1026h511zM4352 0v1026h-260v-771h-252v771h-256v-1026h768zM5892 0v1026
h-1284v-1026h257v768h255v-768h256v768h257v-768h259zM-8 -252v1530h6148v-1530h-6148z" />
    <glyph glyph-name="desktop" unicode="&#xfa;" 
d="M392 1002h134v-122h-134v122zM392 1202h134v-122h-134v122zM1230 780h132v-126h-132v126zM1008 560h134v-122h-134v122zM1010 780h132v-126h-132v126zM694 864v-492h820v492h-820zM654 984h904v-660h-904v660zM788 560h134v-122h-134v122zM790 780h132v-126h-132v126z
M1856 132q0 -56 -38 -92t-94 -36h-1404q-54 0 -91 38t-37 90v1148q0 54 38 96q30 34 90 34h1404q52 0 92 -37t40 -93v-1148zM1732 1284h-1412v-1152h1412v1152z" />
    <glyph glyph-name="window" unicode="&#xfb;" 
d="M1858 132q0 -56 -40 -92t-96 -36h-1404q-54 0 -91 38t-37 90v1148q0 54 38 96q36 40 90 40h1404q56 0 96 -40t40 -96v-1148zM1730 1150v138h-124v-138h124zM1730 132v894h-1412v-894h1412z" />
    <glyph glyph-name="big" unicode="&#xc8;" horiz-adv-x="2000" 
d="M1425 1180q31 0 53 -22t22 -53v-1150q0 -31 -22 -53t-53 -22t-53 22t-22 53v525h-700v-525q0 -31 -22 -53t-53 -22t-53 22t-22 53v1150q0 31 22 53t53 22t53 -22t22 -53v-475h700v475q0 31 22 53t53 22z" />
    <glyph glyph-name="bold" unicode="&#xc9;" horiz-adv-x="2000" 
d="M1414 628q112 -49 174 -139.5t62 -209.5q0 -166 -117 -283t-283 -117h-675q-31 0 -53 22t-22 53v1250q0 31 22 53t53 22h600q155 0 265 -110t110 -265q0 -173 -136 -276zM1025 1129h-226v-450h226q93 0 159 66t66 159t-66 159t-159 66zM1100 29q104 0 177 73t73 177
t-73 177t-177 73h-25h-275v-500h300z" />
    <glyph glyph-name="italic" unicode="&#xca;" horiz-adv-x="2000" 
d="M1425 1280q31 0 53 -22t22 -53t-22 -53t-53 -22h-187l-275 -1100h162q31 0 53 -22t22 -53t-22 -53t-53 -22h-550q-31 0 -53 22t-22 53t22 53t53 22h188l275 1100h-163q-31 0 -53 22t-22 53t22 53t53 22h550z" />
    <glyph glyph-name="underline" unicode="&#xcb;" horiz-adv-x="2000" 
d="M1000 176q-136 0 -251 67t-182 182t-67 251v525q0 31 22 53t53 22t53 -22t22 -53v-525q0 -145 102.5 -247.5t247.5 -102.5t247.5 102.5t102.5 247.5v525q0 31 22 53t53 22t53 -22t22 -53v-525q0 -136 -67 -251t-182 -182t-251 -67zM1525 26q31 0 53 -22t22 -53t-22 -53
t-53 -22h-1050q-31 0 -53 22t-22 53t22 53t53 22h1050z" />
    <glyph glyph-name="connslct" unicode="&#xcc;" 
d="M191 -126v1272h510v-246h-254v-778h254v-248h-510zM1339 -126v248h262v778h-262v246h518v-1272h-518zM685 636h340v258l438 -386l-438 -378v254h-340v252z" />
    <glyph glyph-name="clover" unicode="&#xd3;" 
d="M1450 0h-848l8 34q166 35 220 69q81 51 132.5 151t51.5 211q0 16 -2 46q-61 -124 -148.5 -181t-177.5 -57q-116 0 -197 81t-81 199q0 116 74 195.5t168 79.5q60 0 162 -51q-42 70 -54 105.5t-12 76.5q0 114 79 193t197 79t198 -79t80 -188q0 -89 -68 -187q84 40 100 45
q28 8 62 8q100 0 173 -78.5t73 -194.5q0 -120 -80 -201.5t-194 -81.5q-63 0 -129.5 30.5t-114.5 81.5q-36 37 -88 125q4 -159 49 -251.5t137 -153.5q62 -41 222 -72z" />
    <glyph glyph-name="peak" unicode="&#xd4;" 
d="M1025 1231q26 -108 80 -193t192.5 -210.5t175.5 -192.5t37 -136q0 -96 -64 -160t-156 -64q-78 0 -141.5 48.5t-112.5 141.5q1 -147 38.5 -233.5t120 -136t219.5 -58.5l7 -37h-793l8 37q186 0 286 107q97 104 97 305v16q-45 -95 -111.5 -142.5t-150.5 -47.5
q-90 0 -154.5 65t-64.5 156q0 73 33 132q45 82 146 165t149 137q73 83 106.5 148t52.5 153z" />
    <glyph glyph-name="heart" unicode="&#xd5;" 
d="M1026 -24q-31 118 -88.5 221.5t-222.5 321.5q-121 160 -149 203q-46 70 -66.5 128.5t-20.5 118.5q0 111 74 186t183 75q110 0 191 -78q61 -58 99 -173q33 113 93 172q83 80 192 80q108 0 183 -74.5t75 -177.5q0 -90 -44 -187.5t-170 -255.5q-164 -207 -239 -340
q-59 -105 -90 -220z" />
    <glyph glyph-name="diam" unicode="&#xd6;" 
d="M1022 1231q89 -151 219 -324q150 -200 242 -303q-74 -78 -242 -302q-136 -182 -218 -326q-27 52 -74 121q-81 120 -201 279q-26 35 -183 228q101 115 260 328q118 158 197 299z" />
    <glyph glyph-name="smile" unicode="&#xd9;" 
d="M1023 1415q324 0 546 -225q225 -228 225 -546v-3q0.00440529 -1.40088 0.00440529 -2.79996q0 -316.191 -225.004 -540.2q-226 -225 -546 -225t-544 225q-225 226 -225 546v3q-0.00440529 1.39207 -0.00440529 2.78241q0 314.218 225.004 540.218q224 225 544 225z
M1023 7q264 0 450.5 186.5t186.5 450.5t-186 449q-187 186 -451 186q-262 0 -449 -186q-186 -187 -186 -449q0 -264 186.5 -450.5t448.5 -186.5zM1409 644h97q0 -203 -140 -341q-143 -141 -340 -141h-3q-197 0 -339 141t-142 341h97q0 -164 112 -274q114 -112 271 -112h3
q159 0 272 113q112 112 112 273zM735 836q0 96 96 96t96 -96t-96 -96t-96 96zM1121 836q0 96 96 96t96 -96t-96 -96t-96 96z" />
    <glyph glyph-name="sad" unicode="&#xda;" 
d="M1023 1415q324 0 546 -225q224 -227 225 -546q0.00440529 -1.4141 0.00440529 -2.82633q0 -319.165 -225.004 -543.174q-226 -225 -546 -225t-544 225t-225 546q-0.00440529 1.40529 -0.00440529 2.80879q0 317.191 225.004 543.191q225 225 544 225zM1023 7
q264 0 450.5 186.5t186.5 450.5t-186 449q-187 186 -451 186q-262 0 -449 -186q-186 -187 -186 -449q0 -264 186.5 -450.5t448.5 -186.5zM1346 246q0 65 -96 112q-93 46 -233 46q-136 0 -234 -46q-96 -45 -96 -111v-1l-83 48q6 67 122 123q119 57 281 57h10
q22.8675 2.03614 45.7595 2.03614q123.265 0 247.241 -59.0361q120 -57 120 -123zM735 836q0 96 96 96t96 -96t-96 -96t-96 96zM1121 836q0 96 96 96t96 -96t-96 -96t-96 96z" />
    <glyph glyph-name="globe" unicode="&#xf7;" 
d="M1024 1483q338 0 592 -222q243 -212 296 -532q12 -72 12 -146q0 -338 -222 -592q-212 -243 -532 -296q-72 -12 -146 -12q-338 0 -592 222q-243 212 -296 532q-12 72 -12 146q0 339 222 592q214 244 531 296q73 12 147 12zM1625 97q147 182 169 413h-192
q-15 -172 -91 -325q61 -40 114 -88zM254 510q22 -232 169 -413q53 48 111 86q-76 156 -91 327h-189zM423 1069q-154 -191 -171 -432h189q12 182 93 346q-60 39 -111 86zM960 1256q-150 -86 -250 -225q120 -53 250 -64v289zM960 840q-166 12 -315 81q-66 -136 -77 -284h392
v203zM960 510h-391q15 -141 75 -265q151 69 316 81v184zM960 199q-133 -11 -252 -65q102 -140 252 -225v290zM1088 -88q148 85 248 225q-120 51 -248 62v-287zM1088 326q165 -12 313 -80q61 127 74 264h-387v-184zM1088 637h388q-10 149 -75 283q-150 -68 -313 -80v-203z
M1088 967q130 11 248 62q-102 141 -248 225v-287zM1400 1154q25 -31 48 -63q48 32 90 69q-152 135 -346 178q124 -80 208 -184zM645 1154q92 109 205 183q-192 -45 -340 -177q42 -37 88 -68q26 37 47 62zM598 74q-47 -32 -88 -68q149 -132 341 -177q-144 92 -215 191
q-21 30 -38 54zM1401 13q-90 -109 -209 -185q197 45 346 178q-44 38 -90 69q-23 -33 -47 -62zM1604 637h192q-18 242 -171 432q-54 -49 -114 -88q81 -164 93 -344z" />
    <glyph glyph-name="uni00AD" unicode="&#xad;" 
d="M1539 1233l58 -58l-515 -515l515 -515l-58 -58l-515 515l-515 -515l-58 58l515 515l-515 515l58 58l515 -515z" />
    <glyph glyph-name="sclose" unicode="&#xd7;" 
d="M1523 180l-168 -168l-324 322l-334 -334l-176 176l334 334l-330 332l168 168l332 -330l326 326l176 -176l-326 -326z" />
    <glyph glyph-name="pane" unicode="&#xce;" 
d="M524 247h1035v-107h-1035v107zM642 504h761v-108h-761v108zM524 758h1020v-107h-1020v107zM248 898l-2 -903l1548 -2l2 903zM1024 1518q53 0 93 -40t40 -94q0 -20 -8 -42l368 -263h-98l-309 205q-38 -32 -86 -32t-86 32l-309 -205h-98l368 263q-8 27 -8 42v8v7v6
q0 33 40 74q38 39 93 39zM1908 -50q0 -28 -19 -49t-48 -21h-1635q-29 0 -48 21t-19 49v1005q0 28 19 47q20 20 48 20h1635q28 0 48 -20q19 -19 19 -47v-1005z" />
    <glyph glyph-name="wait" unicode="&#xcf;" 
d="M574 1396h900v-344l-220 -364l220 -364v-324h-900v324l220 364l-220 364v344zM700 1290l-2 -242l216 -360l-208 -368v-214h636v214l-208 368l214 360v242h-648zM782 174v144l208 370l-132 218h334l-136 -218l212 -370v-144h-486z" />
    <glyph glyph-name="tree" unicode="&#xd1;" 
d="M1394 442q-106 0 -106 120q0 38 -22 84l-110 -156v-532l124 -192l-124 -16l-80 -16l-92 16l-108 4l108 120v312l-144 180l-24 -36q-100 -100 -196 -100q-116 0 -196 100t-80 244q0 132 68 228h-4q-72 0 -122 68t-50 160q0 90 50 160q42 58 102 66q4 108 152 210
q107 74 368 74t368 -74q139 -96 150 -180q24 8 50 8q104 0 220 -130t116 -306t-116 -294q-120 -122 -262 -122h-40zM654 934q-42 16 -80 38q-6 -34 -20 -62q30 8 66 8h22q4 8 12 16zM1182 942q34 -38 34 -116q0 -88 -60 -142v-90l92 92q-24 84 -24 184q0 50 6 96
q-24 -14 -48 -24zM896 602v-28q0 -96 -36 -172l124 -116v320q-30 -4 -64 -4h-24z" />
    <glyph glyph-name="level" unicode="&#xf6;" 
d="M893 768v384h-378v-384h378zM515 638q-56 0 -94 36q-38 38 -38 94v384q0 54 38 92t94 38h378q54 0 92 -38t38 -92v-384q0 -56 -38 -94q-38 -36 -92 -36h-124v-238h256v112q0 54 38 92t94 38h378q54 0 92 -38t38 -92v-384q0 -56 -38 -94q-38 -36 -92 -36h-378
q-56 0 -94 36q-38 38 -38 94v172h-256h-128v100v238h-126zM1535 128v384h-378v-384h378z" />
    <glyph glyph-name="hierarchy" unicode="&#xf5;" 
d="M832 764q-56 0 -94 36q-38 38 -38 94v384q0 54 38 92t94 38h378q54 0 92 -38t38 -92v-384q0 -56 -38 -94q-38 -36 -92 -36h-130v-402h138v152q0 54 38 92t94 38h378q54 0 92 -38t38 -92v-384q0 -56 -38 -94q-38 -36 -92 -36h-378q-56 0 -94 36q-38 38 -38 94v120h-388
v-120q0 -56 -38 -94q-38 -36 -92 -36h-378q-56 0 -94 36q-38 38 -38 94v384q0 54 38 92t94 38h378q54 0 92 -38t38 -92v-152h146v402h-144zM1210 894v384h-378v-384h378zM700 130v384h-378v-384h378zM1728 130v384h-378v-384h378z" />
    <glyph glyph-name="oumoaelewe" unicode="&#xf4;" 
d="M1779 27q-218 0 -366 163q-125 138 -146 320h-158v-452q0 -13 -9 -18q-10 -6 -21 -6h-110q-13 0 -21 7q-9 8 -9 17v452h-158q-20 -186 -144 -320q-151 -163 -368 -163q-11 0 -21 8q-9 7 -9 16v106q0 11 9 17q10 7 21 7q3.73729 -0.0762712 7.44743 -0.0762712
q142.222 0 244.553 112.076q84 92 101 217h-205q-12 0 -21 8t-9 16v87q0 11 9 17q10 7 21 7h205q-17 124 -101 214q-105 112 -252 112q-11 0 -21 8q-9 7 -9 16v106q0 11 9 17q10 7 21 7q223 -4 368 -163q124 -136 144 -317h158v453q0 11 9 17q10 7 21 7h110q12 0 21 -8
t9 -16v-453h158q21 181 146 317q150 163 366 163q11 0 21 -8q9 -7 9 -16v-106q0 -11 -9 -17q-10 -7 -21 -7q-3.68644 0.0762712 -7.34703 0.0762712q-140.322 0 -242.653 -112.076q-84 -92 -103 -214h205q11 0 21 -8q9 -7 9 -16v-87q0 -11 -9 -17q-10 -7 -21 -7h-205
q19 -127 103 -217q53 -57 115 -85q60 -27 135 -27q11 0 21 -8q9 -7 9 -16v-106q0 -10 -9.5 -17t-20.5 -7z" />
    <glyph glyph-name="bb" unicode="&#xf3;" 
d="M620 1039q221 0 364 -185l360 197q12 6 22 3q12 -4 17 -13l48 -76q5 -7 5 -16v-249q0 -81 50 -131t113 -50h13q48 0 99 53q52 53 52 118v259q0 13 10 22q9 8 21 8l94 -3q12 0 21 -10q8 -9 8 -20l-3 -256q-2 -130 -91 -219q-91 -92 -224 -92h-16q-114 0 -206 90
q-94 91 -94 226v150l-226 -122q27 -77 27 -161v-17q0 -185 -139 -321q-139 -137 -338 -137h-17q-185 0 -321 140q-138 141 -138 330v5q0 194 140 336q138 141 336 141h13zM575 891q-100 0 -199 -96q-99 -95 -99 -220v-12q7 -147 97 -233q98 -95 230 -95h3q137 0 232 95
t95 232q0 45 -9 83l-292 -168q-11 -6 -23 -3q-11 3 -17 13l-48 75q-7 12 -4 23q4 13 14 19l299 174q-10 13 -14 16v1q-105 96 -233 96h-32z" />
    <glyph glyph-name="cube" unicode="&#xff;" 
d="M1088 -93l640 349v636l-640 -233v-752zM1024 772l698 254l-698 254l-698 -254zM1856 1024v-768q0 -35 -18 -65t-49 -47l-704 -384q-28 -16 -61 -16t-61 16l-704 384q-31 17 -49 47t-18 65v768q0 40 23 73t61 47l704 256q22 8 44 8t44 -8l704 -256q38 -14 61 -47t23 -73z
" />
    <glyph glyph-name="code" unicode="&#xdf;" horiz-adv-x="2000" 
d="M876 50q-32 0 -54 22.5t-22 52.5q0 9 3 20l250 1049q6 25 26 40.5t45 15.5q33 0 54.5 -23t21.5 -54q0 -6 -2 -18l-250 -1049q-6 -25 -26.5 -40.5t-45.5 -15.5zM475 300q-28 0 -53 22l-298 273q-24 22 -24 55t24 55l297 272q27 23 54 23q31 0 53 -22t22 -53q0 -34 -23 -54
l-252 -221l253 -222q22 -19 22 -53q0 -31 -22 -53t-53 -22zM1525 300q-31 0 -53 22t-22 53q0 34 22 53l253 222l-252 221q-23 20 -23 54q0 31 22 53t53 22q27 0 54 -23l297 -272q24 -22 24 -55t-24 -55l-298 -273q-25 -22 -53 -22z" />
    <glyph glyph-name="clock" unicode="&#xd0;" 
d="M991 324q164 0 284 118t120 286q0 170 -118 286q-120 118 -288 118q-164 0 -284 -118t-120 -286t119 -286t287 -118zM1489 844h80v-232h-80q-24 -110 -96 -200t-170 -140v-272h-464v272q-134 68 -206 186q-74 122 -74 270v8q0 140 76 262t204 186v274h464v-274
q98 -50 170 -139t96 -201zM961 1062h52v-270l138 138l36 -36l-174 -176v-30h-32l-6 -6l-6 6h-8v8l-22 22l22 22v322z" />
    <glyph glyph-name="smenu" unicode="&#xa1;" 
d="M318 1286h1412v-128h-1412v128zM318 900h1412v-128h-1412v128zM318 516h1412v-128h-1412v128zM318 130h1412v-128h-1412v128z" />
    <glyph glyph-name="article" unicode="&#xef;" 
d="M435 38q0 -14 23 -37t37 -23h1120v1294h-1182zM333 38v1276q0 34 12 47t48 13h1264q34 0 46 -12t12 -48v-1378q0 -34 -12 -47t-46 -13h-1162q-58 0 -110 54t-52 108zM965 1116v-379h-398v379h398zM1479 1117v-124h-382v124h382zM1479 855v-122h-382v122h382zM1479 607
v-124h-916v124h916zM1477 349v-128h-908v128h908z" />
    <glyph glyph-name="acquire" unicode="&#xee;" 
d="M1380 876v-122h-382v122h382zM1380 1138v-124h-382v124h382zM866 1136v-378h-378v378h378zM1234 426l154 2v-308h158l-234 -232l-236 232h158v306zM920 180q0 -160 114 -274t274 -114t274 114t114 274t-114 274t-274 114t-274 -114t-114 -274zM234 1030v284q0 34 12 47
t48 13h1264q34 0 46 -12t12 -48v-738q26 -20 50 -44q148 -148 148 -356t-148 -356t-356 -148t-356 148q-28 28 -50 56h-350h-158q-58 0 -110 54t-52 108v992zM336 38q0 -14 23 -37t37 -23h158h292q-40 92 -40 198q0 34 4 66h-320v128h354q30 72 84 134h-444v124h600
q102 52 226 52q112 0 206 -42v634h-1182v-166v-102z" />
    <glyph glyph-name="rss2" unicode="&#x100;" 
d="M427 140q0 -52 40 -92t92 -40t92 40t40 92t-40 92t-92 40t-92 -40t-40 -92zM1733 -242h-1418q-52 0 -91 37t-39 91v1406q0 50 39 89t91 39h1418q56 0 93 -38t37 -90v-1406q0 -52 -36 -90t-94 -38zM1141 30q0 142 -42 262q-38 118 -124 220q-84 100 -216 154
q-138 56 -308 56v-206q116 0 222 -44q92 -38 156 -116q60 -72 88 -154q30 -88 30 -172h194zM1557 30q0 246 -70 447t-206 351q-134 148 -346 230t-484 82v-208q232 0 409 -69t287 -193q112 -126 164 -284q54 -162 54 -356h192z" />
    <glyph glyph-name="camera" unicode="&#x101;" 
d="M1920 1184v-1088q0 -42 -39 -59q-13 -5 -25 -5q-27 0 -45 19l-403 403v-166q0 -119 -84.5 -203.5t-203.5 -84.5h-704q-119 0 -203.5 84.5t-84.5 203.5v704q0 119 84.5 203.5t203.5 84.5h704q119 0 203.5 -84.5t84.5 -203.5v-165l403 402q18 19 45 19q12 0 25 -5
q39 -17 39 -59z" />
    <glyph glyph-name="tw" unicode="&#xa4;" 
d="M1812 1128q-67 -98 -162 -167q1 -14 1 -42q0 -130 -38 -259.5t-115.5 -248.5t-184.5 -210.5t-258 -146t-323 -54.5q-271 0 -496 145q35 -4 78 -4q225 0 401 138q-105 2 -188 64.5t-114 159.5q33 -5 61 -5q43 0 85 11q-112 23 -185.5 111.5t-73.5 205.5v4q68 -38 146 -41
q-66 44 -105 115t-39 154q0 88 44 163q121 -149 294.5 -238.5t371.5 -99.5q-8 38 -8 74q0 134 94.5 228.5t228.5 94.5q140 0 236 -102q109 21 205 78q-37 -115 -142 -178q93 10 186 50z" />
    <glyph glyph-name="phi1" unicode="&#xb0;" 
d="M1152 514h256v254h-256v-254zM1152 2h-254v256h-512v768h256v-512h256v512h766v-768h-512v-256z" />
    <glyph glyph-name="clipboard" unicode="&#xc4;" 
d="M898 1026v120h514v-120h-514zM898 770v124h514v-124h-514zM898 514v124h514v-124h-514zM1264 -116h-998v1134h390v376h996v-1126h-388v-384zM756 370h796v922h-796v-922zM656 916h-290v-930h798v282h-508v648z" />
    <glyph glyph-name="chain" unicode="&#xa5;" 
d="M744 408l458 458l96 -96l-458 -458zM294 314l458 458l94 -94l-272 -270l270 -270l272 272l90 -92l-458 -458zM840 860l458 458l456 -456l-456 -454l-96 96l266 266l-266 266l-270 -268z" />
    <glyph glyph-name="industry" unicode="&#xa6;" 
d="M1409 640v-384h124v384h-124zM1027 640v-384h124v384h-124zM645 640v-384h124v384h-124zM253 1410h396v-640h124v376l512 -376l2 372l508 -372v-898h-1542v896v642z" />
    <glyph glyph-name="conndot" unicode="&#xcd;" 
d="M902 302q0 48 36 84t86 36q48 0 84 -36q34 -34 34 -84q0 -48 -34 -84t-84 -36t-86 35t-36 85zM902 752q0 52 36 86t86 34q52 0 84 -34q34 -36 34 -86q0 -52 -34 -86t-84 -34t-86 35t-36 85zM191 -102v1272h510v-246h-254v-778h254v-248h-510zM1339 -102v248h262v778h-262
v246h518v-1272h-518z" />
    <glyph glyph-name="tree2" unicode="&#xd2;" 
d="M789 -160l80 136l24 232v230q0 2 38 -20q-20 12 -66 74q-80 108 -80 124v2v2q20 34 44 34q34 0 74 -86q62 -130 38 -12q-20 98 -80 124q-14 6 -28 6q-42 0 -60 -52q-4 -14 -90 -42q-36 -12 -68 -12q-70 0 -102 36q-58 68 -62 156q-2 52 -2 138q0 122 30 152
q54 54 148 112q62 38 120 56q62 0 104 6q98 14 98 16q76 118 110 132q74 28 126 28t78 -30l90 -50q120 -148 120 -232q0 -10 -4 -20q-8 -22 -34 -74l10 -66q154 0 154 -112q0 -34 -26 -72l-28 -76l-48 -16l-14 -62q-22 -20 -56 -20q-72 0 -158 32q-48 18 -48 -32t-46 -8
l-58 -20l-46 -16q-30 -42 -32 -96q-2 -76 -2 -248v-176q44 -90 44 -100q0 -22 -2 -24q-50 -54 -88 -54q-24 0 -60 -4q-56 -6 -56 24q0 10 8 22q-16 6 -20 0q-28 -42 -74 -42z" />
    <glyph glyph-name="link" unicode="&#xde;" 
d="M928 354l-192 193q-95 95 -95 222v5v5v5v5q0 101 84 183l359 358q84 84 202 84q129 0 222 -95l112 -112q100 -100 100 -232q0 -119 -81 -200l-146 -146q-30 103 -106 183l107 108q21 21 21 48q0 53 -39 94l-112 112q-35 36 -73 36t-63 -25l-358 -358q-25 -25 -25 -62
t35 -73l2 -1l191 -191zM967 -42q-83 -81 -200 -81q-132 0 -233 99l-112 112q-64 66 -79 124.5t-15 106.5q0 111 84 195l143 142q30 -103 109 -181l-108 -107q-25 -25 -25 -61q0 -1 1 -1q0 -38 35 -74l112 -112q39 -39 80.5 -39t62.5 22l358 358q21 21 21 52q1 21 -11 49
q-10 24 -28 42l-186 185l145 144h2l184 -185q100 -100 100 -227v-5q0 -121 -83 -200z" />
    <glyph glyph-name="matrix" unicode="&#xb7;" 
d="M1473 1150v256h256v-256h-256zM1087 1150v256h256v-256h-256zM705 1150v256h256v-256h-256zM319 1150v256h256v-256h-256zM1473 770v256h256v-256h-256zM1473 382v256h256v-256h-256zM1473 0v256h256v-256h-256zM1087 770v256h256v-256h-256zM1087 382v256h256v-256h-256
zM1087 0v256h256v-256h-256zM705 770v256h256v-256h-256zM705 382v256h256v-256h-256zM705 0v256h256v-256h-256zM319 770v256h256v-256h-256zM319 382v256h256v-256h-256zM319 0v256h256v-256h-256z" />
    <glyph glyph-name="grid" unicode="&#xb8;" 
d="M1341 1024v384h390v-384h-390zM1341 512v384h390v-384h-390zM1341 0v384h390v-384h-390zM827 1024v384h390v-384h-390zM827 512v384h390v-384h-390zM827 0v384h390v-384h-390zM317 1024v384h390v-384h-390zM317 512v384h390v-384h-390zM317 0v384h390v-384h-390z" />
    <glyph glyph-name="icon" unicode="&#xb9;" 
d="M1081 769v639h650v-639h-650zM1081 641h650v-641h-650v641zM317 769v639h644v-639h-644zM317 641h644v-641h-644v641z" />
    <glyph glyph-name="lines" unicode="&#xba;" 
d="M317 769v639h1414v-639h-1414zM317 0v641h1414v-641h-1414z" />
    <glyph glyph-name="cols" unicode="&#xbb;" 
d="M1731 0h-640v1408h640v-1408zM951 0h-634v1408h634v-1408z" />
    <glyph glyph-name="ok" unicode="&#xbf;" 
d="M1578 87h195l-313 427l298 299h-196l-281 -299v299h-149v-726h149v243l73 74zM644 705q91 0 143 -66q53 -67 53 -185v-4q0 -123 -53 -189t-143 -66q-91 0 -144 66q-54 67 -54 189q0 123 54 189t144 66zM881 151q110 104 110 299q0 199 -110 299q-82 85 -237 85
q-156 0 -238 -85q-110 -100 -110 -299q0 -194 110 -299q91 -87 238 -87q145 0 237 87zM1649 1296q129 0 221 -92t92 -221v-1020q0 -129 -92 -221t-221 -92h-1250q-129 0 -221 92t-92 221v1020q0 129 92 221t221 92h1250z" />
    <glyph glyph-name="highlight" unicode="&#xd8;" 
d="M1025 512v-128h514v128h-514zM895 1024h774v-772h-774v772zM699 80l-320 -80v128l260 60v902l-260 60v128l332 -80l318 80v-128l-258 -60v-902l258 -60v-128z" />
    <glyph glyph-name="etcvert" unicode="&#xdb;" 
d="M837 -66q0 76 55 131t131 55q78 0 133 -55t55 -132t-55 -133t-133 -56t-132 56t-54 134zM837 574q0 78 54 134t132 56t133 -56t55 -134t-55 -132t-133 -54q-76 0 -131 54t-55 132zM837 1214q0 78 54 133t132 55t133 -55t55 -133t-55 -133t-133 -55q-76 0 -131 55t-55 133
z" />
    <glyph glyph-name="lima" unicode="&#xb6;" 
d="M485 1032l16 -2q46 46 58 92q2 8 -2 14l-20 108q-12 -12 -16 -38q-2 -22 12 -36q2 -2 10 -18q2 -4 2 -8q-2 -34 -60 -112zM1357 1026l-90 24q-104 -898 -168 -984q188 256 266 656q8 32 8 158t-16 146zM787 144l84 -48q40 830 94 934q-156 -300 -176 -800q0 -50 -2 -86z
M575 6q-124 18 -124 78q0 40 60 100q24 24 48 72q2 4 20 100q-24 56 -32 116q-12 -6 -30 -6q-44 0 -130 34q-132 52 -148 130q-14 66 -14 122q0 96 42 168q62 106 134 180q4 68 20 120q24 76 56 76q36 0 64 -46q-16 26 -16 52q0 16 8 34q30 68 46 68q34 0 56 -76
q14 -48 22 -168q14 -2 20 -6q94 -46 110 -136q6 -32 8 -52q162 106 376 106q224 0 388 -156t164 -378q0 -64 -16 -124q8 2 14 2q38 -8 66 -36q36 -36 36 -86t-32 -82q-28 -28 -70 -40q-38 -10 -40 -10q-46 -42 -84 -80q-80 -80 -152 -80q-64 0 -118 26q-90 -24 -152 -24
q-174 0 -324 92v-2q0 -30 -92 -80q-30 -16 -84 -16q-44 0 -100 8zM811 914q-10 -72 -78 -254q-48 -134 -168 -152q180 26 264 278zM349 880q0 -20 10 -30q12 -12 26 -12q18 0 26 12q12 16 10 30q-2 22 -10 30q-12 12 -26 12t-25 -12t-11 -30z" />
    <glyph glyph-name="artedit" unicode="&#xdd;" 
d="M942 370v-94l194 94h278v-128h-888v128h416zM1274 566l-202 126l502 808l204 -126zM1058 670l202 -126l-234 -152zM1652 942v-1006q0 -34 -12 -47t-46 -13h-1162q-58 0 -110 54t-52 108v1276q0 34 12 47t48 13h1034l-64 -102h-930v-268l2 -966q0 -14 23 -37t37 -23h1120
v804zM902 1136v-378h-378v378h378zM1140 1014h-106v124h184zM950 504h-430v124h442z" />
    <glyph glyph-name="cop" unicode="&#xac;" 
d="M657 644l136 4l-28 112l-120 -8zM697 384l116 -92l48 136l-36 136l-152 -8zM879 970l-38 80l52 40q-10 23 -10 44q1 50 34 80q39 36 76 36h6q42 0 78 -36q34 -34 34 -82q0 -18 -6 -42h8l-30 -84zM911 -40q3 -15 4 -32q1 -23 -8 -42q-14 -29 -32 -34q-21 -5 -40 24
q-16 24 -24 68l-66 362l-74 54l-30 188q-22 2 -44 10q-31 11 -32 30q-2 26 26 42q14 8 34 12l-4 102l8 44l-118 118q-10 10 -24 -24l-16 -42l-48 18l28 68l-6 12q-13 28 2 46q12 14 32 12l150 370q9 21 24 44q15 21 26 20q8 -1 8 -32q0 -24 -10 -48l-152 -372q24 -14 32 -22
l146 -142l232 66l32 94l78 14l206 -448l-50 -30l98 -342l256 -144q39 -21 58 -48q20 -28 8 -44q-17 -24 -44 -20q-34 5 -68 24l-282 158l-176 362l-194 -182zM873 466l92 80l-28 84l-28 -70l-58 -2zM825 658l36 2l34 100l-4 12l-88 -18z" />
    <glyph glyph-name="fb2" unicode="&#xa8;" 
d="M246 738q0 199 152 406q138 188 355 268q133 49 329 49q197 0 404 -153q190 -140 269 -358q47 -129 47 -330q0 -198 -152 -405q-139 -189 -355 -269q-76 -28 -170 -40v580h198l32 232h-230v148q0 54 24 84q22 28 90 28h124v208q-64 8 -180 8q-136 0 -217 -80t-81 -226
v-170h-200v-232h200v-582q-158 24 -323 146q-190 141 -269 358q-47 129 -47 330z" />
    <glyph glyph-name="tw2" unicode="&#xa9;" 
d="M245 741.5q0 196.5 156 404.5q143 190 366 269q126 44 322.5 44t404.5 -156q190 -143 269 -366q44 -126 44 -322.5t-156 -404.5q-143 -190 -366 -269q-126 -44 -322.5 -44t-404.5 156q-190 143 -269 366q-44 126 -44 322.5zM1536 954q-56 -26 -120 -34q68 40 92 116
q-64 -36 -134 -50q-62 66 -154 66q-88 0 -148 -62q-54 -56 -60 -148q-2 -28 4 -48q-128 6 -242 64t-192 156q-30 -50 -30 -100v-6q0 -114 92 -176q-48 2 -100 28v-4q0 -72 50 -132t122 -72q-28 -8 -50 -8q-10 -2 -38 4q20 -62 74 -104t122 -44q-116 -88 -262 -88
q-24 -2 -50 2q148 -94 322 -94q112 0 210 36t168 95t120 137q52 76 76 161t24 169v26q62 46 104 110z" />
    <glyph glyph-name="tlex" unicode="&#xaa;" 
d="M1739 238v-312q-262 0 -450 186t-188 442v8q0 264 186 448q188 186 452 186v-312q-134 0 -230 -96q-94 -94 -94 -226q0 -134 95 -229t229 -95zM309 238q130 0 228 96q96 94 96 226t-96 228t-228 96v312q262 0 450 -186q186 -184 186 -448q0 -266 -186 -452
q-184 -184 -450 -184v312z" />
    <glyph glyph-name="preview" unicode="&#xc5;" 
d="M323 388v-258h252v258h-252zM323 1151v-258h252v258h-252zM957 510h900v-256h-900v256zM191 514h518v-514h-518v514zM957 1279h900v-256h-900v256zM191 1283h518v-514h-518v514z" />
    <glyph glyph-name="edition" unicode="&#xe2;" 
d="M255 1408h1537v-1540h-1537v1540z" />
    <glyph glyph-name="finder" unicode="&#xc6;" 
d="M863 192v-24q0 -174 139 -313t337 -139t338 140t140 337t-142 337t-336 140t-335 -139t-141 -339zM1237 132q58 0 101 44t43 99t-42 99t-102 44t-101 -41t-41 -101t42 -102t100 -42zM1633 -40q16 -16 18 -40t-14 -40t-41 -18t-45 18l-178 180q-58 -38 -151 -38t-167 74
t-74 180t75 181t181 75t180 -76t74 -188q0 -68 -38 -128zM241 -130q-56 0 -94 36q-36 38 -36 94v1156q0 54 38 93t92 39h506q54 0 92 -39t38 -93v-130h768q54 0 93 -39t39 -93v-298q160 -170 160 -408v-4q-2 -238 -177 -413t-421 -175t-422 176q-46 46 -80 98h-596zM743 192
q0 246 175 421t421 175q170 0 306 -84v190h-898v262h-506v-1156h532q-30 90 -30 192z" />
    <glyph glyph-name="book" unicode="&#xc7;" 
d="M416 206q3 31.5 3 62.5t-3 61.5q-60 26 -136 49l158 92q-48 79 -78 136l-158 -36q23 72 31 145q-64 48 -146 97l82 24l95 29q-19.1038 112.5 -19.1038 179.944q0 91.424 35.1038 100.056q4 1 14 2t16 1q7 67 25 129q7 0 42 3q6 32 13 59l1177 147
q-13.7363 -52.1978 -13.7363 -107.415q0 -145.772 95.7363 -312.585q4 -7 111 -163q109 -157 141 -229q60.0714 -134.643 60.0714 -247.355q0 -50.5261 -12.0714 -96.6451q-40 -23 -85 -45q0.2 -7.7 0.2 -15.27q0 -68.13 -16.2 -125.73q-92 -47 -518 -254.5t-563 -277.5
q22 76 27 154q-101 -50 -138 -69q22.83 78.1028 22.83 161.349q0 193.876 -123.83 415.651zM321 883q10 2 12 3q-13 46 -20 93q0 -51 8 -96zM370 1155q-4.59184 -38.2653 -4.59184 -76.718q0 -87.1595 23.5918 -175.282q16 4 37 11q-52 123 -56 241zM488 500q14 9 22 13
q-39 64 -66 113q-7 -2 -25 -6q28 -52 69 -120zM631 313l-23 -12q131.273 -234.909 131.273 -434.017q0 -31.438 -3.27273 -61.9835q12 6 60 29q-8 208 -165 479zM849 -280l949 465q6 31 8 70q-75 -39 -434 -222q-306 -156 -480 -250q19.7753 74.9692 19.7753 152.726
q0 185.688 -112.775 387.274q-41 73 -126 193q-88 124 -98 139l-29 -6q-29 -7 -43 -10q20 -35 113 -187q79 -129 125 -216q47 -87 86 -233.5q27.1607 -102.027 27.1607 -198.961q0 -42.2533 -5.16071 -83.5391zM970 -109l928 479q4.79348 28.5326 4.79348 58.6804
q0 101.928 -54.7935 222.32q-35 77 -162 256q-124 175 -163 287q-30.42 87.36 -30.42 175.328q0 24.8116 2.42 49.6716l-1057 -132q-9.77778 -50.2222 -9.77778 -101.975q0 -181.136 119.778 -381.025q44 -74 177 -260q134 -188 196 -336q51.5455 -121.909 51.5455 -256.537
q0 -29.9174 -2.54545 -60.4628zM521 1123l889 160q4 -28 10 -53l-886 -175q-9 34 -13 68zM574 938l878 199q11 -25 24 -49l-872 -212q-17 31 -30 62zM1556 954l-849 -247q-22 32 -39 60l857 234q15 -24 31 -47zM1025 149l391 182q8 -31 11 -61l-389 -189q-5 36 -13 68z" />
    <glyph glyph-name="script" unicode="&#xe1;" 
d="M1143 1284h-539q-54 0 -83 -43q-17 -26 -17 -57v-1089q0 -54 43 -83q26 -17 57 -17h833q59 0 83 38q17 26 17 62v785q0 48 -32 81l-277 286q-36 37 -85 37zM1592 1044q65 -68 65 -164v-785q0 -101 -77 -167q-63 -53 -143 -53h-833q-101 0 -167 77q-53 63 -53 143v1089
q0 101 77 167q63 53 143 53h539q101 0 171 -73zM1098 404l-74 146l-76 -146h150zM1142 320h-236l-64 -124l-124 54l306 596l306 -596l-124 -54z" />
    <glyph glyph-name="pdf" unicode="&#xdc;" 
d="M1024 -70l28 -1q92 0 92 31q0 23 -30 33q-31 10 -63 8l-31 -3v-68h4zM1070 59q142 0 142 -91q0 -51 -47 -78q-47.0769 -22.1538 -89.0414 -22.1538q-3.49704 0 -6.95858 0.153846l-49 1v-127h-63v317h113zM1415 -170q36 24 36 69t-30 71q-31 27 -79 27l-14 -1l2 -190
q49 0 85 24zM1520 -100q0 -136 -192 -158h-63v317h63q192 0 192 -159zM1751 -68v-63h-115v-127h-63v317h257v-61h-194v-66h115zM1621 481l17 -6l27 -23q26 -27 26 -60q0 -32 -11 -53q-30 -105 -158 -119q-8.22222 -0.888889 -16.2469 -0.888889q-28.0864 0 -53.7531 10.8889
q-74 19 -148 82l-42 35q-7 7 -15 9q-4 1 -10 3q-3 1 -38 -7q-483 -111 -522 -183q-39 -71 -42 -76l-35 -63q-67 -122 -84 -139t-30 -32l-47 -48q-39.0323 -32.5269 -81.2123 -32.5269q-29.1426 0 -59.7877 15.5269q-45 35 -66 82q-14.2857 31.4286 -14.2857 51.6327
q0 8.08163 2.28571 14.3673q10 26 10 30q1 5 14 32q12 24 29 42q15 16 25 29q51 67 155 117q102 49 103 50q60 51 62 59q218 457 218 623q0 7 2 14q3 9 -4 30q-7 23 -8 28q-2 12 -10 35q-10 28 -25 77l-21 67q-24.5 76.125 -24.5 97.8906q0 3.10938 0.5 5.10938q5 22 7 38
q2 23 5 34q3 12 5 30t46 50q37.0526 26.9474 71.2687 26.9474q6.41551 0 12.7313 -0.947368q42 0 71 -34t38 -89v-67h6q-4 -19 -10 -72q-8 -65 -20 -126q-15 -75 -15 -90v-17q0 -5 29 -69q28 -62 106 -177t171 -217q0 -10 29 -10h10q42 0 63 1l63 3q55 6 99 6t62 -6
q18 -7 22 -7t4 -4zM1152 456q-38 54 -76 110q-19 28 -41 58l-60 85q-39 57 -58 85q-31 -86 -41 -120q-14 -46 -38 -106q-27 -67 -45 -123t-38 -112q85 31 189 60.5t208 62.5zM519 90q-7 2 -14 -2q-112 -64 -138 -94q-25 -29 -29 -66q-4 -38 10 -40l18 -2q52 23 126 152
q7 11 27 52zM1392 389l-3 -6v-5q16 -6 19 -10q5 -6 19 -12l21 -11q38 -20 55 -20q21 0 38 7q20 8 42 50q-33 14 -97 14zM885 1350q-31.5 -24 -31.5 -75t31.5 -129q9 71 9 122t-9 82z" />
    <glyph glyph-name="css" unicode="&#xb5;" 
d="M1774 1314q-190 24 -319 24q-191 0 -249 -53l1 -4q4 -14 4 -30q-1 -65 -62 -158q-44 -67 -68 -93t-24 -31v-1q254 61 402 61q22 1 44 -1q161 -15 271 -64v-48q-145 76 -328 76q-92 -1 -191 -19q-74 -13 -187 -43q4 -18 7 -29q5 -17 8 -29q49 31 105 31q41 0 85 -17
q72 -28 105 -95q17 1 34 1q205 -3 362 -112v-48q-164 115 -366 115h-14q11 -38 11 -76q0 -86 -57 -167h20h19h17h16h14q6.55462 0.210084 13.1587 0.210084q150.572 0 326.841 -109.21v-48q-185 105 -426 105q-24 0 -47 -1q-40 -39 -86 -56q1 -1 55 -201q318 -21 504 -193
v-47q-184 158 -491 190q0 -1 2 -7q14 -39 14 -74q0 -55 -34 -102q-44 -61 -117 -61q-15 1 -31 3q-32 4 -62 29t-46 54q-13 24 -13 49q-1 7 1 16q9 38 45 64q22 16 47 16q21 1 48 -13q19 -10 36 -33q18 -24 18 -50q-1 -28 -22 -57q-19 -26 -51 -37q9 -1 17 -1h2h2h2h2
q0.956522 -0.0217391 1.90832 -0.0217391q42.8308 0 76.0917 44.0217q9 12 21 47q2 6 2 14q-2 39 -26 104q-90 6 -292 9q-220 3 -314 25t-138 38l-200 23v824q48 6 200 21q167 10 451 130q-1 11 -1 15q4 55 23 87q46 78 136 78h2q67 0 106 -71q192 70 357 70q120 0 226 -37
v-47zM1022.5 1312q-27.5 -25 -31.5 -64q87 37 141 58q-13 19 -26 25t-28 6q-28 0 -55.5 -25zM990 711q2 56 21 84t17 35t-23 82q-74 -80 -91 -105q-41 -58 -42 -128q44 11 118 32zM1043 776q-15 -26 -21 -56q14 4 34 10q-8 29 -13 46zM931 1181q-286 -112 -457 -121v-95v-90
q23 -1 47 -1h14h12h11h10q4.69565 -0.130435 9.6862 -0.130435q109.792 0 362.314 63.1304l12 12q3 5 16 17q11 12 14 17v14l-17 61q-19 68 -22 76q-7 33 -12 47zM474 833v-189q50 -8 107 -8q101 0 226 27v11v9v8v7v6q-0.137931 2.68966 -0.137931 5.44114
q0 37.1451 25.1379 85.5589q27 52 59 88q-209 -50 -354 -53q-33 0 -63 3zM474 426q68 -13 117 -13h60h7q3.09677 -0.0322581 6.26327 -0.0322581q94.9948 0 252.737 29.0323q-88 74 -107 183q-131 -25 -174 -25h-45q-53 0 -117 9v-183zM1086 374q-56 0 -126 37
q-199 -30 -302.5 -30t-183.5 15v-143q152 -58 405 -58h25q205 2 248 2h50l-49 182q-35 -5 -45 -5h-22zM1338 682q-1 35 -11 62q-78 -7 -198 -37q21 -75 60 -217q19 3 71 7q79 71 79 170v5q0 6 -1 10zM1178 852q-25 0 -53 -12q-30 -13 -26 -23q5 -12 7 -24q3 -16 12 -47
q107 28 188 38q-49 68 -109 68h-8h-11zM874 640q20 -127 138 -181q72 14 113 21q-39 141 -59 211q-26 -7 -47 -13q4 -30 -1 -41q-4 -9 -11 -2q-10 9 -15 36q-76 -20 -118 -31zM1035 1047q82 100 95 141q14 44 14 69v6q-56 -20 -151 -57q4 -20 42 -159z" />
    <glyph glyph-name="speaker" unicode="&#xb4;" 
d="M1296 924q46 15 83 15t66 -15q57 -29 75 -85l1 -5q10 -31 10 -59v-4v-3q2 -27 -17 -59q-32 -54 -118 -83l-30 64l-28 81l-26 86zM1723 236q137 12 137 274v26q0.0135135 2.37838 0.0135135 4.76516q0 174.235 -72.0135 393.235q-74 224 -205 381q-98 117 -230 117
q-1 0 -1 -1q-90 0 -114 -236q-2 -20 -2 -43v-30q0 -275 41 -387q68 -186 226 -357q128 -139 186 -142q23 -1 34 0zM187 347l-9 27q-1 3 -3 8q-20 55 -20 133q0 31 1 41q10 96 75 117q852 274 957 645q39 138 153 174q19 6 38 6h1h3q89 0 205 -136q141 -165 231 -440
q74 -226 74 -411q0 -34 -3 -73q-16 -205 -128 -245q-31 -11 -59 -11h-5q-77 0 -158 62q-168 129 -426 129q-219 0 -511 -95l58 -196l-43 -119l64 -194q-28 -71 -61 -79q-8 -2 -16 -2h-3h-1q-27 0 -63 36l-122 372l-126 64q-54 37 -103 187z" />
    <glyph glyph-name="justice" unicode="&#xab;" 
d="M1838 620l-178 428l-202 -430zM1878 620q144 2 146 48q-4 -188 -154 -188l-440 -2q-104 0 -106 182q2 -40 98 -42l236 498zM598 394q144 2 146 48q-4 -188 -154 -188l-440 -2q-126 0 -126 184q2 -42 110 -44l246 496zM558 394l-178 426l-204 -428zM380 896q0 136 212 210
q102 36 220 172l20 54q0 44 32 76t77 32t75 -34t30 -66v-8l36 -38q30 -64 184 -64q54 0 92 4q58 6 116 6q184 0 186 -116q-2 56 -120 56q-74 0 -156 -15t-120 -15q-170 0 -220 162q-4 -30 -27 -53t-47 -31v-1053l170 1v-96h120v-180h-642v180h122v96l166 -1v1055
q-50 16 -68 66q2 -16 2 -32q0 -164 -210 -214q-250 -60 -250 -154z" />
    <glyph glyph-name="msql2" unicode="&#x102;" 
d="M763 765h520v-124h-520v124zM763 510h520v-124h-520v124zM1143 1284h-539q-54 0 -83 -43q-17 -26 -17 -57v-1089q0 -54 43 -83q26 -17 57 -17h833q59 0 83 38q17 26 17 62v785q0 48 -32 81l-277 286q-36 37 -85 37zM1592 1044q65 -68 65 -164v-785q0 -101 -77 -167
q-63 -53 -143 -53h-833q-101 0 -167 77q-53 63 -53 143v1089q0 101 77 167q63 53 143 53h539q101 0 171 -73zM763 256h520v-124h-520v124z" />
    <glyph glyph-name="wall" unicode="&#xf0;" 
d="M800 874v112h-50v-112h50zM1140 874v112h-50v-112h50zM1470 874v112h-50v-112h50zM1800 874v112h-50v-112h50zM1921 -174h-279v1248h279v-1248zM1587 -174h-278v1248h278v-1248zM1253 -174h-278v1248h278v-1248zM920 -174h-279v1248h279v-1248zM689 1179l-106 -105v-1248
h-350v1248l-106 105v190h97v55l83 22h202l83 -22v-55h97v-190zM286 1251v85h-129v-85h129zM499 1251v85h-172v-85h172zM661 1251v85h-129v-85h129z" />
    <glyph glyph-name="stars" unicode="&#xf1;" 
d="M1842 138l-90 28l-70 -70l-24 94l-94 24l70 70l-28 90l94 -24l68 68l24 -92l94 -24l-70 -70zM432 86l-48 14l-34 -36l-12 50l-50 12l36 34l-14 48l50 -12l36 36l12 -48l48 -12l-36 -36zM378 1074l-72 20l-52 -52l-20 72l-72 20l52 52l-20 72l74 -18l52 52l20 -72l72 -20
l-52 -52zM1554 1042l-58 16l-42 -44l-16 58l-60 14l42 44l-18 56l60 -14l42 44l16 -58l60 -14l-42 -44zM1330 302l-264 72l-194 -194l-72 264l-264 72l194 194l-72 264l266 -70l194 194l70 -266l266 -70l-194 -194z" />
    <glyph glyph-name="earth" unicode="&#xf2;" 
d="M1025 -186q-101 -53 -220 -53q-121 0 -230 62t-171.5 165.5t-67.5 224.5q-102 64 -160 169.5t-58 227.5t57.5 226.5t160.5 170.5q5 120 67 222t170 165q107 63 227 63l2 -1q120 0 222 -52q103 53 222 53t227 -61t171 -164.5t68 -224.5q102 -65 160 -170.5t58 -226.5
t-57.5 -226.5t-160.5 -170.5q-5 -121 -67 -223t-170 -165q-109 -64 -229 -64t-221 53zM1265 120q-40 -158 -168 -259q70 -26 161 -26t182 53q166 96 195 284q-84 -34 -178.5 -34t-181.5 38q-4 -28 -11 -56h1zM773 176q-89 -38 -183.5 -38t-177.5 34q29 -188 196 -284
q93 -54 183.5 -54t159.5 28q-154 118 -178 314zM848 172q11 -70 54 -146t122 -126q78 50 122 125t54 147q-84 -34 -176 -34t-176 34zM879 238q70 -26 145.5 -26t144.5 26q-97 77 -145 190q-47 -113 -145 -190zM590 212h47t97 26q-150 118 -177 306q-59 -47 -101.5 -122.5
t-48.5 -166.5q84 -43 183 -43zM1314 238q71 -26 108 -26h55q78 0 163 43q-8 176 -149 289q-27 -188 -177 -306zM1181 519q74 -98 93 -220q122 102 145 250q-88 -34 -172 -34h-6q-26 0 -60 4zM801 514h-48.5t-126.5 36q23 -151 148 -251q11 54 27.5 105t65.5 115
q-34 -4 -52 -4zM1857 610v11q0 172 -149 300q-27 -194 -182 -312q73 -54 121.5 -137t60.5 -173q148 116 149 311zM525 610q-157 116 -185 311q-149 -124 -149 -314.5t149 -307.5q28 192 185 311zM981 536q-100 -86 -131 -227q7 6 20 19q89 93 111 208zM1067 534
q20 -104 111 -206q8 -10 20 -19q-13 65 -47 122q-22 50 -84 103zM1112 610q62 -23 129 -23t131 23q-64 22 -131 22t-129 -22zM677 610q62 -23 129.5 -23t129.5 23q-62 22 -129.5 22t-129.5 -22zM774 921q-122 -104 -144 -251q85 35 162 35h22q14 0 53 -5q-75 99 -93 221z
M1181 700q30 5 90.5 5t146.5 -35q-22 146 -144 251q-19 -123 -93 -221zM1452 1008l-9 1q-59 0 -130 -28q151 -119 178 -306q80 70 113.5 121t39.5 130q1 17 -13 31q-49 49 -173 53zM407 965q11 -178 150 -290q26 187 179 307q-61 24 -154 24q-1 1 -2 1q-91 0 -173 -42z
M850 910q26 -139 131 -229q-22 113 -108 207q-12 14 -23 22zM1198 910q-103 -86 -131 -226q105 90 131 226zM879 981q98 -76 145 -190q48 114 145 190q-70 28 -145 28t-145 -28zM1095 1359q155 -118 180 -316q88 37 181.5 37t178.5 -33q-11 73 -59.5 154.5t-135 132.5
t-189.5 51h-3.5h-42t-110.5 -26zM413 1047q83 34 177.5 34t182.5 -38q24 195 178 315q-71 26 -161.5 26t-181.5 -53q-166 -96 -195 -284zM1024 1320q-149 -101 -176 -273q83 34 173 34q93 0 179 -34q-10 70 -51.5 144.5t-124.5 128.5z" />
    <glyph glyph-name="uni0000" 
 />
    <glyph glyph-name="peace" unicode="&#x103;" 
d="M1731 860q43 -120 43 -250q0 -128 -43 -250q-49 -138 -149 -250q-107 -119 -250 -184q-145 -66 -308 -66q-165 0 -308 66q-144 67 -250 184q-99 110 -149 250q-43 120 -43 250q0 128 43 250q49 138 149 250q106 118 250 184t308 66q167 0 308 -66t251 -183
q94 -100 148 -251zM415 610q0 -133 53 -250q30 -66 76 -125l410 410v570q-151 -17 -277 -105q-139 -97 -208 -250q-54 -120 -54 -250zM954 5v441l-311 -311q14 -11 34 -26q124 -87 277 -104zM1094 5q154 17 278 105q17 12 33 25l-311 311v-441zM1504 235q44 57 75 125
q53 117 54 250q0.0178571 2.30357 0.0178571 4.60459q0 126.556 -54.0179 245.395q-70 155 -208 250q-127 88 -277 105v-570z" />
    <glyph glyph-name="translate" unicode="&#x104;" 
d="M1316 162v-170q0 -62 -46 -108t-108 -46h-916q-60 0 -108 46q-46 44 -46 108v924q0 44 66 108q46 44 88 44h486v172q0 44 66 108q46 44 88 44h916q64 0 108 -44q46 -46 46 -108v-924q0 -62 -46 -108t-108 -46h-486zM326 966q-52 0 -92 -38t-40 -90v-770q0 -52 38 -90
t90 -38h764q52 0 90 38t38 90v770q0 52 -36 90t-88 38h-764zM710 814l72 -124l312 -542l-108 -62l-138 242h-276l-138 -242l-108 62l312 542zM710 566l-66 -120h132zM1316 670h182l138 -242l112 58l-312 542l-76 128l-72 -124l-10 -18q38 -42 38 -98v-88l44 80l66 -120h-110
v-118z" />
    <glyph glyph-name="plug" unicode="&#x105;" 
d="M1130 1216h100v-260h460q52 0 90 -32t38 -74t-38 -74t-90 -32h-460v-392h460q52 0 90 -32t38 -74t-38 -74t-90 -32h-460v-220h-100q-268 0 -468 190q-162 154 -192 344h-240v207h240q34 215 192 365q200 190 468 190z" />
    <glyph glyph-name="sherif" unicode="&#x106;" 
d="M741 556q0 -116 81 -197q84 -84 200 -84q114 0 196 82q83 83 84 199q0.0120482 1.39759 0.0120482 2.7901q0 114.186 -81.012 194.21q-85 84 -199 84q-117 0 -198 -82q-83 -84 -83 -199zM1024 -229l-230 399h-461l230 398l-230 398h461l230 399l230 -399h461l-230 -398
l230 -398h-461z" />
    <glyph glyph-name="lys" unicode="&#x107;" 
d="M1039 542q98 170 272 271t372 101q-99 -168 -282 -276q-163 -96 -346 -96h-8h-8zM1039 528h7q184 0 359 -100q180 -102 278 -274q-190 0 -380 106q-172 94 -264 268zM1011 528q-104 -172 -270 -270q-178 -104 -374 -104q94 166 282 276q167 98 354 98h8zM1011 542h-7
q-190 0 -363 101q-176 103 -276 273q202 0 378 -106q166 -104 268 -268zM1025 544q-98 168 -98 374t98 376q98 -170 98 -376t-98 -374zM1025 -224q-98 168 -98 374t98 376q98 -170 98 -378q0 -204 -98 -372z" />
    <glyph glyph-name="oomo" unicode="&#x108;" 
d="M492 563q-90 0 -90 65v15v10v8v7v5q8 52 102 52h14q6 1 24 1q14 0 34 -1q40 0 40 -1h8h10h7q3.55 -0.1 6.9225 -0.1q64.0775 0 64.0775 36.1v1v1v2q1 0 1 2q-10 49 -61 118q-104 139 -228 196q-168 77 -182 94q-62.0156 72.8438 -62.0156 114.68
q0 0.664062 0.015625 1.32031q1 38 48 54l160 -48q68 -36 134 -80l226 -174l76 -116l38 -102q42 -82 89 -82t93 46l-10 206q-8 106 -8 194v108q4 40 96 40h36q2 1 4 1q56 0 56 -241q1 -1 14 -284q3 -64 74 -64h30h3h2h2h2q0.568182 -0.0681818 1.15857 -0.0681818
q25.3869 0 91.8414 126.068q71 135 138 242q34 53 67 53q32 0 65 -23q32 -22 32 -60v-15q-16 -53 -65 -117t-85 -134q-37 -72 -38 -88q-2 -27 42 -27q8 0 18 1l136 6q116 -19 116 -64v-4q5 -25 4 -41q-3 -78 -52 -93q-20 -6 -64 -6q-40 0 -99.5 29t-70.5 29h-12
q-14 0 -17 -12q-3 -13 -3 -14q26 -102 240 -360q68.0556 -81.6667 68.0556 -133.086q0 -1.46914 -0.0555556 -2.91358q-1 -24 -16 -43q-32 -40 -56 -40h-2q-10 0 -26 10q-42 28 -161 189q-121 164 -167 278q-48 118 -88 126q-16 3 -30 3q-88 0 -88 -97v-13q1 -3 2 -33
l40 -362q9 -55 10 -103q0.0434783 -2.8913 0.0434783 -5.71975q0 -127.28 -88.0435 -127.28h-6q-84 19 -86 58l-14 364q3 0 2 62q-5 208 -40 230q-38 24 -62 24h-22h-4h-4h-2h-4q-1.48837 0.186047 -2.94646 0.186047q-29.8908 0 -47.0535 -78.186q-9 -40 -74 -274
q-34 -125 -246 -408q-72 -96 -114 -96q-50 0 -50 80v43v4q-0.637168 3.9292 -0.637168 8.52659q0 81.9867 202.637 376.473q68 99 128 288q6 19 6 29v16q-18 33 -57 33t-95 -9.5t-104 -9.5z" />
    <glyph glyph-name="save2" unicode="&#x109;" 
d="M1776 -70q0 -29 -20.5 -48.5t-49.5 -19.5h-1364q-28 0 -49 20t-21 48v1433q0 29 21 50t49 21h272v-343h820v343h67l275 -276v-1228zM1229 1158v276h137v-276h-137zM477 0h1094v614h-1094v-614z" />
    <glyph glyph-name="submenu" unicode="&#x10a;" 
d="M290 1190h648v182h-648v-182zM290 944h648v184h-648v-184zM290 700h648v182h-648v-182zM290 454h648v182h-648v-182zM290 208h648v184h-648v-184zM290 -36h648v182h-648v-182zM1110 944h648v184h-648v-184zM1110 700h648v182h-648v-182zM1110 454h648v182h-648v-182z
M1054 1200h760v-820h-760v502h-60v-982h-760v1520h760v-220h60z" />
    <glyph glyph-name="css2" unicode="&#x10b;" 
d="M1781 617q-289 0 -290 333q-1 226 -89 348q-90 125 -256 126q259 -1 399 -126q141 -126 141 -348q0 -333 288 -333q-285 0 -288 -331q-4 -437 -545 -438q347 1 348 438q0 331 292 331zM267 655q289 0 290 -333q1 -226 89 -348q90 -125 256 -126q-259 1 -399 126
q-141 126 -141 348q0 333 -288 333q285 0 288 331q4 437 545 438q-347 -1 -348 -438q0 -331 -292 -331z" />
    <glyph glyph-name="citation" unicode="&#x10c;" 
d="M546 -250v410h-136q-85 0 -145 60t-60 144v752q0 84 60 144t145 60h1228q85 0 145 -60t60 -144v-752q0 -84 -60 -144t-145 -60h-682zM1161 633q98 12 152 81q53 68 53 172v230h-205v-205h98q0 -80 -43 -137q-22 -29 -55 -42v-99zM1434 633q100 13 152 81t52 172v230h-204
v-205h90q0 -96 -48 -149q-18 -20 -42 -30v-99zM410 432h204v205h-90q0 102 55 153q15 14 35 22v99q-100 -13 -152 -81t-52 -172v-226zM682 432h205v205h-90q0 138 90 175v99q-145 -19 -191 -159q-14 -43 -14 -94v-226z" />
    <glyph glyph-name="latina" unicode="&#x10d;" 
d="M700 1188q-6 -28 -6 -48q1 -68 58 -68h3l77 48q8 -28 -8 -52t-20 -38t6 -16t42 6v-4q0 -20 44 -82t66 -62q24 0 22 44q-2 32 40 32l136 -28h4q68 -32 162 -122t94 -122q37 16 64 16h3h1h3h2h2h2q31 2 31 -55v-5q0 -58 -80 -224q-84 -172 -92 -176q-66 -28 -148 -132
q-92 -116 -92 -152v-48q0 -16 -22 -28t-14 -40q-100 0 -100 116v6v5v5v4v4v4v4q-0.0909091 1.54545 -0.0909091 3.31405q0 37.1405 40.0909 172.686q40 135 40 191v5q0 51 -24 84q-124 168 -124 228v12q36 95 36 145v5q0 38 -20 54q-24 18 -100 48q-188 76 -308 300z
M932 1140l52 -32q12 -16 -8 -16t-44 12t0 36zM1020 1084q36 -8 40 4q16 -4 24 -24q-28 -7 -48 -7q-25 0 -36 11q16 -4 22 -2t-2 18zM944 1068q12 0 12 -12q-16 0 -12 12z" />
    <glyph glyph-name="africa" unicode="&#x10e;" 
d="M1242 1186l236 -48q34 -67 34 -88q0 -6 -1 -8q29 20 29 -24q67 0 73 6q5 5 28 -1q26 -7 24 -29q-4 -44 -178 -163l-57 -33h-10q-19 0 -109 169t-95 198zM1242 1042q17 -76 92 -192q68 -105 139 -105q24 0 48 14q0 -23 -101 -197t-101 -195v-1q-2 -29 15 -29v-34
q0 -69 -39 -177l-48 -135q-54.6857 -173.006 -166.71 -173.006q-0.64382 0 -1.28953 0.00571429q-79 1 -153 96q-71 91 -72 380q-1 279 -24 321q-31 13 -159 29q-114 14 -206 53q-82 35 -82 129q0 32 48 159q120 317 375 317h28q27 -12 34 -53q8 -48 38 -48h44q7 0 120 -19
l134 -15z" />
    <glyph glyph-name="america" unicode="&#x10f;" 
d="M676 724q-212 71 -232 110q-72 144 -72 214v1q55 109 66 115q114 23 214 23q177 0 312 -69l80 -56h-24l-48 -16l-8 -8q16 -5 41 -5q34 0 59 5q20 4 -4 12q0 24 84 52q9 3 48 -38q40 -42 40 -50q14 0 34 22t46 26l-36 -80q32 -12 52 -28q-48 0 -58 -3t-10 7v20q4 12 4 20
l-24 4q-68 0 -72 -93q-1 -21 4 -47v-24q78 -20 89 -28t34 -35t37 -41q30 0 40 52q1 5 0 14q-12 120 -12 126q0 4 36 4q80 0 112 -72q36 -4 52 36q16 -32 66 -78t50 -50q-40 0 -128 -39t-88 -77l96 48q0 -10 -4 -28q-8 -36 32 -36q0 -20 -60 -20q0 4 12 4t8 16
q-46 -18 -135 -160t-89 -184q-22 54 -48 73q-20 15 -46 13q-16 -1 -22 -2q-96 -17 -96 -104v-4q-1.71429 -13.7143 -1.71429 -25.4694q0 -70.5306 61.7143 -70.5306h2h4h2h4h4h3.5h2.5h4h2q1.2069 -0.431034 2.59215 -0.431034q14.6837 0 49.4078 48.431q2 -9 2 -14
q-2 -22 -18 -50q-22 -38 -9 -41t45 5v-4q0 -14 45 -71t65 -73l-34 8q-109 25 -224 136q-55 53 -228 224l-40 40q-6 0 -4 -4l60 -100q7 -12 -4 -14l-12 -2q-2.36948 -0.401606 -4.76637 -0.401606q-57.2858 0 -130.234 229.402q-75 235 -81 237zM1592 638q8 8 16 12
q0 -12 -16 -12zM1348 238l52 -32q12 -16 -8 -16t-44 12t0 36zM1436 182q36 -8 40 4q16 -4 24 -24q-28 -7 -48 -7q-26 0 -36 11q16 -4 22 -2t-2 18zM1360 166q12 0 12 -12q-16 0 -12 12z" />
    <glyph glyph-name="usa" unicode="&#x110;" 
d="M814 709l-8 -12l-14 -4l8 -12v-16l14 6l14 -6v16l8 12l-14 4zM814 829l-8 -12l-14 -4l8 -12v-16l14 6l14 -6v16l8 12l-14 4zM814 949l-8 -12l-14 -4l8 -12v-16l14 6l14 -6v16l8 12l-14 4zM814 1069l-8 -12l-14 -4l8 -12v-16l14 6l14 -6v16l8 12l-14 4zM754 649l-8 -12
l-14 -4l8 -12v-16l14 6l14 -6v16l8 12l-14 4zM754 769l-8 -12l-14 -4l8 -12v-16l14 6l14 -6v16l8 12l-14 4zM754 889l-8 -12l-14 -4l8 -12v-16l14 6l14 -6v16l8 12l-14 4zM754 1009l-8 -12l-14 -4l8 -12v-16l14 6l14 -6v16l8 12l-14 4zM754 1129l-8 -12l-14 -4l8 -12v-16
l14 6l14 -6v16l8 12l-14 4zM694 709l-8 -12l-14 -4l8 -12v-16l14 6l14 -6v16l8 12l-14 4zM694 829l-8 -12l-14 -4l8 -12v-16l14 6l14 -6v16l8 12l-14 4zM694 949l-8 -12l-14 -4l8 -12v-16l14 6l14 -6v16l8 12l-14 4zM694 1069l-8 -12l-14 -4l8 -12v-16l14 6l14 -6v16l8 12
l-14 4zM634 649l-8 -12l-14 -4l8 -12v-16l14 6l14 -6v16l8 12l-14 4zM634 769l-8 -12l-14 -4l8 -12v-16l14 6l14 -6v16l8 12l-14 4zM634 889l-8 -12l-14 -4l8 -12v-16l14 6l14 -6v16l8 12l-14 4zM634 1009l-8 -12l-14 -4l8 -12v-16l14 6l14 -6v16l8 12l-14 4zM634 1129
l-8 -12l-14 -4l8 -12v-16l14 6l14 -6v16l8 12l-14 4zM574 709l-8 -12l-14 -4l8 -12v-16l14 6l14 -6v16l8 12l-14 4zM574 829l-8 -12l-14 -4l8 -12v-16l14 6l14 -6v16l8 12l-14 4zM574 949l-8 -12l-14 -4l8 -12v-16l14 6l14 -6v16l8 12l-14 4zM574 1069l-8 -12l-14 -4l8 -12
v-16l14 6l14 -6v16l8 12l-14 4zM514 649l-8 -12l-14 -4l8 -12v-16l14 6l14 -6v16l8 12l-14 4zM514 769l-8 -12l-14 -4l8 -12v-16l14 6l14 -6v16l8 12l-14 4zM514 889l-8 -12l-14 -4l8 -12v-16l14 6l14 -6v16l8 12l-14 4zM514 1009l-8 -12l-14 -4l8 -12v-16l14 6l14 -6v16
l8 12l-14 4zM514 1129l-8 -12l-14 -4l8 -12v-16l14 6l14 -6v16l8 12l-14 4zM454 709l-8 -12l-14 -4l8 -12v-16l14 6l14 -6v16l8 12l-14 4zM454 829l-8 -12l-14 -4l8 -12v-16l14 6l14 -6v16l8 12l-14 4zM454 949l-8 -12l-14 -4l8 -12v-16l14 6l14 -6v16l8 12l-14 4zM454 1069
l-8 -12l-14 -4l8 -12v-16l14 6l14 -6v16l8 12l-14 4zM394 649l-8 -12l-14 -4l8 -12v-16l14 6l14 -6v16l8 12l-14 4zM394 769l-8 -12l-14 -4l8 -12v-16l14 6l14 -6v16l8 12l-14 4zM394 889l-8 -12l-14 -4l8 -12v-16l14 6l14 -6v16l8 12l-14 4zM394 1009l-8 -12l-14 -4l8 -12
v-16l14 6l14 -6v16l8 12l-14 4zM394 1129l-8 -12l-14 -4l8 -12v-16l14 6l14 -6v16l8 12l-14 4zM334 709l-8 -12l-14 -4l8 -12v-16l14 6l14 -6v16l8 12l-14 4zM334 829l-8 -12l-14 -4l8 -12v-16l14 6l14 -6v16l8 12l-14 4zM334 949l-8 -12l-14 -4l8 -12v-16l14 6l14 -6v16
l8 12l-14 4zM334 1069l-8 -12l-14 -4l8 -12v-16l14 6l14 -6v16l8 12l-14 4zM274 649l-8 -12l-14 -4l8 -12v-16l14 6l14 -6v16l8 12l-14 4zM274 769l-8 -12l-14 -4l8 -12v-16l14 6l14 -6v16l8 12l-14 4zM274 889l-8 -12l-14 -4l8 -12v-16l14 6l14 -6v16l8 12l-14 4zM274 1009
l-8 -12l-14 -4l8 -12v-16l14 6l14 -6v16l8 12l-14 4zM274 1129l-8 -12l-14 -4l8 -12v-16l14 6l14 -6v16l8 12l-14 4zM202 1181h680v-640h-680v640zM962 1181h884v-100h-884v100zM962 1001h884v-100h-884v100zM962 821h884v-100h-884v100zM962 641h884v-100h-884v100z
M202 461h1644v-100h-1644v100zM202 281h1644v-100h-1644v100zM202 101h1644v-100h-1644v100z" />
    <glyph glyph-name="crash" unicode="&#x111;" 
d="M1649 25h-130l-370 473l-226 -263l-649 941v224h150l521 -756l214 247l490 -627v-239zM1774 1400v-1500h-1500v1188l70 -101h-20v-312h235l35 -50h-270v-313h312v251l50 -73v-178h123l34 -50h-157v-312h313v297l57 65h174l39 -50h-220v-312h313v195l50 -64v-131h312v312
h-25v19l-24 31h49v313h-294l-68 88v274h-313v-146l-50 -58v204h-230l-35 51h265v312h-313v-243l-50 72v171h-117l-35 50h1290zM636 -50v312h-312v-312h312zM1362 1037v313h-313v-313h313zM1724 1037v313h-312v-313h312zM1724 675v312h-312v-312h312z" />
    <glyph glyph-name="money" unicode="&#x112;" 
d="M1897 790zM135 366zM413 1048q0 -108 -74 -184q-72 -74 -184 -74v-424q108 0 184 -74q74 -72 74 -184h1226q0 108 74 184q72 74 184 74v424q-108 0 -184 74q-74 72 -74 184h-1226zM77 1142h1894v-1128h-1894v1128zM639 576q0 162 114 274q116 114 274 114q162 0 274 -114
q114 -116 114 -274q0 -162 -114 -274q-116 -114 -274 -114t-273 115t-115 273zM1079 448v382h-88l-162 -164l62 -62l100 100v-256h-134v-88h342v88h-120z" />
    <glyph glyph-name="dollar" unicode="&#x113;" 
d="M1176 994v-516q209 -139 209 -309q0 -158 -209 -245v-204h-86v178q-29 -5 -57.5 -5t-67.5 7v-180h-86v202q-233 77 -233 158q0 48 48 62q12 4 23 4q30 0 49 -28q60 -84 113 -134v518q-216 143 -216 311v4q0 162 216 247v204h86v-180q26 5 51 5q36 0 74 -7v182h86v-206
q226 -77 226 -156q0 -50 -46 -63q-13 -4 -24 -3q-31 -1 -50 27q-44 65 -106 127zM880 661v381q-48 -18 -82 -51.5t-48 -84.5q-5 -19 -4 -47q0 -92 134 -198zM1090 -76v454l-62 34q-34 19 -63 36v-517q14 -5 29 -7q23 -4 47 -4t49 4zM1176 318v-372q95 37 128 150v20
q-2 100 -128 202zM1090 1052q-16 6 -36 10q-23 4 -42 3q-23 0 -47 -3v-459l55 -30q37 -20 70 -41v520z" />
    <glyph glyph-name="revolution" unicode="&#x114;" 
d="M1068 884q-18 29 -18 69q-0.0476191 1.95238 -0.0476191 3.93197q0 39.5918 19.0476 90.068q8 22 13.5 27.5t63.5 5.5q-51 9 -54 22t17 22q22 10 55 10h3q1.41071 0.0357143 2.80804 0.0357143q76.8527 0 113.192 -108.036q8 -24 52 -12q15 4 27 -1q-12 -1 -37.5 -26.5
t-36.5 -31.5q-54 -29 -54 -72q0 -46 63 -109q55 -55 67 -80q14 -29 15 -71q0.0416667 -2 0.0416667 -4.0191q0 -46.4392 -22.0417 -102.981q-21 -54 -21 -101q0 -46 20 -83q-6 35 -6 70v10q14 30 25 66.5t28 87.5q23 72 28 87q4 11 5 38q1 21 -6 50q-5 21 -5 43q0 30 10 58
q17 47 73 271q5 -22 5 -48q0 -60 -25 -143q-34 -113 -42 -147q6 1 9 1q36 -2 34 -49q-1 -22 -9 -59q-23 -106 -56 -205q-29 -90 -32 -111q-3 -22 7 -42t15 -34q-3 0 -29.5 -35t-30.5 -49.5t-6 -42.5q-9 -104 -49 -126q-16 -9 -43 -2q21 82 42.5 142.5t23.5 73.5
q-82 66 -90 144.5t-20 82.5q-11 3 -32 -24q-5 -7 -6 -26q-0.117647 -2.23529 -0.117647 -4.65398q0 -38.699 30.1176 -124.346q33 -94 33 -140q0 -18 -5 -28q-3 -7 -7 -73q-8 -147 -61 -147h-1q-51 0 -293 35q-214 31 -214 46v1q0 5 41 81q32 59 32 131q0 14 -1 23t-1 24
q1 75 31 145q9 20 23 38q30 37 30 56q0 11 -10 15q-15 6 -50 8q-145 8 -146 102q20 1 33.5 -27t17.5 -31q25 -19 79 -19q13 0 29 1q-103 48 -128 73q-2 2 -54 13t-46 16q14 11 37 12q1.25 0.05 2.5375 0.05q24.4625 0 62.4625 -18.05q70 -33 86 -33h2q15 -1 58 27
q40 26 64 26h4q18 0 18 -38q0 -14 -3 -34q4 18 16 54q35 105 35 161q0 20 -6 35q-26 67 -101 201q-24 43 -24 96q0 12 1 25q2 30 -28 51q-31 22 -46 68.5t28 48.5q-12 13 -12 23l70 -18q131 -417 268 -431zM1039 -79q-3 21 -26 57q-20 32 -20 62q0 5 1 10q15 -26 28 -38
q27 -25 41 -48q-6 15 -6 29q0 19 26 47q27 29 26 53q0 5 -1 11q-21 -24 -103 -48v6q0 48 59 98q62 55 75 81q-14 -10 -36 -18q39 70 50 88q-17 -19 -33.5 -35.5t-36.5 -17.5q11 4 39.5 39.5t25.5 49.5q-31 -22 -66 -45q-68 -44 -102.5 -89t-59 -112t-40 -87.5t-22.5 -45
t-12 -28.5q25 -1 60 4.5t48 2.5q2 -28 54 -28q14 0 31 2zM731 -38q50 6 119.5 87.5t86.5 140t74 111.5q14 13 61 37t57 47q-83 -35 -116 -60q-150 -111 -228 -182q3 -1 6 -1q27 4 57 22q40 24 60 47q-2 -58 -83 -133t-94 -116zM1059 931q9 -8 10 7q12 -14 -4 -27
q31 -9 18 -25t5 -16l45 71q12 21 12 30q-1 54 -32.5 67.5t-41.5 -36.5l-6 -24q-11 -42 -6 -47zM1079 988q6 6 20 -5t18 -11q-17 0 -34 2q8 5 -4 14zM882 599q-8 -17 5 -29q24 -22 88 -22h11q36 1 60 1q21 0 35 -1t26 -1q1.74359 -0.025641 3.45562 -0.025641
q65.0572 0 84.5444 37.0256q-18 9 -9 50.5t13 41.5q-2 0 -23 6.5t-49.5 12.5t-31.5 0t16 -16.5t15 -24.5q-4 -18 -21 -66q-9 -24 -49 -31q-11 -2 -23 -2q-28 1 -51 10q-35 14 -29 36q13 -10 28 -15q0 11 16.5 45t25 60.5t-6.5 42.5t-27.5 47.5t-17.5 18t-11 -43.5
q-4 8 -5 18q-4 -12 -14 -13v4q0.0454545 2.09091 0.0454545 4.1219q0 42.6508 -20.0455 58.8781q7 -19 6 -43q-1 -30 -7 -66q-12 -66 -38 -120zM1055 855q18 -92 63 -96q1 15 -17.5 34.5t-19.5 31.5q9 -5 20.5 -16.5t29.5 -13.5q-3 40 -39 50q-19 5 -37 10zM756 145
q35 34 75 63q140 102 140 148v4q0 24 -47 53q-36 22 -71 22q-7 0 -13 -1q-39 -7 -62 -55q-27.4571 -58.4571 -27.4571 -134.958q0 -9.87102 0.457143 -20.0424q3 -40 5 -79zM1273 439q-25 -3 -44 13q3 -2 9.5 -38t11.5 -33.5t23 58.5z" />
    <glyph glyph-name="nature" unicode="&#x116;" 
d="M1089 676l-6 63q-0.0454545 1.5 -0.0454545 2.97779q0 63.5449 84.0455 86.0222q-26 -42 -26 -78.5t12 -67.5q27 -70 86 -70q101 0 114.5 110t183.5 110q-91 -73 -91 -124t71 -84q26 -12 52 -12q0.675 -0.00833333 1.35028 -0.00833333q80.3581 0 164.65 118.008
q67 94 220 94q-101 -51 -101 -102q0 -37 56.5 -76.5t200.5 -39.5v-708h-2174v146q225 2 418 132t487 130h9q278 0 546 -152t630 -152q-328 0 -596 198q-270.476 200.04 -566.989 200.04q-229.693 0 -475.011 -120.04q-248 -120 -452 -120v732q0 18 52 244q12 52 52 122
q0 -244 54 -244q26 0 26 -122t26 -122q20 0 32 -61t65 -61t107 -54q24 -24 80 -24h30l14 406l-68 -16q-34 -6 -54 -6q-99.1442 2.03721 -99.1442 95.3793q0 44.1137 22.1442 108.621q19 55 39 116l-80 -70q-1 13 -1 26q7 196 149 196q70 0 102 -74q34 48 88 48
q123 0 123 -89q0 -21 -10.5 -60.5t-10.5 -48.5v-2q61 -107 62 -119.5t1 -22.5q-3 -116 -115 -116q-62 0 -62 16v-388h30v36q0 120 16 214q4 -168 12 -214q10.9032 45.2903 10.9032 83.5463q0 7.35692 -0.403226 14.4537q-1.78571 31.4286 -1.78571 51.3776
q0 7.97959 0.285714 14.1224q1 21.5 1 52.5q20 -88 30 -184q0 2 8 59t10 125q2 -8 2 -118v-15q-0.173913 -7.04348 -0.173913 -13.4972q0 -67.7637 19.1739 -70.5028q10 -1 17 1q21 8 21 77l-3 67q0 41 8 72q2 -67 38 -216q15 15 15 65l-2 59q0 60 25 92
q-8.94681 -28.383 -8.94681 -59.431q0 -69.5903 44.9468 -152.569q-2 115 -14.5 165.5q-6.64894 26.8617 -6.64894 53.5819q0 23.5138 5.14894 46.9181q-28 -22 -40 -20q14 14 22 38q-40 4 -46 14q20 0 42 12q-24 30 -20 42q14 -14 38 -22q4 40 14 46q0 -20 12 -42
q30 24 42 22q-14 -14 -22 -38q40 -4 46 -16q-20 0 -42 -10q24 -32 20 -44q-12 14 -38 22q-4 -38 -14 -46q0 16 -6 32q-4 -22 -4 -43.5t9 -72t23 -138.5q7 21 2.5 63t-4.5 58q0 77 58 95q-34.0071 -45.3429 -34.0071 -99.9162q0 -56.1552 36.0071 -122.084
q20.0208 20.0208 20.0208 63.3993q0 23.7882 -6.02083 54.6007q-3 15 -3 28q1 61 61 76q-31 -35 -31 -72.5t9 -67.5q25 -83 57 -83q3 0 7 1q44 11 44 70zM1929 1128q32 -34 32 -81.5t-24 -104.5q-6 84 -70 110q-4 -94 -124 -140q28 34 28 68t-12 64
q-37.0408 -30.8673 -90.4602 -30.8673q-41.7643 0 -93.5398 18.8673q86 8 112 72q-82 4 -128 126q46.5 -38.25 90.75 -38.25q14.75 0 29.25 4.25q-26 27 -26 74t30 116q6 -76 64 -102q2 86 132 130q-35 -43 -35 -73.5t7 -48.5q29 26 73 26t103 -26q-70 -8 -92 -64
q77 -4 131 -142q-59.5349 47.6279 -106.332 47.6279q-16.0865 0 -30.6679 -5.62791zM2001 360q-6.23077 24.5769 -6.23077 43.4024q0 35.5592 22.2308 50.5976q-27 -2 -54 -23.5t-44.5 -21.5t-29.5 25q-33 68 -120 72q-23 1 -52 -6q-119 -29 -156 -140q-4 -12 -4 -21
q3 -65 162 -95q37 -7 72 -7q1.60784 -0.0196078 3.19031 -0.0196078q79.1234 0 94.8097 49.0196q9 28 29 29q15 1 44.5 -23t54.5 -24q-25 16 -25 41.5t9 50.5zM981 1134q-30 24 -38.5 26t-22 10t-8 15.5t11.5 6.5l25 -15q-1 12 -1 23q-0.157895 3.36842 -0.157895 6.61496
q0 58.4377 51.1579 77.385q-20.0132 -16.9342 -20.0132 -41.7684q0 -23.5606 18.0132 -54.2316q39 79 127 79q24 0 51 -6q-126 -11 -128 -85q32 -6 56 1t30 8l-2 -47l-22 4l-28 10q-40.3448 -23.3103 -65.8193 -23.3103q-2.93936 0 -5.68074 0.310345q-26.5 3 -28.5 5z
M1619 1033q20.7724 -9.95935 43.569 -9.95935q57.3172 0 127.431 62.9593q12 -29 12 -66.5t-36 -82.5q77 29 83 159q79 -33 89 -123q10 24 10 62t-64 109q29 12 67 12t83 -36q-29 77 -159 83q33 79 123 89q-21.175 9.075 -43.7113 9.075q-59.4137 0 -128.289 -63.075
q-12 29 -12 67t37 83q-77 -29 -84 -159q-79 33 -88 122q-9.95935 -20.7724 -9.95935 -43.569q0 -57.3172 62.9593 -127.431q-29 -12 -66.5 -12t-82.5 37q29 -77 159 -84q-33 -79 -123 -88zM1656 384l-15 -6l-20 21l20 21l15 -6v-30z" />
    <glyph glyph-name="galaxy" unicode="&#x117;" 
d="M1164 715q54 -69 106 -69h12q42 0 84 54q60 78 60 199v4q0 125 -80 243q-79 117 -186 181q-50 30 -70 51h2q157 -28 276 -171q162 -194 162 -392v-2q0 -224 -164 -370q-92 -82 -230 -82h-36q-92 0 -160 79q-15 17 -52 78q-41 67 -94 67q-47 -4 -85 -35q-37 -30 -61 -86
q-28 -65 -28 -131q2 -145 86 -265q86 -122 168 -167q84 -46 84 -61q-183 48 -311 212q-129 165 -129 348v33q0 96 55 207q54 109 165 174q70 41 133 41q1 0 1 -1q64 0 102 -6q109 -17 162 -97z" />
    <glyph glyph-name="web" unicode="&#x118;" 
d="M1765 398l-652 -422l26 -148l-36 -6l-26 146l-782 106l-182 -182l-24 26l182 184l98 984l-174 26l4 34l192 -28l1096 -90l100 164l114 98l24 -26q-12 -10 -34 -28q-18 -14 -40 -34q-16 -14 -30 -28l154 -740l184 -24l-4 -34zM1555 514l-72 466l-120 -72l34 -346z
M1123 220l412 264l-152 46l-278 -178zM1361 570l-32 318l-118 -68l-60 -220zM863 752l66 -68l84 44zM835 728l12 -162l56 92zM927 628l-60 -98l122 10zM1027 548l58 34l-112 42zM1117 608l48 178l-86 -64l-110 -58zM1065 756l80 60l-386 16l60 -38zM713 818l26 -388l76 86
l-20 250zM841 492l-78 -92l294 -20l-48 126zM1093 388l238 150l-198 28l-90 -50zM1191 850l90 52l-678 18l94 -50zM543 912l12 -628l152 110l-32 448zM731 366l-146 -104l502 -52l-18 134zM1339 936l100 60l-1008 84l102 -122zM507 934l-104 124l-92 -930l208 130zM541 230
l-200 -126l736 -98l12 168zM1127 178l-14 -158l608 394l-142 54zM1593 502l144 -56l-144 686l-78 -126z" />
    <glyph glyph-name="fuck" unicode="&#x119;" 
d="M1580 422q20 -89 20 -152q0 -29 -4 -52q-11 -60 -43 -86q-37 -28 -89 -43q-21 -6 -63 -44q-20 -18 -47 -42q-14 -13 -65 -30q-48 -16 -106 -16q-32 0 -91 -30q-71 -36 -118 -36h-1q-1.14754 -0.0655738 -2.35743 -0.0655738q-35.6917 0 -125.643 57.0656q-77 49 -106 54
q-122 21 -150 75q-16 31 -27 98q-114 89 -114 165q0 14 4 27q8 25 21 44q14 20 35 43t34 42q2 78 2 141q0 59 46 101t111 42q52 0 88 -21l-44 453v11q-0.326531 3.7551 -0.326531 7.53686q0 42.5448 41.3265 88.4631q42 47 101 60q42 9 85 9q15 1 33 -1q61 -7 101 -50
q42 -45 42 -111v-3l-7 -451q12 16 43 22q16 3 35 3q14 0 33 -2q36 -4 72 -38q35 -33 48 -88q23 14 53 14q65 0 103 -38t38 -103q0 -58 14 -120zM796 690q-8 28 -53 39q-16 4 -31 4q-30 -1 -59 -14q-46 -21 -52 -73q-7 -61 -7 -135q0 -57 4 -118q11 -174 41 -233
q21 -42 133 -62q32 -6 116 -59q81 -51 114 -51h2q1.05714 -0.0285714 2.13878 -0.0285714q36.7755 0 101.861 33.0286q63 32 103 33q67 2 110 18q46 17 66 39t46 44t53 30q48 14 60 37q11 21 10 59q-1 23 -4 62t-11 75q-3 14 -13 151q-3 41 -35 61q-24 15 -51 15
q-10 0 -19 -2q-39 -9 -55 -37l-17 -254l-41 -48q23 285 23 350v3q0.0238095 1.28571 0.0238095 2.55442q0 52.017 -40.0238 75.4456q-31 18 -62 18l-26 -3q-45 -11 -54 -46l-45 -340l-24 -50l32 913q0 42 -31 70t-77 35q-21 3 -42 3q-26 -1 -47 -4q-42 -6 -75 -37
q-32 -30 -32 -73l63 -850l-28 -56zM1079 1132q-13.1358 -71.3086 -110.786 -71.3086q-6.42433 0 -13.2144 0.308642q-107 5 -121 61q-6 24 -6 58q0 48 20 71q28 32 102 32h5q81 0 108 -30q19 -21 20 -70q0 -29 -4 -51zM869 1137q5 -38 82 -38h4q81 0 87 41q4 26 4 45
q0 31 -11 43q-14 15 -80 15h-7q-3.29412 0.0588235 -6.44983 0.0588235q-50.4913 0 -65.5502 -15.0588q-10.7037 -10.7037 -10.7037 -44.0041q0 -19.5885 3.7037 -46.9959z" />
    <glyph glyph-name="organigram" unicode="&#x11a;" 
d="M210 330v-348h346v348h-346zM1490 330v-348h346v348h-346zM850 330v-348h346v348h-346zM850 1356v-348h346v348h-346zM1920 316v-320q0 -40 -28 -68t-68 -28h-320q-40 0 -68 28t-28 68v320q0 40 28 68t68 28h96v192h-512v-192h96q40 0 68 -28t28 -68v-320q0 -40 -28 -68
t-68 -28h-320q-40 0 -68 28t-28 68v320q0 40 28 68t68 28h96v192h-512v-192h96q40 0 68 -28t28 -68v-320q0 -40 -28 -68t-68 -28h-320q-40 0 -68 28t-28 68v320q0 40 28 68t68 28h96v192q0 52 38 90t90 38h512v192h-96q-40 0 -68 28t-28 68v320q0 40 28 68t68 28h320
q40 0 68 -28t28 -68v-320q0 -40 -28 -68t-68 -28h-96v-192h512q52 0 90 -38t38 -90v-192h96q40 0 68 -28t28 -68z" />
    <glyph glyph-name="puzzle" unicode="&#x11b;" 
d="M1856 346q0 -81 -44 -136q-43 -54 -114 -54h-10q-44 0 -78 18t-58 38q-22 20 -56 38q-32 18 -72 18q-110 0 -110 -124q0 -44 16 -116t16 -114v-6h-34q-8 0 -98 -12q-60 -8 -114 -12q-54 -6 -98 -6q-64 0 -104 26q-42 28 -42 84q0 40 18 72q20 37 38 56q19 21 38 58
q18 35 18 71v7q0 80 -54 124t-136 44t-142 -46t-60 -126q0 -38 16 -84q16 -44 32 -64q18 -20 34 -52t16 -52q-2 -44 -46 -88q-36 -36 -118 -36q-124 0 -244 24q-20 4 -28 4q-10 0 -28 4l-12 2q-2 0 -4 2h-2v1024q2 0 18 -4q16 -2 34 -4q8 -2 22 -4q150 -24 244 -24
q78 0 118 36q46 42 46 88q0 18 -16 50q-21 40 -32 54q-13 17 -34 64q-16 36 -16 75v9q0 78 60 126q58 46 144 46q80 0 134 -44t54 -124q0 -44 -18 -78q-19 -35 -38 -58q-21 -25 -38 -56q-18 -33 -18 -65v-7q0 -59 42 -84q42 -26 104 -26q78 0 180 14q116 16 162 18v-2
q0 -12 -2 -18q-4 -12 -6 -34q-2 -16 -4 -20q-24 -48 -24 -246q0 -82 36 -118q40 -40 88 -44q20 -2 50 14t54 34q20 16 64 32q42 16 84 16q82 0 127 -59t45 -143z" />
    <glyph glyph-name="fork" unicode="&#x11c;" 
d="M800 98q0 40 -28 68t-68 28t-68 -28t-28 -68t28 -68t68 -28t68 28t28 68zM800 1250q0 40 -28 68t-68 28t-68 -28t-28 -68t28 -68t68 -28t68 28t28 68zM1440 1122q0 40 -28 68t-68 28t-68 -28t-28 -68t28 -68t68 -28t68 28t28 68zM1536 1122q0 -50 -26 -96t-70 -70
q-2 -288 -226 -414q-76 -42 -202 -82q-128 -40 -170 -70t-42 -100v-26q44 -24 70 -69t26 -97q0 -80 -56 -136t-136 -56t-136 56t-56 136q0 52 26 96q26 46 70 70v820q-44 24 -70 69t-26 97q0 80 56 136t136 56t136 -56t56 -136q0 -52 -26 -96q-26 -46 -70 -70v-496
q60 26 154 56q60 18 88 30l70 30q38 18 60 40q20 20 40 50t28 70t8 92q-44 24 -70 69t-26 97q0 80 56 136t136 56t136 -56t56 -136z" />
    <glyph glyph-name="wiki" unicode="&#x11d;" 
d="M1143 1284h-539q-54 0 -83 -43q-17 -26 -17 -57v-1089q0 -54 43 -83q26 -17 57 -17h833q59 0 83 38q17 26 17 62v785q0 48 -32 81l-277 286q-36 37 -85 37zM1592 1044q65 -68 65 -164v-785q0 -101 -77 -167q-63 -53 -143 -53h-833q-101 0 -167 77q-53 63 -53 143v1089
q0 101 77 167q63 53 143 53h539q101 0 171 -73zM889 151q-23 54 -99 227.5t-99 227.5q-9 20 -26 41q-43 55 -79 55v10q0 2 -0.5 5t-0.5 4h225v-19q-26 0 -47.5 -13t-12.5 -34q16 -35 94 -215t79 -184q3 5 52 97.5t52 99.5q-82 188 -100 222q-13 25 -78 27v19h197v-18
q-22 -1 -35.5 -9.5t-4.5 -27.5q24 -52 66 -145q27 51 66 141q4 7 4 15q0 10 -8.5 16t-18.5 7t-29 2v19h170v-18q-53 -3 -80 -44l-82 -170q2 -5 19 -44t40.5 -92t35.5 -80l170 391q-17 38 -65 38v19l177 -1v-18q-54 -2 -78 -56q-186 -428 -214 -495h-19l-114 267
q-18 -37 -137 -267h-20z" />
    <glyph glyph-name="youtube" unicode="&#x11e;" 
d="M1218 213v-204q0 -58 -36 -62q-22 -2 -43 19v291q9 20 37 20h4q38 -1 38 -64zM1544 212v-44h-87v44q0 65 43.5 65t43.5 -65zM616 421h103v90h-300v-90h101v-546h96v546zM892 -125h86v474h-86v-362q-29 -41 -54 -41q-17 0 -20 20q-1 2 -2 34v349h-85v-376q0 -47 7 -69
q12 -36 57 -36q46 0 97 59v-52zM1305 17v189q0 70 -10 95q-17 54 -67 54q-48 0 -90 -52v208h-85v-636h85v46q43 -53 90 -53q52 0 67 53q10 26 10 96zM1629 26v13h-88q0 -49 -1 -58q-7 -35 -38 -35q-44 0 -45 66v84h172v98q0 76 -27 112q-37 49 -100 49q-65 0 -104 -49
q-26 -36 -26 -112v-165q0 -76 28 -112q37 -49 103 -49q70 0 104 51q17 26 19 52q3 8 3 55zM1046 903v202q0 66 -41.5 66t-41.5 -66v-202q0 -67 41.5 -67t41.5 67zM1736 182q0 -224 -26 -336q-13 -56 -55.5 -94.5t-97.5 -44.5q-176 -20 -532.5 -20t-533.5 20q-55 6 -98 44.5
t-55 94.5q-25 108 -26 336q0 224 26 336q13 56 55.5 94.5t98.5 46.5q175 19 531.5 19t533.5 -19q55 -7 98 -45.5t55 -95.5q26 -108 26 -336zM777 1407h98l-116 -382v-261h-96v261q-13 71 -59 202q-36 98 -62 180h102l68 -253zM1132 1087v-168q0 -78 -26 -113
q-36 -49 -102 -49q-65 0 -101 49q-26 36 -27 113v168q0 77 27 113q36 49 100.5 49t102.5 -49q26 -36 26 -113zM1454 1243v-479h-87v53q-50 -60 -99 -60q-44 0 -57 36q-7 23 -7 72v378h86v-353q0 -31 2 -33q2 -22 20 -21q26 0 55 41v366h87z" />
    <glyph glyph-name="play2" unicode="&#x11f;" 
d="M1024 1210q387 0 511 -13q191 -20 271 -93q81 -74 104 -247q14 -104 14 -297q0 -297 -39 -415q-40 -120 -142 -171q-101 -50 -353 -60q-101 -4 -366 -4q-387 0 -511 13q-191 20 -271 93q-81 74 -104 247q-14 104 -14 297q0 297 39 415q40 120 142 171q105 52 353 61
q74 3 366 3zM838 950q-38 0 -56 -33q-8 -14 -8 -32v-650q0 -45 39 -60q12 -5 25 -5q17 0 34 10l515 325q29 18 30 55t-30 55l-515 325q-16 10 -34 10z" />
    <glyph glyph-name="grav" unicode="&#x120;" 
d="M1154 711q24 -24 0 -48l-29 -26q-22 -26 -46 0l-31 29q-22 24 0 48l29 28q22 22 48 0zM1068.5 767.5q-15.5 -15.5 -31 -0.5t-1.5 30t31 0.5t1.5 -30zM991.5 752.5q15.5 15.5 30.5 0.5t0 -30.5t-30.5 -0.5t0 30.5zM1247 1030h6h2q0.770833 0.0208333 1.54601 0.0208333
q36.4332 0 82.454 -46.0208q1 -1 10.5 -9.5t11.5 -10.5t10 -11t10 -12.5t8 -12.5t7 -14.5t4 -18.5t-4.5 -30.5t-7.5 -18.5q-25 -48 -86 -68q-21 -7 -45 -7t-63.5 27t-51.5 76l-7 29v9v2q-0.028169 0.957746 -0.028169 1.92105q0 33.2339 33.5282 73.079q34.5 41 78.5 41z
M1352.5 877.5q6.5 14.5 -10 35t-32.5 13t-20.5 -23t4.5 -30.5q11 -13 31.5 -11t27 16.5zM1738 584q0 -297 -208.5 -505.5t-505.5 -208.5t-505.5 208.5t-208.5 505.5t208.5 505.5t505.5 208.5t505.5 -208.5t208.5 -505.5zM892 583v39v6q0.236842 2.68421 0.236842 5.40582
q0 31.7521 -32.2368 68.5942q80 -78 80 -166v-15q0 -11 -11 -31q-11 -19 -32 -28l-15 -26q-47 -79 -58 -114q-15 -46 -21 -75q-3 -15 -3 -32q-1 -25 9 -59q-28 43 -29 64q-95 -106 -95 -153q0 -20 17 -29t27 -9q56 0 180 147q123 145 163 268q132 80 184 187
q54 -106 167 -176q52 -32 85 -32h2q32 0 37 32.5t-31.5 52.5t-40.5 27q-54 93 -113 93q-24 0 -44 -5q26 18 56 18q7 0 12 -1v15q1 21 -27 57q5 16 5 32.5t-4 32.5q84 46 84 145v14v3q0.0888889 1.6 0.0888889 3.23556q0 35.1644 -41.0889 86.7644q-43 54 -129 54
q-84 0 -130 -75q-28 -46 -28 -94t29 -86t63 -54q-39 3 -71 28q-51 41 -51 113t32 134q-22 29 -39 29.5t-55 -19.5q30 38 73 42q0 85 -52 90q-33 3 -49 -34q-7 -11 -9 -45q-1 -21 5 -55q13 -81 53 -152q-17 -15 -48 -35q-62 -40 -125 -130l-26 -37q-71 -27 -138.5 -94.5
t-67.5 -118.5q0 -25 11 -38q-11 -9 -31.5 -32t-4.5 -53.5t63 -8.5q105 48 105 87q0 3 -16.5 8.5t-30.5 4.5q109 26 120 26h13q20 0 22 72z" />
    <glyph glyph-name="science" unicode="&#x121;" 
d="M1397 10q-46 0 -86 6q26 14 86 14t86 -14q-40 -6 -86 -6zM1397 320q-61 0 -61 51q0 12 3 25q4 17 30 44q24 26 28 62q3 -42 27 -61q26 -21 29 -39l4 -34q0 -48 -60 -48zM1393 578q-56 0 -56 56q0 9 2 20q4 22 28 41q26 20 30 41l27 -25q33 -25 33 -86q0 -5 -3 -21
q-5 -26 -59 -26h-2zM1386 749q6 4 2 10.5t-10 2.5l-914 -584q-41 -27 -75 -27h-2q-54 0 -97 65q-27 41 -27 77q1 56 65 97l914 584q6 4 2 10t-10 2l-916 -585q-46 -30 -61 -89q-4 -16 -4 -32q0 -40 22 -74q34 -52 89 -62q16 -3 31 -3q40 0 76 23zM1393 740l-917 -586
q-50 -32 -93 -32q-65 0 -116 78q-32 49 -32 92q0 68 78 119l914 583q17 12 26 -4q10 -14 -7 -24l-300 -195h430q14 7 21 -6q10 -15 -4 -25zM1020 99q-31 -14 -30 -26q-1 -13 30 -27t87 -25q85 -23 290 -23q272 0 378 48q29 13 30 27q1 13 -30 27q-32 13 -87 24
q-94 19 -232 22q1 -6 1 -18v-4v-3v-3v-4v-4v-4q0.138462 -1.61538 0.138462 -3.15621q0 -31.8438 -59.1385 -31.8438q-60 0 -60 58q0 8 1 17q-225 -5 -319 -47zM1804 54q-27 -53 -149.5 -99t-257.5 -46q-157 0 -272 48q-110 46 -136 99q-7 14 -7 17q0 18 35 33q32 14 89 25
q100 19 235 22q3 8 29 39q22 25 22 50l5 12q4 -39 28 -62t29 -38q223 -5 324 -48q35 -15 35 -33q0 -1 -9 -19z" />
    <glyph glyph-name="worker" unicode="&#x122;" 
d="M1080 200q0 -34 -63 -59t-150.5 -25t-153 24.5t-65.5 60t63.5 59.5t153 24t152.5 -24.5t63 -59.5zM1428 525l-394 -252q-46 18 -108 25l407 261q36 -22 95 -34zM659 128q46 -18 108 -26l-371 -238q-49 17 -113 23zM1765 -110q-63 0 -113 -9q-262 213 -584 263
q43 26 43 56l-4 19q365 -64 658 -329zM923 1342q27 -28 27 -67t-27.5 -67t-66.5 -28t-67 28t-28 67t28 67t67 28t67 -28zM961 1041v-624q0 -48 -47 -48q-48 0 -48 48v330l-12 -331q-1 -47 -47 -47h-2h-2q-43 -1 -43 47v625l-14 -240q-2 -49 -36 -48q-47 1 -47 48l-1 288
q0 48 48 48h301q47 0 47 -46v-2v-288q0 -48 -46 -48h-2q-36 0 -36 48zM294 140l328 85l-5 -19q-1 -3 -1 -6q3 -26 44 -50q-311 -50 -340 -86z" />
    <glyph glyph-name="yinyang" unicode="&#x123;" 
d="M1012 620l24 1q143 7 238 105.5t95 239.5q0 146 -102.5 245.5t-253.5 99.5q-278 0 -479 -204.5t-201 -486.5q0 -289 192.5 -481.5t498.5 -209.5q-170 22 -258 110t-88 236q0 141 95.5 239t238.5 106zM1026 1064q41 0 70 -29t29 -69q0 -41 -29 -70t-70 -29t-70 29t-29 70
t29 69.5t70 28.5zM1026 373q-41 0 -70 -28.5t-29 -69.5t29 -70t70 -29t70 29t29 70q0 40 -29.5 69t-69.5 29zM1024 1360q307 0 523.5 -216.5t216.5 -523.5t-216.5 -523.5t-523.5 -216.5t-523.5 216.5t-216.5 523.5t216.5 523.5t523.5 216.5z" />
    <glyph glyph-name="usa2" unicode="&#x124;" 
d="M540 1122l-90 -140l-162 -42l108 -130l-12 -166l156 62l156 -62l-12 166l108 130l-162 42zM202 1180h680v-640h-680v640zM962 1180h884v-100h-884v100zM962 1000h884v-100h-884v100zM962 820h884v-100h-884v100zM962 640h884v-100h-884v100zM202 460h1644v-100h-1644v100
zM202 280h1644v-100h-1644v100zM202 100h1644v-100h-1644v100z" />
    <glyph glyph-name="command" unicode="&#x125;" 
d="M1320 444h148q122 0 210 -88q86 -86 86 -208t-87 -209t-209 -87t-209 87t-87 209v148h-296v-148q0 -120 -87 -208t-209 -88q-120 0 -208 86q-88 88 -88 210t88 210q86 86 208 86h148v296h-148q-122 0 -209 87t-87 209t88 210q86 86 208 86t209 -87t87 -209v-148h296v148
q0 122 88 210q86 86 208 86t209 -87t87 -209t-87 -209t-209 -87h-148v-296zM1320 888h148q62 0 105 44t43 104q0 58 -44 104q-42 44 -104 44t-106 -44q-42 -42 -42 -104v-148zM728 296h-148q-62 0 -105 -44t-43 -104q0 -58 44 -104q42 -44 104 -44t105 44t43 104v148z
M728 888v148q0 60 -44 104t-104 44q-58 0 -103 -43t-45 -105t44 -106q42 -42 104 -42h148zM1320 296v-148q0 -62 44 -105t104 -43q58 0 104 44q44 42 44 104t-44 106q-42 42 -104 42h-148zM1172 444v296h-296v-296h296z" />
    <glyph glyph-name="flower" unicode="&#x126;" 
d="M1020 -34q-27 -56 -70 -84t-93 -28h-7q-99 0 -168 106l-16 26q-32 50 -92 64l-28 6q-67 14 -112 68q-44 52 -44 120v4v3v3v4v4v4q-0.121622 1.66216 -0.121622 3.3802q0 40.6603 68.1216 112.62q-90 18 -132 66t-42 126q0 56 44 112l24 28q34 44 46 90q2 8 0 30l-4 38v24
q0 70 56 126q58 58 124 58q48 0 108 -32q-8 32 -8 48q0 68 56 122t128 54q34 0 74 -14l34 -12q46 -20 61 -20h3q19 0 60 16l28 14q43 16 76 16h5h5h4h4h4h4q1.65517 0.0689655 3.32224 0.0689655q46.6778 0 102.678 -54.069q48 -46 56 -122q2 -18 -4 -56q24 15 48 22
q20 6 52 6h5h5h4h4h4h3q1.65625 0.0625 3.31348 0.0625q51.374 0 103.687 -60.0625q48 -55 48 -130v-12l-2 -42q-2 -30 -2 -36q0 -32 40 -78l16 -20q54 -60 54 -122q0 -74 -42 -124q-40 -48 -124 -72q56 -68 56 -134q0 -144 -148 -182l-30 -8q-74 -20 -102 -70l-16 -30
q-54 -94 -164 -94q-50 0 -93 28t-81 84zM1046 252q-4 -52 -4 -76v-24v-19v-16v-13v-11v-9q-0.363636 -3.72727 -0.363636 -7.70248q0 -39.7521 36.3636 -104.298q38 -68 114 -68q74 0 126 78l20 30q42 66 124 84l32 8q112 25 112 129v7q0 58 -82 138q-130 16 -214 62l16 46
q144 -62 240 -62q78 0 112 34q36 36 36 106q0 44 -40 90l-24 28q-49 60 -49 107q0 7 1 13q2 12 2 22l2 34v24q1 7 1 13q-2 48 -37 85q-38 40 -92 40q-16 0 -60 -12q-30 -8 -66 -34q-56 -106 -122 -178l-40 30q140 165 140 268v5v4v4v3v3v4q0.195652 1.69565 0.195652 3.4551
q0 25.2188 -40.1957 63.5449q-40 38 -96 38q-22 0 -56 -14l-34 -12q-46 -20 -74 -20q-26 0 -80 22l-30 12q-42 14 -64 14h-5h-4h-4h-4h-3h-3q-0.714286 0.0238095 -1.43481 0.0238095q-29.5414 0 -69.5652 -40.0238q-38 -38 -38 -102q0 -28 6 -74q72 -70 136 -176l-40 -28
q-138 226 -246 226q-62 0 -100 -44t-38 -106v-6l4 -36v-28q0 -56 -54 -120l-22 -28q-38 -44 -38 -92q0 -52 44 -92t130 -62q86 48 214 80l14 -48q-173 -49 -236 -92q-60 -41 -60 -110v-4q0 -112 112 -136l34 -8q82 -20 126 -88l20 -30q46 -74 124 -74q38 0 78 30
q38 28 70 88q-14 70 -14 154q0 34 6 74h52zM1026 402l-24 -54l-44 10l2 56l-66 -76l-40 28l52 90l-56 -20l-22 44l42 36l-54 2l-6 46l56 14l-96 40l16 46l100 -22l-34 48l34 34l44 -32l-14 54l46 20l28 -46l8 100h50l8 -100l34 46l44 -20l-14 -54l46 30l32 -34l-36 -44
l100 24l14 -46l-92 -40l54 -16l-6 -50l-54 -2l44 -34l-24 -42l-52 20l56 -86l-42 -30l-66 74l-2 -58l-46 -8zM1026 416q62 0 104 42q44 44 44 101v5q0 58 -44 104q-42 44 -104 44q-64 0 -106 -44t-42 -104v-5v-5v-5v-4v-4v-3q-0.0869565 -1.56522 -0.0869565 -3.14367
q0 -34.7259 42.087 -75.8563q44 -43 106 -43zM1023 502q-60 0 -60 62q0 60 60 60t60 -60q0 -62 -60 -62z" />
    <glyph glyph-name="quote1" unicode="&#x127;" 
d="M1681 1121v-173q-216 0 -238 -278h238v-551h-552v397q0 302 129 443.5t423 161.5zM922 1121v-173q-213 0 -241 -278h241v-551h-555v397q0 302 130.5 443.5t424.5 161.5z" />
    <glyph glyph-name="quote2" unicode="&#x128;" 
d="M367 116v171q213 0 238 277h-238v552h555v-398q0 -300 -132 -442.5t-423 -159.5zM1129 116v171q213 0 235 277h-235v552h552v-398q0 -300 -130.5 -442.5t-421.5 -159.5z" />
    <glyph glyph-name="hour" unicode="&#x129;" 
d="M1024 -196q-304 0 -522 216t-218 518v6q0 304 218 522t517 218h5q308 0 524 -218t216 -524t-216 -522t-524 -216zM1024 -148q288 0 490 202t202 490q0 286 -202 488t-490 202t-488 -202q-202 -204 -202 -488q0 -288 203 -490t487 -202zM1024 1184l88 -172h-50v-330
l66 114l-44 24l162 106l-10 -192l-44 24l-130 -226v-100h-74l-48 30l48 86v464h-48zM462 508h-68v68h68v-68zM1588 508v68h68v-68h-68zM992 -18h68v-68h-68v68zM520 796l-58 32l34 60l60 -34zM1494 232l34 60l60 -34l-36 -58zM1276 1048l36 58l58 -34l-34 -60zM716 74
l58 -34l-34 -60l-60 36zM714 1014l-34 58l60 34l32 -58zM1276 40l60 34l32 -58l-56 -36zM1496 854l58 34l34 -60l-58 -32zM522 292l34 -60l-60 -32l-32 58z" />
    <glyph glyph-name="agree" unicode="&#x12a;" 
d="M1494 72h-150q-102 -116 -222 -172q-46 -4 -56 -4q-66 4 -116 20l-36 -20h-44q-154 0 -154 74q0 15 6 32q2 5 4 18q-84 6 -108 104q-2 8 0 28q-40 10 -60 35t-20 63q0 30 22 66q-54 58 -54 128q0 86 88 134q90 50 236 50h26q-12 88 -54 172l-16 28q-52 100 -52 154v7v7v6
v6v6v6q-0.097561 2.68293 -0.097561 5.32302q0 105.604 156.098 142.677l28 8l52 -224l184 -196q20 -22 66 -84l28 -38q46 -62 64 -75t58 -13h118q54 -114 54 -236q0 -118 -48 -238zM1460 124q30 92 30 176v10v9v9v8v7v6q0.111111 2.66667 0.111111 5.4784
q0 47.7994 -32.1111 137.522q-124 0 -160 16q-46 20 -96 104q-12 20 -76 100l-200 212l-40 186q-100 -33 -100 -128v-5v-5v-4v-4v-4v-3q-0.111111 -1.27778 -0.111111 -2.66358q0 -23.5586 32.1111 -78.3364l14 -22q78 -130 78 -248v-28h-36q-152 0 -238 -32
q-80 -30 -80 -94q0 -60 42 -100t100 -40h62l182 82q-42 62 -112 62q-16 0 -44 -8t-68 -24l-46 -2l-46 50h80q44 20 64 24q28 6 52 6q128 0 188 -130l-34 -16q62 -32 98 -108l-40 -16q46 -30 84 -100l-60 -28q50 -38 80 -106l-122 -54q30 -8 50 -8l40 2q132 78 216 186h138z
M1004 270q-34 46 -84 60l-150 -66h-52q-76 0 -114 20q-16 -20 -14 -34q4 -30 32 -46t92 -16h104zM1046 152l-8 12q-24 28 -56 44l-154 -68h-162l-4 -12q0 -60 118 -60h74zM1066 18q-6 10 -10 14l-48 48l-142 -64h-92v-4q0 -68 96 -68h32z" />
    <glyph glyph-name="victory" unicode="&#x12b;" 
d="M1453 1264v-31q0 -18 -34 -139l-100 -380q8 -70 8 -198l2 -44q30 -86 36 -154q-48 -142 -152 -308v-144q-127 -52 -225 -52h-7q-126 0 -234 52v112q-36 38 -80 88q-58 144 -58 300v48q-14 44 -14 60v21q-2 29 19 54t47 25t56 -10q-12 45 -12 76q1 98 106 98q46 0 86 -54
v74l-112 420q-34 128 -34 149v28v4v4q0 28 28 55q27 26 75 26h7q86 0 128 -176l112 -454l112 344q66 198 146 198q44 0 69 -27t25 -65zM1059 784l-118 480q-32 134 -84 134q-24 0 -41 -15t-17 -50t5 -40t10 -29t13 -50l124 -466l224 -32q62 -70 102 -148v158l96 384
q30 118 30 147q0 51 -38 51h-6q-27 0 -43 -24q-14 -21 -51 -128l-128 -380zM1125 550l-2 -103q0 -22 14 -91h-48q-16 60 -16 124v22q-70 14 -116 48l38 -96q20 -50 20 -78q0 -110 -102 -110q-26 0 -60 22q-12 -92 -88 -92h-14q-34 0 -66 56l-22 36q20 -142 29 -160t13 -34
l92 -106v-88q102 -34 190 -34t182 34v130q71 104 148 296q-8 22 -10 36q-19 138 -156 310l-204 28q0 -140 178 -150zM819 436q50 -120 98 -120t48 52t-44 132l-40 102q-36 88 -72 88q-24 0 -40 -16q-13 -13 -14 -43q-0.0384615 -1.42308 -0.0384615 -2.88609
q0 -36.5754 24.0385 -98.1139zM771 248q42 0 42 50q0 32 -32 104l-26 60q-28 66 -66 66q-46 0 -46 -46q0 -20 24 -74l38 -90q30 -70 66 -70z" />
    <glyph glyph-name="halt" unicode="&#x12c;" 
d="M1344 1304q6 0 24 1t43 -22t25 -72t-16 -111l-124 -484q8 -32 16 -104q32 18 88 38q83 138 202 138q52 0 142 -72l20 -16l-216 -204l-184 -246q-110 -102 -196 -162v-142q-128 -52 -244 -52t-224 52v110l-88 100q-76 142 -106 366l10 120l-190 332q-42 73 -42 120v10
q0 32 25 57q27 27 65 27h2q56 0 101 -76q10 -17 183 -300l-108 408q-20 76 -20 104q0 112 98 112q85 0 122 -128l120 -420v480q0 75 29 116q28 40 78 40h5q110 0 110 -176l-10 -480l124 372q55 164 136 164zM372 1038q-35 0 -40 -37l-2 -14v-16q2 -11 38 -71l200 -344
l-12 -134q32 -206 104 -346l92 -110v-86q89 -36 175 -36h9q78 0 184 36v132q136 106 218 188l168 224l186 174q-48 40 -92 40q-97 0 -164 -126q-176 -56 -296 -200l-38 28q60 92 164 148q-10 70 -26 128l126 472q20 75 20 104q0 60 -43 60q-44 0 -79 -104l-144 -428h-86
l12 490l2 32q0 126 -64 130q-2.61224 0.163265 -5.11787 0.163265q-58.8821 0 -58.8821 -90.1633l2 -62v-500l-78 -16l-126 460q-34 124 -83 124h-3q-52 0 -52 -64q0 -18 18 -84l134 -488l-72 -36l-218 354q-42 68 -70 68z" />
    <glyph glyph-name="awesome" unicode="&#x12d;" 
d="M1357 -110q-242 34 -413 180l-225 24l-288 121q73 154 207 154q29 0 63 -9.5t72 -29.5q76 23 126 35q12 64 12 99q-84 62 -136 121q-61 -35 -137 -66q-18 -199 -213 -199v296l232 216l-190 161q-132 110 -132 196q0 61 60 125l328 -239l-32 71q-42 93 -42 166
q0 100 116 152l221 -392l9 71q23 198 179 198q10 0 35 -2q-9 -69 -9 -165q0 -233 37 -515l476 -627q-107 -197 -256 -244zM1173 744q-25 193 -25 426q0 47 5 123q-63 -17 -88 -66t-25 -158q0 -31 6 -101zM1070 820l-324 574q-48 -32 -48 -84q0 -65 58 -190l49 -105z
M1047 779l-642 464q-17 -29 -17 -54q0 -72 143 -189l190 -155zM1374 -57l95 -105q119 75 183 194l-515 673l-439 98l-225 -207l1 -223q114 26 114 146q0 16 -1 36q111 36 194 94q74 -80 182 -166q0 -71 -28 -162q-44 -8 -83 -19q-59 -18 -90 -25q-30 21 -60.5 31.5
t-61.5 10.5q-80 0 -134 -81l228 -96l225 -21q180 -160 415 -178z" />
    <glyph glyph-name="disagree" unicode="&#x12e;" 
d="M1314 90v-32v-6q0.097561 -2.68293 0.097561 -5.32302q0 -105.604 -156.098 -142.677l-28 -8l-52 224l-184 196q-20 22 -66 84l-28 38q-46 62 -64 75t-58 13h-118q-54 114 -54 234t48 240h150q102 116 222 172q24 2 46.75 2q68.25 0 125.25 -18l36 20h44q154 0 154 -74
l-10 -50q84 -6 108 -104q2 -8 0 -28q80 -20 80 -98q0 -30 -22 -66q54 -58 54 -136t-89 -127t-235 -49h-26q12 -88 54 -172l16 -28q52 -100 52 -154zM1342 600q-66 -30 -116 -30q-128 0 -188 130l34 16q-62 32 -98 108l40 16q-46 30 -84 100l60 28q-50 38 -80 106l122 54
q-30 8 -50 8l-40 -2q-132 -78 -216 -186h-138q-30 -92 -30 -145v-74v-6q-0.111111 -2.66667 -0.111111 -5.4784q0 -47.7994 32.1111 -137.522q124 0 165 -18t91 -102q12 -20 76 -100l200 -212l40 -186q100 33 100 128v22v16t-32 68l-14 22q-78 130 -78 248v28h36
q318 0 318 126q0 60 -42 100t-100 40h-62l-182 -82q42 -62 112 -62q32 0 112 32l46 2l46 -50h-80zM1044 802q34 -46 84 -60l150 66h52q76 0 114 -20q16 20 13 42q-7 54 -123 54h-104zM1002 920q24 -36 64 -56l154 68h162l4 12q0 60 -118 60h-74zM982 1054q6 -10 10 -14
l48 -48l142 64h92v4q0 68 -96 68h-32z" />
    <glyph glyph-name="web2" unicode="&#x12f;" 
d="M2050 771l-116 -38q-123 -227 -206 -476q-80 -241 -134 -534l80 -111l-46 -34l-60 82q-274 51 -544 51t-544 -51l-60 -82l-46 34l80 111q-55 294 -134 534q-81 245 -206 476l-116 38l18 54l112 -36q264 145 470 295q211 154 398 353v108h56v-108q181 -192 398 -353
q194 -144 472 -295l110 36zM1850 766q-243 132 -438 274q-182 133 -360 316v-222q86 -97 278 -237q183 -134 314 -198zM1572 675q-115 59 -280 178q-149 108 -240 200v-187q70 -80 154 -142t174 -111zM1858 708l-212 -68q-65 -117 -134 -328q-69 -210 -90 -353l128 -175
q50 269 124 495q66 203 184 429zM1310 590q-76 43 -142 90q-56 40 -116 103v-276zM1570 615l-180 -59q-90 -155 -132 -372l120 -163q21 131 80 313q54 165 112 281zM996 1134v222q-181 -185 -360 -316q-190 -139 -438 -274l206 -67q131 64 314 198q194 142 278 237z
M1312 531l-248 -80l152 -208q19 93 40 157q19 61 56 131zM996 866v187q-93 -94 -240 -200q-168 -121 -280 -178l192 -62q90 49 174 111t154 142zM996 507v276q-60 -63 -116 -103q-67 -48 -142 -90zM1184 189l-160 219l-160 -219q88 14 160 14t160 -14zM984 451l-248 80
q34 -65 56 -131q21 -64 40 -157zM1344 -30l-112 153q-104 22 -208 22t-208 -22l-110 -153q132 20 318 20t320 -20zM790 184q-18 89 -52 194q-29 90 -80 178l-180 59q60 -122 112 -281q59 -182 80 -313zM1522 -275l-132 180q-134 27 -366 27t-366 -27l-130 -180
q262 43 496 43t498 -43zM626 -41q-23 150 -90 353q-71 214 -134 328l-212 68q116 -221 184 -429q74 -226 124 -495z" />
    <glyph glyph-name="world" unicode="&#x130;" horiz-adv-x="3072" 
d="M2832 884l-60 -24l-13 17l53 25zM2753 839l-47 -73l-72 -37l-20 24l73 41l24 70zM2742 684l-25 -18l-22 66l16 -3zM2779 396l-145 30l-5 52l137 -34zM2988 114l-53 -63l-24 4l-7 35l64 69l-26 39l15 21l24 -36zM2596 486l-28 -49l-24 4l24 55zM2544 496l-29 -55l-51 13
l3 42l46 45zM2990 1030l-97 -10l5 -35l-60 -76l-11 70l33 41l-112 -11l-66 -34l-6 -28l46 11l2 -66l-31 -4l-11 -31l-61 -42l8 -28l-39 -27l-16 48l-26 -14l7 -97l-119 -69l31 -45l-51 -31l-22 41l-11 -4l11 -45l42 -27l-13 -15l-29 8l7 -21l24 -3l15 -42l62 -24l4 -21
l-72 13l-102 111l42 -3l-59 129v35h-18l-6 -32l-60 -45v-42l-44 -13l-28 79l-20 7l2 46l-167 31l28 -45l29 9l31 -30l-31 -39l-75 -27l-75 146h-22l-2 -29l51 -103l39 -29l60 5l-108 -156l13 -15l5 -51l-33 -25l-3 -38l-83 -101l-66 4l-60 160l18 24v42l-48 58l19 14l-48 31
l-97 3l-55 50l-4 106l125 108l71 7l17 -20l-4 -18l55 -17l28 24l20 -18l77 -3l13 14v42l-30 -42l-42 55l6 -55l-37 28l-7 42l-46 54l-9 -9l38 -52l-24 -35l-11 42l-42 31l-24 -21l-14 7l-79 -73l-28 77l55 -4l11 25l-22 20l35 28l22 3l37 35l-11 28l22 10l13 -21l71 4l2 20
l77 29l-13 16l-49 -16l-15 31l35 27l-20 21l-46 -58l18 -15l-5 -35l-44 -13l-11 27l-48 -6l4 42l80 106l85 21l132 -31l-24 -35l-50 5l33 -36l101 66h66l-44 52l50 53l73 31l11 -24l-68 -25l-40 -41l79 -49l-13 24l49 42l88 -21l13 28l156 59l108 -24l-79 -45l246 -25l42 41
l20 -37l118 -11l33 -18l97 11v-132zM2819 253l-60 -111l-48 4l-95 69l-2 -17l-114 -25l13 49l-24 10v59l149 97l68 -45l5 38l20 4zM1595 954l-2 -28h-48l13 28l-31 35l24 24l14 -34zM1499 1085l-62 -45l-37 56l68 18zM1694 785l-19 8l13 21zM1485 1339l-41 -35l-7 -87
l-64 -96l-99 -31l-24 -60l-46 4l-51 80l-22 107l-42 32l-44 -15l-24 32l75 94l312 38zM1534 943l-20 -24l-24 21l20 35zM1996 367l-31 -100l-46 31l13 45l46 35zM1010 673l-28 14v24zM1111 607l-17 -7l-88 31l6 18zM988 659l-6 -21l-53 11l4 26zM1316 417l-29 -32l-6 -63
l-211 -226q11 -20 6 -45l-28 -27l24 -31l-20 -24l-55 61v102l33 198l-44 21l-48 121l19 30v36h-48l-20 41l-28 -3l-97 55l-31 39h-40l-103 138l4 69l-35 52l-24 -6l-18 35l20 -4l-50 55l-71 11l-167 -83l59 58l-41 32l-18 118l70 35l333 -35l-62 45l13 59l335 128l127 -7
l-114 -128l152 -125l-49 -51l-90 16l11 56h-31l-13 -38l9 -34l-68 6l-36 -48l25 -21l48 -14l46 -52l16 52l-9 11v51l108 -17l85 -105l-121 -69v-38l-22 4l-19 -21l4 -28l-51 -41l16 -46h-24l-22 31h-75l-29 -51l29 -28h13l26 17l18 -10l-7 -39l29 -3l7 -42h48l48 21l36 -13
l63 -2l5 -43h53l6 -50h35zM240 1079l-105 3l-25 -10l29 -27l-57 -15v132l141 -56zM385 638l-13 -25l-48 32l-33 -17l-75 45l7 21l85 -35l36 17zM192 718l-40 -24l-20 45zM583 270l-22 -21l-30 21l22 21zM528 301l-24 -13l-33 21l24 31zM2090 833l-4 28l-18 -2l3 -28z
M2027 788l-22 45l19 26l-11 11l-19 -16l4 -73zM1921 835l-26 40l-25 5l3 -19l-20 -2l-18 23l-31 -39l5 -24l28 21h22q0 1 62 -5z" />
    <glyph glyph-name="planet" unicode="&#x131;" 
d="M1898 614q0 -357 -258 -608t-614 -251h-2q-358 0 -616 251q-257 250 -258 608q-0.00384615 1.37308 -0.00384615 2.74462q0 355.228 258.004 607.255q256 250 612 250h4q361 0 616 -249q258 -251 258 -611zM1840 608v31l-234 25h-2h-1h-1h-2
q-0.769231 0.0769231 -2.08284 0.0769231q-15.7633 0 -109.917 -11.0769l44 -87l-116 -41l-64 148l-22 -12q56 -103 62 -198q-58 -69 -116 -140v-8v-7q1.33333 -18.3333 1.33333 -37.8056q0 -97.3611 -33.3333 -223.194l-116 -99l-82 54q-10 174 -58 350l-70 99l-156 37
l-40 95l26 136q68 20 196 73q31 -22 76 -28q28 -4 78 -11q2 -1 114 -32q65 -18 116 -21l36 90h-44l-26 139l-112 5l6 -45l56 -72l-44 22l10 -33l-78 -19l30 22l-22 64l-54 38l-40 -38l-62 11l-36 -67l-68 34l52 64l80 22l34 49l116 53l26 30l26 108l-70 -36l32 -18l-50 -46
l-18 50l-26 -40l-76 65l162 141h134l14 78q-136 50 -280 50h-6.5h-7.5h-5h-7q-2.91304 0.0217391 -5.81285 0.0217391q-130.491 0 -234.187 -44.0217q24 -18 24 -41q0 -11 -22 -16l-30 -6q-33 -7 -86 -47q-40 -31 -80 -121q-29 -66 -64 -68q-21 -1 -38 36q-16 35 -18 36
q-20 8 -60 -17q-70 -44 -136 -212q-65 -166 -66 -320q-0.0163934 -2.7541 -0.0163934 -5.50141q0 -332.425 240.016 -565.499q240 -233 580 -233q338 0 582 236t244 575zM1056 1050l-40 -42l-38 4l34 41l-22 8l-24 44l12 35zM880 1173l-30 -23l-50 -7l20 64h48zM952 1046
l-26 -30l-12 34l18 30zM1102 820l-4 -37l-34 37h38z" />
    <glyph glyph-name="aid" unicode="&#x132;" 
d="M1009 1244h-136l27 125h88zM1861 123h-47v86q0 99 -67 169.5t-161 70.5t-160.5 -70.5t-66.5 -169.5l-1 -86h-621v1098h1124v-1098zM1777 198q0 -82 -55.5 -140t-132.5 -58q-78 0 -133 58t-55 140t55 140t133 58q77 0 132.5 -58t55.5 -140zM702 329q-64 120 -188 120
q-94 0 -160.5 -70.5t-66.5 -169.5v-86h-100v528q0 82 105 82h39l101 245q21 50 75 50h195v-699zM702 198q0 -82 -55 -140t-133 -58t-133 58t-55 140t55 140t133 58t133 -58t55 -140zM1655 655v287h-202v202h-287v-202h-203v-287h203v-203h287v203h202zM669 733v242h-205
l-92 -242h297z" />
    <glyph glyph-name="notebook" unicode="&#x133;" 
d="M1492 1023l-46 -106l-592 75l52 96l112 -10q69 140 108 186q81 97 176 97h4q52 0 84 -31q30 -29 32 -74q1 -18 -10 -50q-2 -6 -68 -166zM1874 772l-638 -940l-1044 292l-18 49l646 1008l234 -18l-10 -18l-208 20l-604 -983l960 -243l474 1143l-260 26l-42 -52l28 70
l46 -3q13 22 8 32q-6 13 -36 15l10 23q12 -1 26 -5q29 -9 34 -30q4 -17 -6 -40l226 -21l10 -34l-102 -264zM1356 1206q9 24 10 50q0.0526316 1.65789 0.0526316 3.27216q0 59.7278 -72.0526 59.7278q-96 0 -146 -97zM1444 963l-558 61l-6 -11l556 -66z" />
    <glyph glyph-name="anonymous" unicode="&#x134;" 
d="M1254 1080q34 -17 27 -45q-7 -29 -46 -22l-83 33q-10.4681 3.06383 -23.2829 3.06383q-37.3766 0 -94.7171 -26.0638l-20 -9q-35 -8 -46 23q-5 26 26 41q90 40 135 40t125 -38zM1402 1014q-35 -8 -46 23q-5 26 26 41q83 39 128 39q41 0 132 -40q34 -15 26 -42
q-9 -29 -45 -22l-83 33q-10.7234 3.06383 -23.6632 3.06383q-37.7411 0 -94.3368 -26.0638zM712 268q58 2 69 4q44 5 100 22q27 8 132 77q43 28 50 9q3.84314 -10.1569 3.84314 -23.8554q0 -36.2034 -26.8431 -97.1446q-36 -82 -114 -112
q-21.9697 -8.49495 -46.5136 -8.49495q-59.244 0 -133.486 49.4949q-45 30 -54 53q-9 26 20 27zM744 548q1 -31 -34 -37l-88 3q-37 -4 -97 -60l-16 -15q-29 -15 -49 6q-13 21 10 45q59 63 104 79q33.5667 12.0333 77.5622 12.0333q25.4711 0 54.4378 -4.03333q37 -5 38 -29z
M1054 707q40 -4 43 -30q3 -30 -35 -36l-88 1q-46 -5 -97 -59l-15 -16q-30 -15 -50 6q-13 22 10 46q62 62 106 79q29.92 11.56 77.4112 11.56q22.3488 0 48.5888 -2.56zM849 1044h-3q-4 0 -8 1q-36 -147 -113 -178q-15.4074 -6.25926 -32.2058 -6.25926
q-18.0905 0 -37.7942 7.25926q-31 -75 -103 -101q-20.1143 -7.31429 -40.6465 -7.31429q-24.382 0 -49.3535 10.3143q-43 17 -69 57q-41.2857 63.1429 -41.2857 136.771q0 17.3243 2.28571 35.229q4 29 22 92q17 58 24 88q3.24051 13.7722 3.24051 26.1497
q0 48.7364 -50.2405 75.8503l1 5q52 -11 69 -46q12.8 -26.4 12.8 -58.56q0 -8.04 -0.8 -16.44q-4 -38 -15 -93q-12.8571 -62.1429 -12.8571 -110.694q0 -64.7347 22.8571 -105.306q35.631 -63.4405 96.9402 -63.4405q9.23838 0 19.0598 1.44048q71 14 95 80q-21 10 -49 31
q-104 76 -124 161q-5.23636 22.9091 -5.23636 45.3421q0 80.3851 67.2364 154.658q48 53 122 80q38.4583 14.0833 72.809 14.0833q29.066 0 55.191 -10.0833l-1 -5q-51 0 -112 -35q-58 -33 -99 -83q-58.2362 -70.4252 -58.2362 -142.685q0 -34.4493 13.2362 -69.3154
q21 -54 78 -97q20 -15 45 -22q1.16667 8 1.16667 16.25q0 41.25 -29.1667 88.75q-25.8876 42.0674 -25.8876 78.0265q0 30.7151 18.8876 56.9735q28 39 87 41q3.5625 0.125 7.08984 0.125q52.9102 0 97.9102 -28.125q19 17 43 18h2q6 123 31 233
q180.544 -123.008 428.988 -123.008q2.00358 0 4.01158 0.008q253 1 431 117q31 -139 31 -289q0 -259 -206 -529q79 -85 87 -214q0.657895 -10.5263 0.657895 -20.5506q0 -66.16 -28.6579 -110.449q-32 -49 -61 -69q-48.403 -32.9701 -135.681 -32.9701
q-37.1397 0 -81.3188 5.97015q-47 6 -78 19q-27 11 -48 36q-26 -27 -28 -72q-0.166667 -3.83333 -0.166667 -7.61111q0 -41.5556 20.1667 -76.3889q35.9383 -62.2346 102.61 -62.2346q9.39034 0 19.3903 1.23457q76 10 139 73q11 11 51 61q42 53 70 81
q37.5429 38.0643 76.9889 38.0643q36.2039 0 74.0111 -32.0643l-2 -5q-30.2647 12.9706 -51.7552 12.9706q-13.3036 0 -23.2448 -4.97059q-28 -14 -46 -40q-19 -27 -48 -74q-62 -100 -119 -129q-60.7103 -31.4393 -114.663 -31.4393q-45.5804 0 -86.3374 22.4393
q-46 26 -68 77q-17.2857 40.4643 -17.2857 77.5332q0 57.2883 41.2857 106.467q-20.3462 34.5 -20.3462 74.4778q0 5.2145 0.346154 10.5222q-25 -96 -67 -196q-41 -98 -69 -146l-28 -49l-115 45q-346 154 -502 390q-106 160 -138 416q76.6889 -19.2667 157.945 -19.2667
q133.833 0 280.055 52.2667q92 33 176 88q-31 88 -39 172zM661 894q2.77844 -0.191617 5.5305 -0.191617q54.697 0 98.9695 75.6916q46.5 79.5 48.5 83.5q-29.8226 20.8065 -29.8226 49.7901q0 12.8067 5.82258 27.2099q-37.6957 12.5652 -67.1966 12.5652
q-10.4121 0 -19.8034 -1.56522q-62.9593 -10.7317 -62.9593 -67.0194q0 -22.3871 9.95935 -51.9806q15.1143 -44.6857 15.1143 -85.9167q0 -21.5118 -4.11429 -42.0833zM1255 355q-9.33333 -45.3333 -9.33333 -81.3333q0 -18 2.33333 -33.6667q28 20 58 30q78 26 89 64
q5 17 -5 44l-80 -70q-3 3 -55 47zM1267 412q22 -21 43 -39q26 23 53 49q-25 29 -56 50q-12 -23 -34 -31q-2 -6 -6 -29zM1254 215q24 -51 116 -66q13.5 -2.25 27.375 -2.25q41.625 0 86.625 20.25q58 26 86 78q27 50 27 137q0 86 -46 171q-54 -70 -129 -144
q23.5849 -39.1509 23.5849 -71.8494q0 -36.6223 -29.5849 -65.1506q-31 -30 -73 -36q-65 -8 -89 -21zM1006 -39q155 279 169 535q1.33333 24 1.33333 47.1111q0 115.556 -33.3333 208.889q-38 107 -87 194q-128 -135 -304 -200q-173 -64 -321 -64q-49 0 -97 6
q19 -98 55 -199q94 -261 448 -449q92 -49 169 -79zM1389 447q335 335 335 658q0 106 -17 211q-175.055 -89.011 -391.192 -89.011q-2.40152 0 -4.80811 0.010989q-221 1 -397 93q-15 -87 -17 -180q10.7561 -17.9268 10.7561 -35.329q0 -16.5735 -9.7561 -32.671
q5 -86 33 -170q80 61 131 130q86 -133 129 -266q60 47 119 48q1.80198 0.039604 3.59769 0.039604q88.8875 0 162.402 -97.0396q38 -49 39 -82q1 -21 -48 -9q-115 29 -157 29q-41 0 -90 -12q4 -37 6 -73q8.39024 1.56098 16.1713 1.56098q32.097 0 53.8287 -26.561
q17 -21 17 -50q43 -16 76 -48z" />
    <glyph glyph-name="library" unicode="&#x135;" 
d="M1866 836q0 -64 -25 -136q-27 -77 -62 -101l56 -16v-64l-46 -15q-8 -29 -17 -97v-8v-7v-6v-6v-5v-4v-4q-0.0526316 -1.84211 -0.0526316 -3.76454q0 -34.6039 17.0526 -95.2355l46 -21v-61l-904 -458l-584 501q-94 81 -94 258v18q0 59 26 87q13 15 61 38q35 17 215 50
l-156 73v50l60 16q19 72 19 146q0 17 -3 48l-293 63v50l38 5q21 55 21 131q0 77 -21 133h-38v37l522 59l926 -60q66 -5 109.5 -57.5t43.5 -136.5q0 -114 -111 -172h7h7h6h6h5h5h4q2.08333 0.0416667 4.13368 0.0416667q47.158 0 76.8663 -22.0417q31 -23 53 -93
q20 -63 20 -114zM1819 833v4v4v4v4v4v3v3q0.0285714 1.45714 0.0285714 2.92082q0 49.7649 -33.0286 107.079q-29 51 -64 51h-5l-562 -67q35 -91 35 -201q0 -117 -36 -238l594 140q27 6 48 59q23 58 23 120zM860 1262v7v6v6v5v5v4v4q0.0769231 1.88462 0.0769231 3.77367
q0 47.2263 -48.0769 97.2263q-43 45 -103 45q-9 0 -17 -1l-456 -42q22 -63 22 -140q0 -76 -22 -147l423 -68q12 -2 24 -2q72 0 123 61q54 62 54 156zM1173 752q0 110 -36 201l-172 32q-172 -24 -240 -24q-17 0 -26 2l-207 45q3 -33 3 -50q0 -74 -25 -164l667 -280
q36 121 36 238zM1782 236q-24 78 -24 158v6q0 37 16 99l-825 -282q-20 -66 -20 -156q0 -108 22 -213zM929 -152q-21 105 -21 213q0 90 21 156l-520 342q-23 15 -45 15q-57 0 -57 -89v-6q0 -132 57 -177z" />
    <glyph glyph-name="alien" unicode="&#x136;" 
d="M1639 877q0 -281 -115 -551q-99 -232 -251 -389q-143 -147 -249 -147t-249 147q-152 157 -251 389q-115 270 -115 551q0 264 154 426q165 174 461 174t461 -174q154 -162 154 -426zM1450 679q-57 -10 -103 -25q-113 -37 -153 -88q-52 -67 -56 -226q26 8 98 23
q102 21 151 66q63 58 63 250zM911 340q-4 161 -57 226q-66 81 -256 113v-81q0 -81 64 -153q64 -73 249 -105z" />
    <glyph glyph-name="institution" unicode="&#x137;" 
d="M977 1182q0 21 29 34q10 4 31 4t34 -29q4 -10 4 -31t-29 -34q-10 -4 -31 -4t-34 29q-4 10 -4 31zM1826 258v-112h108v112h-108zM110 258v-112h108v112h-108zM347 1066h1355l-676 204zM368 1036v-72h1312v72h-1312zM58 47v77l26 24v105l-27 31h177l97 -36l25 -2l6 24v578
l-12 51h97l-13 -51v-578l13 -50h81l14 50v578l-14 51h98l-14 -51v-578l14 -50h81l13 50v578l-13 51h97l-13 -51v-578l13 -50h82l13 50v578l-13 51h97l-13 -51v-578l13 -50h82l13 50v578l-13 51h97l-12 -51v-578l12 -50h82l13 50v578l-13 51h98l-13 -51v-578l13 -50h82l12 50
v578l-12 51h97l-13 -51v-578l13 -50h81l14 50v578l-14 51h98l-14 -51v-578l6 -24l26 2l96 36h177l-27 -31v-105l26 -24v-77h-1932zM1696 1043v-124h-1344v117h-41v20l-29 44l744 216l740 -216l-28 -44v-13h-42zM296 101h1456l-46 36h-35h-1327zM2015 12v-55h-1982v55h1982z
" />
    <glyph glyph-name="trophee" unicode="&#x138;" 
d="M644 815v8v4q0 49 -126 84q-198 55 -236 76q-128 69 -128 208v2q0 92 66 148q46 39 152 69q18 16 30 47h50q6 -64 120 -64h4l2 24q78 75 446 75q366 0 446 -75l2 -24h20q98 0 104 64h50q12 -31 30 -47q103 -30 160.5 -76t57.5 -141q0 -141 -128 -210q-39 -21 -236 -71
q-122 -31 -122 -99v-1q0 -73 54 -87q4 -1 9 0h10h11q57 0 60 73q45 -2 45 -52q0 -11 -2 -22q-6 -32 -49 -56q-45 -26 -93 -26h-7q-47 0 -80 23q-22 -166 -242 -233v-36h24v-25h48q15 -7 14 -23.5t-14 -30.5h-46v-23h-26v-38q0 -75 14 -120q98 0 98 -42h4q76 0 76 -89
q0 -10 -93 -25t-205.5 -15t-199 15t-86.5 25v41q-1 4 -1 7q7 41 79 41h2v2v2q0 38 100 38q12 43 12 114v44h-26v23h-44q-17 17 -16 32t16 22h46v25h24v36q-220 66 -242 233q-34 -24 -85 -24t-95 22t-44 66v2q0 65 40 65v-4q-8 -17 -8 -28v-21q0 -15 66 -15q88 0 88 83z
M1754 1235q0 111 -122 111q-110 0 -122 -111q-1 -9 0 -19l-36 -19l-46 84q-34 -142 -48 -323q37 30 146 71q115 43 154 71q74 52 74 135zM1380 1423q-8 14 -166 30q-129 13 -190 13q-128 0 -276 -24q-37 -6 -78 -16q-2 0 -2 -3q0 -11 94 -23q132 -17 262 -17q78 0 190 9
q160 13 166 31zM1410 1388q-46 -2 -108 -25q-24 -9 -22 -25q2 -17 2 -78q0 -58 -2 -151t-2 -229v-5v-5v-5q0 -278 -222 -347q173 6 232 175q34 97 34 295v22v18v18v15q0 99 12 146zM1000 556q-140 72 -140 386v22q0 66 7 190q7 128 7 189l-56 8q18 -70 18 -134v-15v-9
q1 -11 -2 -62q-2 -34 -2 -71v-15q0 -466 168 -489zM992 518q-92 28 -142 150q-40 97 -40 212l-2 458q0 17 -22 22q-48 11 -148 28q55 -83 74 -181q13 -70 14 -197q1 -221 34 -317q59 -169 232 -175zM668 958q-16 181 -48 323l-46 -84l-36 19v21v8v8q1 8 1 15q0 78 -121 78
q-124 0 -124 -109v-2q0 -83 72 -135q40 -29 156 -71q107 -39 146 -71zM328 1006q-120 57 -120 189v4q0 83 72 150q-48 -11 -78 -58q-26 -41 -26 -92v-4q0 -64 46 -116q43 -49 106 -73zM1272 51l-136 -3q-76 -2 -114 -2q-42 0 -123 2.5t-121 2.5q106 -26 244 -26
q142 0 250 26zM1772 1305q14 -42 14 -78v-5q0 -87 -118 -169q53 0 104 49q50 48 50 100v2q0 77 -50 101z" />
    <glyph glyph-name="eye" unicode="&#x139;" 
d="M1882 662q-77 -139 -189 -237q-269 -238 -668 -238t-669 238q-112 98 -190 237q78 139 190 238q270 238 669 238t668 -238q112 -99 189 -238zM1719 662q-49 86 -119 154q-168 162 -414 203q107 -46 172 -141q66 -98 66 -216q0 -117 -64.5 -213t-169.5 -143
q362 62 529 356zM1341 662q0 128 -93 219t-224 91q-69 0 -131 -28l-33 75q-363 -62 -531 -357q49 -86 118 -153q167 -161 410 -203q-105 47 -169 143t-64 213q0 71 25 138l80 -25q-22 -55 -22 -113q0 -129 93 -219.5t224 -90.5t224 90.5t93 219.5zM1264 662
q0 -97 -70.5 -166t-169.5 -69q-100 0 -170 69t-70 166q0 43 15 83l245 -111l-115 243q45 20 95 20q99 0 169.5 -69t70.5 -166z" />
    <glyph glyph-name="business" unicode="&#x13a;" 
d="M1431 1271q0 -51 -65 -138q-76 -103 -88 -135q-127 43 -242 43q-73 0 -151 -9q-94 182 -94 253q0 39 66 53q57 12 117 12l-16 -152l20 -4l56 180q41 12 160 12q69 0 142 -26q95 -34 95 -89zM1523 271q0 -139 -46 -241q-74 -163 -455 -163q-308 0 -440 142q-57 61 -57 212
q0 225 84 431q98 243 272 330q78 9 151 9q115 0 245 -44q113 -106 183 -313q63 -188 63 -363zM1155 613q-24 113 -117 133l5 42l-44 6l-5 -44q-68 -2 -111 -40q-45 -41 -45 -108q0 -84 119 -150l-26 -219q-74 19 -85 116l-78 -15q21 -146 154 -171l-8 -68l43 -6l9 70
q79 0 132 47.5t53 126.5q0 97 -142 179l20 163q47 -14 57 -76zM985 680l-17 -143q-49 33 -49 69q0 68 66 74zM1071 330q0 -91 -97 -101l25 200q72 -44 72 -99z" />
    <glyph glyph-name="newspaper" unicode="&#x13b;" 
d="M1814 856q98 -91 147 -184q-123 -68 -263 -188q-127 -109 -269 -255q-124 -128 -232 -251q-112 -128 -170 -200l-62 -77q-33.9062 -30.0312 -64.9971 -30.0312q-1.00293 0 -2.00293 0.03125q-23 1 -45 13q-12 6 -26 24l-705 905q-35 54 -35 106q0 44 25 88q14 25 44 65
q78 102 309 289q252 204 335 298q38 43 70 89q31 -46 235 -179q400 -260 651 -284q21 -2 42 -2h32q17 -30 18 -84q0.0277778 -2.22222 0.0277778 -4.43133q0 -77.3187 -34.0278 -138.569zM815 -101q332 232 606 511q362 369 362 591q0 12 -1 24q-257 9 -680 277
q-134 85 -224 159q-46 -57 -113 -121q-56 -54 -113 -102q-48 -41 -133 -109q-196 -157 -303 -276q-7 -7 -13 -16q-59 -80 -59 -123q0 -5 1 -9q8 -31 25 -58l610 -784q14 18 29 32l3 2zM648 1168l20 18l796 -610l-29 -25zM904 839l-284 -254l-286 296q55 64 122 126
q62 58 94 80l32 22zM198 734q7 29 25 53t33 34l14 9l649 -742l-112 -100zM880 691l98 87l368 -308l-113 -100zM684 516l98 87l339 -334l-112 -100zM894 1274l-104 -93l-26 19l144 130l31 -20l-46 -130l105 93l29 -18l-151 -136l-30 22zM1023 1011l-118 86l154 138l121 -77
l-28 -25l-88 56l-33 -29l79 -53l-28 -25l-78 54l-40 -36l88 -63zM1117 943l-33 24l114 180l40 -25l-71 -100l-22 -27l31 19l117 73l43 -27l-75 -103l-22 -28l32 20l127 72l44 -28l-231 -118l-38 27l78 104l26 34l-40 -25zM1551 932q36 -24 47 -53t-18 -59l-46 31q12 16 5 33
q-4 9 -23 22q-15 10 -35 13q-15 2 -27 -8q-8 -7 -4 -19q1 -4 22 -26l31 -33q18 -19 25 -39q8 -22 -18 -48q-22 -22 -60 -22h-6q-34 0 -82 33q-38 26 -48 61q-8 28 21 55l41 -29q-10 -14 -11 -22q-1 -12 27 -36q11 -9 29 -16q25 -9 41 5q10 9 5 20q-4 9 -22 28l-19 20
q-27 28 -33 44q-9 24 18 49q25 23 58 23h3q38 0 79 -27z" />
    <glyph glyph-name="medecine" unicode="&#x13c;" 
d="M1577 1226q134 -40 206 -68q-33 -33 -67 -33q-13 0 -27 5q-42 -36 -62 -36h-2q-10 0 -28 6q-28 -30 -48 -30q-14 0 -32 8q-30 -26 -54 -26q-14 0 -32 10q-28 -26 -48 -26q-10 0 -24 10q-23 -17 -46 -17q-27 0 -54 21q-24 -20 -50 -20q-10 0 -20 6q-16 8 -18 12l-20 20
q-14 14 -16 18q-10 -2 -18 2t-12 10t-10 18q-8 12 -10 16v68q64 8 84 14q8 2 10 6q6 8 6 10l2 8v12v12q-1 5 -1 7q4 33 49 51q20 8 47 8q56 -1 125 -36q30 -15 90 -38q58 -20 80 -28zM641 1292q60 37 117 37q29 0 57 -9q48 -15 48 -58v-10q-14 -18 18 -38q10 -6 82 -14v-68
l-8 -16t-10 -18t-12 -10t-18 -2q0 -4 -16 -18q-14 -12 -22 -18q-8 -8 -18 -14q-13 -7 -20 -6q-26 2 -50 20q-26 -21 -52 -21q-23 0 -46 17q-16 -10 -24 -10q-22 0 -50 26q-18 -10 -32 -10q-24 0 -54 26v0q-18 -8 -32 -8q-20 0 -48 30q-20 -7 -28 -6q-22 2 -62 36
q-14 -5 -28 -5q-35 0 -68 33q124 48 208 68q8 2 80 30q71 26 88 36zM1155 744q96 -55 96 -132v-10q0 -81 -110 -130q66 -41 75 -112q1 -8 -1 -18q-16 -80 -98 -114q40 -40 40 -82q0 -13 -4 -26q-17 -54 -78 -82q34 -28 34 -66v-4q0 -34 -20 -72q-18 -34 -26 -28q-12 10 0 38
q14 32 16 50q4 24 -36 52v-30q3 -36 2 -50q-2 -28 -2 -56q0 -20 -6 -48q-4 -18 -12 -18q-10 0 -14 18q-6 28 -6 46v56v52q2 26 2 28q-40 -28 -36 -50q2 -12 18 -50q12 -30 0 -38q-9 -7 -28 28q-20 38 -20 72v4v4q-0.105263 1.68421 -0.105263 3.36288
q0 30.2161 34.1053 58.6371q-61 27 -78 84q-4 13 -4 25q1 42 40 81q-86 36 -96 114q-1 8 -1 16v2q-0.012987 0.844156 -0.012987 1.68528q0 63.9251 75.013 110.315q-101 45 -112 132q-1 8 -1 12q6 79 97 128q-191 59 -191 143q0 22 13 45q25 44 106 54q17 2 33 2h4
q1.7 0.0333333 3.39 0.0333333q49.01 0 89.61 -28.0333q25 -17 4 -38q-12 -12 -46 -16q-48 -6 -62 -6q-30 0 -40 2q-50 10 -20 -30q14 -18 34 -26q34 -14 168 -46q-4 212 -8 426q17 -13 38 -13t46 13q0 -70 -4 -212t-4 -214l32 6q54 10 58 12q28 8 60 18t50 22t16 26
q-2 12 -34 14t-62 0q-27 -2 -44 2q-84 20 -32 54q42 27 105 30q22 1 47 -4q65 -13 78 -48q13 -34 13 -59v-7q0 -80 -191 -122zM1184 959q-4 7 -11 7.5t-17.5 -2.5t-12.5 -3q7 -5 13 -7q16 -6 28 5zM908 961q-31 16 -42 -2q-3 -5 11 -4q24 1 31 6zM996 539q0 25 -1 75t-2 75
q-30 -10 -55 -28q-26 -26 -19.5 -50.5t26.5 -42t51 -29.5zM1001 288q-1 40 -2 122q-31 -15 -55 -33q-16 -12 -16 -28q0 -28 73 -61zM1005 80l-2 108q-27 -13 -39.5 -36t5.5 -48q4 -5 36 -24zM1046 188l-2 -109q33 20 37 25q18 26 5.5 49t-40.5 35zM1051 411q-1 -35 -3 -123
q35 15 42 19q27 18 32 35t-14.5 33t-26 20t-30.5 16zM1056 689l-4 -149q59 27 74.5 56t-5 52t-65.5 41zM1093 1293.5q0 -26.5 -20.5 -45.5t-48.5 -19t-48.5 19t-20.5 45.5t20.5 45.5t48.5 19t48.5 -19t20.5 -45.5zM1023 1332q-1 2 -5.5 2t-11 -3t-10.5 -8q-6 -7 -9 -16
t1 -11q5 -1 9 7q6 11 10 13q2 1 5 2q13 4 11 14z" />
    <glyph glyph-name="yinyang2" unicode="&#x13d;" 
d="M1017 616q128 0 226 94t98 226v2q0 129 -92 221q-93 93 -224 93q-264 0 -450 -187t-186 -450t187 -449t449 -186q-132 0 -225 92t-93 225t91 226t219 93zM253 614q0 322 226 546q228 226 546 226h2q320 0 544 -226t224 -546q0 -322 -224 -544q-230 -228 -544 -228h-2
q-314 0 -542 226q-230 228 -230 546z" />
    <glyph glyph-name="balance" unicode="&#x13e;" 
d="M1894 406h52q0 -68 -98 -114t-232 -46q-128 0 -234 48q-98 44 -98 112h54l242 494q-90 8 -227 78t-203 86l-82 -846h130q0 -72 34 -122t100 -50v-148h-616v148q68 0 100 48q34 50 34 124h130l-82 846q-70 -20 -204 -86q-138 -70 -226 -78l242 -494h54q0 -68 -98 -114
t-223 -46h-11q-126 0 -232 48q-98 44 -98 112h52l246 502q-38 20 -38 60q0 28 22 50t48 22h4q1.7 0.1 3.37 0.1q31.73 0 52.63 -36.1q66 14 118 38q48 22 114 60q43 24 131 51q83 25 160 25h11q96 0 172 -24q78 -24 126 -52q70 -42 114 -60q64 -28 118 -38q20 34 60 36
q24 2 48 -21t22 -51q-2 -44 -38 -60zM674 406l-242 492l-242 -492h484zM1374 406h484l-242 492zM1122 1380q-48 6 -98 6t-98 -6q34 56 98 56t98 -56zM1134 1336q2 -8 2 -12q0 -44 -32 -76q-34 -34 -80 -34h-5q-2.38889 -0.111111 -4.74383 -0.111111
q-40.034 0 -70.2562 32.1111q-32 34 -32 78q0 8 2 12q4 7 88 7h22q108 0 110 -7z" />
    <glyph glyph-name="uni008F" 
d="M1880 388v266h40v-38q29 44 85 44q24 0 44 -9t30 -23t14 -33q2 -12 2 -44v-163h-45v162q0 28 -5 41t-18.5 21.5t-31.5 8.5q-29 0 -49.5 -18.5t-20.5 -69.5v-145h-45zM1600 521q0 74 41 109q34 30 84 30q55 0 89.5 -36t34.5 -99q0 -51 -15.5 -80.5t-45 -46t-63.5 -16.5
q-56 0 -90.5 36t-34.5 103zM1646 521q0 -51 22.5 -76.5t56.5 -25.5t56 25.5t22 77.5q0 49 -22.5 74.5t-55.5 25.5q-34 0 -56.5 -25t-22.5 -76zM1354 467l44 7q4 -27 21 -41t48 -14t46 12.5t15 29.5q0 15 -13 24q-9 6 -46 16q-50 12 -69 21t-29 25.5t-10 35.5q0 18 8.5 33
t22.5 25q10 8 28 13.5t39 5.5q31 0 55 -9t35 -24.5t15 -41.5l-44 -6q-3 20 -17 32t-41 12q-31 0 -44 -10.5t-13 -24.5q0 -9 5 -15q6 -7 18 -12q7 -2 39 -12q48 -13 67 -21t29.5 -23.5t10.5 -38.5q0 -22 -13 -42t-37.5 -31t-56.5 -11q-52 0 -78.5 21.5t-34.5 63.5zM1277 702
v53h45v-53h-45zM1220 285l8 38q14 -4 21 -3q14 0 21 9t7 46v279h45v-280q0 -49 -13 -69q-16 -25 -54 -25q-18 0 -35 5z" />
    <glyph glyph-name="uni0090" horiz-adv-x="8195" 
d="M783 56l-400 399v-223v-40q0 -129 -117 -177q-36 -15 -74 -15h-4q-124 0 -173 117q-15 36 -15 75v726q0 124 118 177q33 15 74 15h5q74 0 130 -56l399 -399v263q0 129 117 177q36 15 75 15h6q123 0 171 -117q15 -37 15 -75v-727q0 -121 -117 -176q-32 -15 -68 -15h-5h-5
q-74 0 -132 56zM840 113q34 -29 78 -32q19 -1 43 8q68 25 68 103v726q0 87 -79 107q-16 4 -32 4h-9q-72 0 -97 -79q-5 -16 -5 -32v-458l-537 537q-30 30 -78 32q-19 1 -43 -8q-68 -25 -68 -103v-726q0 -80 79 -106q15 -5 32 -5h9q72 0 97 78q5 16 5 31v460zM1372 81h726
q90 0 107 79q4 19 4 32q0 77 -79 106q-14 5 -32 5h-458l174 174q32 32 32 73v2v3q0 46 -32 79l-174 173h458q90 0 107 79q4 19 4 32q0 94 -79 107q-24 4 -32 4h-726q-71 0 -102 -68q-10 -22 -9 -43q2 -48 33 -78l284 -285l-284 -285q-33 -32 -33 -78q0 -24 9 -43
q31 -65 102 -68zM1373 0q-133 5 -179 118q-14 35 -14 75q0 77 57 134l227 228l-227 228q-56 56 -57 135q0 39 15 74q51 118 177 118h726q131 0 177 -117q15 -38 15 -75q0 -142 -117 -176q-52 -15 -75 -15h-263l36 -36q56 -56 56 -130v-3v-3q0 -82 -56 -136l-36 -35h263
q130 0 177 -117q15 -37 15 -75q0 -127 -117 -177q-35 -15 -75 -15h-725zM5565 1095q37 15 62 15h7h20q128 0 162 -117q15 -52 15 -75v-726q0 -121 -116 -177q-31 -15 -51 -15h-21q-80 0 -138 55l-400 400v-263q0 -132 -116 -177q-40 -15 -72 -15q-167 1 -193 117q-2 9 -2 75
l-1 726q0 124 119 177q34 15 52 15h21q80 0 136 -56l399 -399v263q0 130 117 177zM5671 1025q-16 4 -25 4h-16h-2q-99 0 -99 -111v-458l-537 537q-32 32 -67.5 32t-53.5 -8q-69 -30 -69 -103v-726q0 -84 79 -106q18 -5 33 -5h9h2q77 0 94 79q5 23 5 32v458l537 -537
q34 -34 69 -34h15q13 0 39 10q67 26 67 104v725q0 87 -80 107zM6094 81h726q90 0 106 79q5 26 5 32v8q0 70 -79 98q-14 5 -32 5h-459l174 174q33 33 33 78q0 46 -33 79l-173 173h458q89 0 106 79q5 24 5 32q0 6 1 13q0 80 -80 94q-23 4 -32 4h-40h-686q-71 0 -103 -68
q-9 -19 -8 -43q2 -48 32 -78l285 -285l-285 -285q-31 -31 -32 -78q-1 -24 8 -43q29 -65 103 -68zM6097 0q-142 5 -183 116q-13 35 -13 68v5v5q0 76 58 134l227 227l-228 228q-56 56 -56 135q0 41 14 74q50 118 174 118h2h2l766 -4q72 0 126 -96q26 -46 26 -92
q0 -140 -117 -176q-49 -15 -75 -15h-264l36 -36q56 -56 56 -130v-3v-3q0 -82 -56 -136l-36 -35h264q125 0 177 -117q15 -34 15 -75q0 -128 -117 -177q-36 -15 -75 -15h-723zM3200 113q45 -32 76 -32q24 0 46 8q68 25 68 103v726q0 86 -79 107q-15 4 -32 4q-91 0 -106 -79
q-5 -27 -5 -32v-458l-174 174q-32 32 -73 32h-2h-3q-47 0 -79 -32l-174 -174v458q0 86 -79 107q-15 4 -32 4q-86 0 -106 -79q-5 -20 -5 -32v-726q0 -71 69 -103q19 -9 42 -8q49 2 79 32l285 285zM3143 56l-227 228l-228 -228q-56 -55 -136 -56q-39 -0 -73 15
q-118 54 -118 177v726q0 128 117 177q36 15 74 15q130 0 177 -117q15 -37 15 -75v-263l36 36q57 56 136 56t135 -56l36 -36v263q0 127 117 177q35 15 75 15q97 0 176 -117q16 -24 16 -75v-726q0 -124 -119 -177q-34 -15 -65 -15h-4h-4q-76 0 -136 56zM3541 918v14
q-1 20 15 60q47 118 177 118h726q127 0 177 -117q15 -35 15 -68v-22v-4v-6q0 -99 -117 -151q-34 -15 -75 -15h-263l399 -400q57 -57 57 -135v-7q0 -3 0.5 -13.5t-16.5 -53.5q-47 -118 -177 -118h-724q-137 0 -179 115q-15 41 -15 76q0 128 117 177q38 16 75 16h263l-399 399
q-56 56 -56 135zM3630 961q-8 -17 -8 -33v-19v-4q0 -33 32 -65l537 -537h-458q-91 0 -106 -79q-3 -16 -5 -32q0 -82 79 -106q16 -5 32 -5h726q71 0 103 68q9 19 9 33v19v4q0 32 -33 65l-537 537h458q88 0 107 79q4 17 4 30v21v8q0 62 -79 80q-18 4 -32 4h-726
q-71 0 -103 -68zM8177 993q15 -36 15 -62v-12v-16q0 -107 -117 -161q-33 -15 -75 -15h-263l36 -36q56 -56 56 -136v-363q0 -129 -116 -177q-36 -15 -75 -15q-131 0 -178 112q-15 35 -15 83v281l-307 307q-56 56 -56 135v7v16t15 51q47 118 177 118h726q128 0 177 -117z
M7171 961q-8 -17 -8 -33v-19v-4q0 -30 32 -65l331 -331v-317q0 -80 79 -106q15 -5 25 -5h11h2q77 0 100 79q4 14 5 32v363q-3 47 -32 79l-174 173h458q81 0 107 79q3 9 4 24l1 16v4q0 93 -112 99h-726q-73 -5 -103 -68z" />
    <glyph glyph-name="uni0091" 
d="M1137 572l539 -539q33 -33 81 -34q22 0 43 9q15 6 22 12q48 35 48 93v732q0 37 -21 66q-34 48 -92 48q-36 0 -66 -21q-48 -33 -48 -93v-459l-539 539q-34 33 -80 34q-22 0 -43 -9q-15 -6 -23 -12q-47 -34 -47 -91v-2v-459l-539 539q-34 33 -81 34q-22 0 -43 -9
q-15 -6 -22 -12q-48 -35 -48 -93v-732q0 -37 21 -66q34 -48 92 -48q36 0 66 21q48 33 48 93v459l539 -539q33 -33 80 -34q22 0 43 9q15 6 23 12q47 34 47 91v2v459zM1829 -62q-37 -14 -54 -14h-21h-5q-70 0 -125 55l-411 411v-277v-5q0 -34 -13 -66q-30 -76 -104 -104
q-38 -14 -56 -14h-20h-5q-68 0 -124 56l-411 410v-277q0 -70 -51 -129.5t-135 -59.5h-3q-70 0 -129.5 51t-59.5 138v732q0 37 14 71q29 72 103 104q35 14 72 14q78 0 134 -55l410 -410v276q0 35 14 71q30 74 103 104q35 14 72 14q78 0 133 -55l411 -410v276q0 70 51 129.5
t129.5 59.5t138 -51t59.5 -138v-732q0 -39 -13 -71q-30 -76 -104 -104z" />
    <glyph glyph-name="uni0092" 
d="M2104 283.5q0 41.5 38 71.5q29 23 70 23h1q41 0 71 -38q22 -28 22 -70t-38 -72q-28 -22 -70 -22t-72 38q-22 28 -22 69.5zM273 944h157v-768h-157l-301 505v-505h-158v768h158l301 -505v505zM2127 944h158v-478h-158v478zM1430 367l183 479l176 -479l79 577h157l-91 -768
h-223l-101 246l-102 -246h-231l-83 768h157zM669 787v-135h233v-157h-233v-162h459v-157h-616v768h616v-157h-459z" />
    <glyph glyph-name="uni0093" 
d="M1577 467h-91v185h-91v-185h-95v370h-91v-459h460v459h-92v-370zM931 469v93h92v92h-92v90h187v93h-279v-459h279v91h-187zM658 378h90v459h-92v-279l-189 279h-88v-459h91v277zM1978 378q-2 -8 -23 -14l-277 -89l-50 -170q-4 -15 -14 -19q-17 -6 -33 -3l-327 68
l-202 -178q-10 -10 -29 -10q-18 0 -29 10l-201 178l-327 -68q-20 -4 -33 3q-11 7 -15 19l-50 170l-277 89q-18 6 -22 14q-5 11 5 21l201 208l-201 218q-8 9 -5 21q2 9 22 15l277 78l50 170q5 14 15 19q15 7 33 3l327 -68l201 179q10 8 29 8q20 0 29 -8l202 -179l327 68
q21 4 33 -3q11 -6 14 -19l50 -170l277 -78q19 -6 23 -15q5 -10 -5 -21l-202 -218l202 -208q9 -8 5 -21z" />
    <glyph glyph-name="uni0094" 
d="M858 635l44 -2q50 9 84 22.5t65 13.5t80 -18.5t88 -18.5q0 103 -65 163t-158 60t-213 -83.5t-171 -205.5q-24 -60 -25 -120q0 -170 116 -316t308 -190q62 -14 96 -14h38q283 0 452 188q74 83 143 221l63 163q62 152 82 152q9 0 9 -26q0 -199 -154 -438
q-126 -197 -314 -298q-137 -73 -281 -74q-295 0 -482 183.5t-187 448.5q0 161 113 302t265 194q72 25 142 25q181 0 277 -158q57 -94 57 -174l1 -1q0 -78 -117 -78q-40 0 -84 -16t-76.5 -16t-71.5 17t-97 17q0 -103 65 -163t158 -60t213.5 83t170.5 206q24 60 25 120
q0 170 -116 316t-307 189q-65 15 -135 15q-283 0 -451 -188q-74 -83 -144 -221l-62 -164q-62 -151 -82 -151q-9 0 -9 26q0 199 153 438q126 197 314 298q137 73 281 74q295 0 482 -183.5t187 -448.5q0 -161 -112.5 -302t-264.5 -194q-73 -25 -143 -25q-181 0 -277 157
q-57 94 -58 178q0 77 85 77z" />
    <glyph glyph-name="uni0095" 
d="M1213 1280h262v-1280h-262v1280zM573 1280h262v-1280h-262v1280z" />
    <glyph glyph-name="uni0096" 
d="M1213 1280h262v-1280h-262v1280zM573 1280h262v-1280h-262v1280z" />
    <glyph glyph-name="uni0097" 
d="M1213 1280h262v-1280h-262v1280zM573 1280h262v-1280h-262v1280z" />
    <glyph glyph-name="uni0098" 
d="M1213 1280h262v-1280h-262v1280zM573 1280h262v-1280h-262v1280z" />
    <glyph glyph-name="uni0099" 
d="M1213 1280h262v-1280h-262v1280zM573 1280h262v-1280h-262v1280z" />
    <glyph glyph-name="uni009A" 
d="M1213 1280h262v-1280h-262v1280zM573 1280h262v-1280h-262v1280z" />
    <glyph glyph-name="uni009B" 
d="M1213 1280h262v-1280h-262v1280zM573 1280h262v-1280h-262v1280z" />
    <glyph glyph-name="uni009C" 
d="M1213 1280h262v-1280h-262v1280zM573 1280h262v-1280h-262v1280z" />
    <glyph glyph-name="uni009D" 
d="M1213 1280h262v-1280h-262v1280zM573 1280h262v-1280h-262v1280z" />
    <glyph glyph-name="uni009E" 
d="M1213 1280h262v-1280h-262v1280zM573 1280h262v-1280h-262v1280z" />
    <glyph glyph-name="uni009F" 
d="M1213 1280h262v-1280h-262v1280zM573 1280h262v-1280h-262v1280z" />
    <glyph glyph-name="size" unicode="&#x13f;" 
d="M1842 0h-202l-106 279h-446l-106 -279h-201l425 1074h211zM865 285l-77 -195l-40 105h-312l-74 -195h-156l298 752h176zM1474 433l-163 448l-161 -448h324zM700 318l-108 299l-107 -299h215z" />
    <glyph glyph-name="man" unicode="&#x140;" 
d="M1138 1331q0 -58 -34 -104t-81 -46t-81 46t-34 104q0 57 33.5 97.5t81.5 40.5q47 0 81 -40.5t34 -97.5zM1303 504q0 -69 -53 -69t-53 69v465h-26v-1120q0 -69 -65 -69t-65 69v663h-34v-663q0 -69 -65 -69t-65 69v1120h-26v-465q0 -69 -53 -69t-53 69v533q0 130 145 130
h269q144 0 144 -130v-533z" />
    <glyph glyph-name="woman" unicode="&#x141;" 
d="M1139 1297q0 -57 -33.5 -97.5t-80.5 -40.5q-48 0 -81.5 40.5t-33.5 97.5t33.5 97.5t81.5 40.5q47 0 80.5 -40.5t33.5 -97.5zM1305 329h-132v-479q0 -69 -66 -69q-65 0 -65 69v479h-33v-479q0 -69 -66 -69q-64 0 -64 69v479h-136l135 343v327h-25v-306q0 -68 -53 -68
q-54 0 -54 68v306q0 147 144 147h269q144 0 144 -147v-306q0 -68 -51 -68q-53 0 -53 68v306h-26v-327z" />
    <glyph glyph-name="child" unicode="&#x142;" 
d="M1116 1026q0 -46 -27 -78t-65 -32q-40 0 -66 32q-25 31 -26 78q-0.0357143 1.64286 -0.0357143 3.26786q0 43.875 26.0357 74.7321q27 32 66 32q38 0 65 -32t27 -78zM1328 681q7 -14 8 -31q0.0277778 -0.75 0.0277778 -1.5162q0 -26.8171 -34.0278 -73.4838l-100 -141
l-34 88l84 122l-96 125v-252l38 -112l-16 -25v-133h-18v-407q0 -55 -52 -55t-52 55v407h-18v133h-28v-133h-18v-407q0 -55 -52 -55t-52 55v407h-18v133l-16 25l38 112v252l-96 -125l84 -122l-34 -88l-100 141q-32 44 -34 75q-1 16 8 31l110 179q30 46 66 46h256q36 0 66 -46
z" />
    <glyph glyph-name="dance" unicode="&#x143;" 
d="M1547 1464l-12 -9l13 -20q-6 -6 -28 8q-50 31 -60 1q-37 -107 -57 -136q-14 -20 -20 -51q-9 -46 -40 -93q-59 -90 -63 -103t-12 -71q-10 -68 -18 -89q-18 -45 -48 -106q-39 -79 -50 -119q-3 -11 -4 -28q-1 -18 9 -43q51 -129 51 -133
q-0.609756 -5.97561 -0.609756 -12.323q0 -45.7014 31.6098 -110.677q91 -190 98 -216q30 -117 42 -140q22 -40 21 -49q-1 -8 12 -40q12 -30 12 -44h-94l4 21q-13 24 -12 34q1 6 11 17q8 9 7 14l-39 77q-50 100 -68 131l-35 62q-10 18 -20 29q-8 9 -65 116q-27 52 -72 143
q-21 44 -37 54q-20 13 -28 13l-14 8q-15 -58 -17 -75q-15 -126 -23 -153q-11 -35 -28 -69q-19 -38 -19 -44l-43 -220q0 -10 -7 -30q-11 -32 3 -48q16 -19 16 -29l-13 -38l1 -16h-78q22 60 22 323q0 13 18 88q20 82 20 87q2 28 2 121q0 96 5 123q17 92 46 123q28 30 49 50
q59 57 61 60l10 35q4.16667 36.6667 4.16667 56.6667q0 4 -0.166667 7.33333q-1 37 -6 49q-12 29 -71 68l-62 41q-48 34 -56 37q-4 1 -79 47q-68 41 -74 47q-4 4 -68 6q-63 2 -62 4l4 15q-1 4 3 9t-11 14t-17 10q-3 9 -6 12q-5 6 -6 15t4 10t23 -13q23 -18 74 -20t58 -7
q102 -78 203 -110q23 -7 50 -19q73.7647 -32.0294 77.8183 -32.0294q0.122837 0 0.181661 0.0294118v0q6 4 4 24q-3 25 -4 50q-1 23 5 42q17 54 45 54q4 0 9 -1q8 -2 16 7t19 7q86 -16 94 -73l32 -133q9 31 31 47q19 14 64 70t48 82q3 20 48 106q37 69 56 100q14 22 65 25
q16 1 26 1q35 0 40 -13q2 -5 -5 -14l-1 -6q14 0 2 -9q-13 -10 -19 -7z" />
    <glyph glyph-name="sexy" unicode="&#x144;" 
d="M1391 -147h-73l-6 15l-3 -15h-22q-13 65 -13 82v3q2 12 13 28t11 20.5t-28.5 94.5t-40 148.5t-27.5 87.5t-35 112t-30 122.5t-17 69.5t-12 35q-25 21 -59.5 -23t-71.5 -138l-54 -140q-5 -15 -32 -52l-26 -36q-18 -51 -65 -143l-47 -93l-21 -70q26 -2 15 -31t-11 -31
l-4 -36h-86q18 55 58 215.5t43.5 171.5t35 73.5t35.5 74.5t38 154t37.5 151t13.5 43.5t10 35.5q12 29 12 56q0 19 -6 38q-57 180 -61 210q-6 42 -18 104q-8 40 -8 64q0 10 2 18q7 36 12 88q7 67 12 87q6 21 11.5 42t20.5 30.5t29 0.5q58 -36 59.5 -40.5t17 -3.5t53.5 -9
q13 6 33 -17.5t36 -56.5q5 7 90 10q51 2 72 2q15 0 16 -1q2 -2 4 -2q21 0 19 -40.5t-63.5 -140.5t-76.5 -113t-14 -38t-8 -34t-9 -56.5t4 -54.5q99 -174 108 -247q35 -314 42 -346l6 -24q1 -4 3 -16.5t17.5 -72.5t20.5 -160.5t14.5 -128t11.5 -42.5t6 -17q29 -18 6 -18z
M953 1228q-4 2 -4 15.5t-5 21.5t-11 31t-10 36q-2 -18 -2 -33q0 -60 32 -71z" />
    <glyph glyph-name="gun" unicode="&#x145;" 
d="M1727 57l-14 -30l-2 -25q-378 -10 -388 -10t-21.5 19.5t-18.5 21.5l8 46q2 15 2 32v5q0.225 1.65 0.225 3.94688q0 28.3281 -34.225 155.053q-37 137 -43 153q-26 74 -103 74q-11 0 -35 -9.5t-65 -9.5q-189 0 -236 47q-186 188 -228.5 204t-101 43.5t-79.5 29.5l-41 12
l1 31l-27 93q6 63 48 84l48 11l54 -9l918 15l20 24l13 -17l15 13l16 -17l36 -1l8 -16q3 12 20 12q77 0 77 -27v-10q0 -10 -16 -74q-1 -4 26 -39t51 -78.5t56.5 -44.5t35.5 -12.5t-40 -15.5t-75 -43q-38.4795 -47.9178 -38.4795 -77.9137q0 -11.3192 5.47945 -20.0863
q122 -195 154 -358q16.3265 -82.449 16.3265 -116.918q0 -7.75552 -0.826531 -13.082q-4.5 -29 -21.5 -55zM1061 709q-18 5 -30 -5.5t-19 -17.5l-23 -6q-2 -25 -7 -52q-9 -39 -47.5 -65.5t-61.5 -14.5q-16 9 7 20q14 7 26 21q18 22 21 56l-17 76q-13 2 -47 -6
q-81 -19 -81 -89v-7q5 -73 212 -111q55 0 111 112l1 20q0.176471 3.23529 0.176471 6.32872q0 49.4948 -45.1765 62.6713zM1547 992q0 16 -15.5 16t-15.5 -16t15.5 -16t15.5 16z" />
    <glyph glyph-name="espion" unicode="&#x146;" 
d="M1058 1055l-4 -21q-4 -35 -10 -49l2 -23l12 -15l14 -7q6 -8 42 -54l92 152v5l8 15h10v6l142 256l28 -2q26 -15 28 -26l-2 -9l-140 -252l-6 -3v-21l-4 -5v-19l-8 -15q0 -1 13 -14t13 -33.5t-24 -46.5l22 -10q2 -7 6 -18l16 -8q10 -11 10 -20t4 -9t11 -14t1 -19t-10 -13
l16 -39q22 -49 27.5 -79t67.5 -143.5t67 -184.5q2 -23.6667 2 -40.7778q0 -34.2222 -8 -42.2222q-44 -44 -56 -50q-16 -8 -120 -57l-2 -26q-2 -4 2 -21.5t8 -59.5v-20h-618l8 66l-26 150q-22 59 -62 175l-22 28q-24 30 -44 93.5t-20 95.5v33q-1.375 12.625 -1.375 24.4844
q0 83.0156 67.375 128.516l138 72q29 27 42.5 53t23.5 33t10 11v13l-22 60l-28 28q-6 13 -8 26.5t-3 18.5t-2 21.5t4 21.5t9 1l-10 100q4 31 24 53q57 63 126 63t92 -25q10 -11 24 -13q25 -4 31.5 -37t8.5 -117l14 -9q5 -13 4 -44q-1 -69 -30 -69z" />
    <glyph glyph-name="direction" unicode="&#x147;" 
d="M1096 1013l2 -78l140 34q16 4 16 -12l-6 -320q0 -19 -16 -20q-54 -4 -126 -9l2 -67l222 71q2 1 4 1q28 0 128 -76q92.0106 -70.2447 92.0106 -96.4417q0 -0.281689 -0.0106383 -0.558284q0.960317 -0.785714 0.960317 -2.44029q0 -17.2978 -104.96 -129.56
q-87.1458 -92.0417 -118.683 -92.0417q-0.671007 0 -1.31684 0.0416667q0 1 -214 17l6 -233h-144l6 243l-194 15q-14 1 -16 10l-12 104v18q-3 41 28 50l200 64l2 96q-270 -23 -296 -23h-6h-14q-16 0 -107 25q-95 26 -95 37t101 96q103 87 121 93q20 7 304 81l4 116l-190 24
q-16 2 -16 21l-2 334l18 35l198 -76l2 77h72l2 -106q248 -94 268 -102q20 -7 119 -89t99 -92q0.0101523 -0.111675 0.0101523 -0.225257q0 -11.0742 -96.5102 -40.2747q-97.5 -29.5 -111.5 -29.5h-18z" />
    <glyph glyph-name="choice" unicode="&#x148;" 
d="M1499 937l-374 -374v-563h-202v556l-376 378l-128 -127v403h403l-134 -135l332 -331l336 336l-130 130h403v-403z" />
    <glyph glyph-name="palestine" unicode="&#x149;" 
d="M1927 1176v-390h-1099l-569 389zM991 575l-870 -606v1203zM825 360h1102v-390h-1655z" />
    <glyph glyph-name="tv" unicode="&#x14a;" 
d="M1700 235q0 -43 -82 -43q6 -10 6 -28q0 -43 -25 -54v-44l38 -66h-1216l41 66v43q-28 11 -28 60q0 12 7 23l-30 -1h-3h-3h-2q-1.19565 -0.0217391 -2.36531 -0.0217391q-52.6347 0 -52.6347 44.0217v1018q0 43 43 43h1266q43 0 43 -43v-1018zM1586 769q0 236 -27 354
q-7 28 -14.5 35.5t-34.5 13.5q-108 22 -468 22q-388 0 -503 -22q-28 -6 -35 -13.5t-14 -35.5q-28 -121 -28 -360q0 -272 28 -405q9 -40 49 -48q137 -28 513 -28q330 0 458 28q40 8 49 48q27 130 27 411zM1521 94q0 31 -31 31q-30 0 -30 -31q0 -30 30 -30q31 0 31 30z
M1384 64v53h-104v-53h104zM1249 64v53h-104v-53h104zM1111 64v53h-103v-53h103z" />
    <glyph glyph-name="floppy" unicode="&#x14b;" 
d="M348 1207l94 76h1258v-1383h-1352v1307zM818 535q0 -75 54 -129t130 -54q74 0 128 53.5t54 129.5q0 75 -54 129t-128 54q-76 0 -130 -53.5t-54 -129.5zM378 86v-164h122v164h-122zM612 1243v-445h670v445h-670zM968 564h64v-61h-64v61zM394 65h92v-66h-92v66zM686 1177
h38v16h68v-16h46v-339h-152v339z" />
    <glyph glyph-name="cdrom" unicode="&#x14c;" 
d="M1705 631q0 -282 -199.5 -481.5t-481.5 -199.5t-481.5 199.5t-199.5 481.5t199.5 481.5t481.5 199.5t481.5 -199.5t199.5 -481.5zM1665 631q0 266 -187.5 453.5t-453 187.5t-453.5 -187.5t-188 -453.5t188 -453.5t453.5 -187.5t453 187.5t187.5 453.5zM1388 1116
l-198 -217q-27 32 -61 42l174 233q34 -19 85 -58zM1607 777l-252 -101q-30 98 -83 149l-51 50q111 118 199 209v0q0.140625 0.015625 0.293701 0.015625q9.6438 0 68.7063 -62.0156q86 -108 118 -245zM1171 785.5q61 -61.5 61 -148t-61 -148t-148 -61.5t-148.5 61.5
t-61.5 148t61.5 148t148.5 61.5t148 -61.5zM827 387q-138 -151 -198 -209q-0.140625 -0.015625 -0.293701 -0.015625q-9.6438 0 -68.7063 62.0156q-87 108 -119 245l253 101q27 -97 83 -149zM920 321l-175 -233q-34 19 -85 58l199 217q27 -32 61 -42zM1075 577
q21 21 21 50.5t-21 51t-50.5 21.5t-50.5 -21.5t-21 -51t21 -50.5t50.5 -21t50.5 21z" />
    <glyph glyph-name="caution" unicode="&#x14d;" 
d="M1775 377q43 -74 43 -151q0 -94 -60 -160t-148 -66h-1172q-88 0 -148 66t-60 160q0 77 43 151l542 920q78 133 209 133q130 0 209 -133zM1575 406l-401 672q-95 160 -150 160q-56 0 -151 -160l-400 -672q-70 -119 -70 -177q0 -85 158 -85h926q158 0 158 85q0 58 -70 177z
" />
    <glyph glyph-name="plane" unicode="&#x14e;" 
d="M909 636l-654 92l62 189l700 52l125 383q42 129 128 129q50 0 86 -29.5t36 -78.5q0 -37 -19 -96l-123 -380l543 -459l-62 -189l-590 314l-129 -395l136 -284l-46 -142l-253 319l-393 -109l46 142l280 151z" />
    <glyph glyph-name="handicap" unicode="&#x14f;" 
d="M976 1341q0 -67 -39 -115t-93 -48q-53 0 -93 48q-39 47 -39 115t39 115t93 47t93 -47.5t39 -114.5zM1714 79h-200q-52 -154 -186 -252q-136 -99 -306 -99q-216 0 -368 150q-152.006 150.019 -152.006 359.262q0 1.3676 0.00649351 2.73773q1 156 70 264q30 -13 104 -13
h30l-56 100q24 25 72 68v294l76 40v17l-316 -163l196 -341q-12 -1 -22 -1q-105 0 -146 59l-148 222q-27 41 -28 83q-0.0227273 1.15909 -0.0227273 2.30424q0 49.2412 42.0227 72.6958l330 187q74 41 140 41q55 0 90 -36q32 -33 32 -78v-410h270q62 0 114 -75l248 -366h58
q36 0 46 -10t10 -47v-71zM1404 239l-182 252h-488q-96.0102 -107.888 -96.0102 -248.105q0 -1.44554 0.0102041 -2.89452q1 -158 112 -267q113 -111 272 -111q158 0 270 110.5t112 266.5z" />
    <glyph glyph-name="temperature" unicode="&#x150;" 
d="M1005 508q137 -122 137 -304q0 -118 -57 -211t-146 -144q-95 -54 -206 -54q-118 0 -211 57t-144 146q-55 94 -55 206q0 181 138 304v720q0 85 60 145t145 60h134q84 0 144.5 -60t60.5 -145v-720zM595 454q-65 -37 -106 -101t-41 -149q0 -81 40 -145.5t102 -100.5
q64 -38 143 -38q81 0 145.5 40t100.5 102q39 66 39 142q0 84 -41.5 149t-106.5 101v365h-137v67h137v70h-137v68h137v67h-137v70h137v67q0 29 -20.5 48.5t-49.5 19.5h-134q-29 0 -50 -19.5t-21 -48.5v-774zM1274 681q-29 0 -31 19q1 5 15 23l206 275q8 8 19 8t21 -8
l208 -275q13 -13 13 -23q0 -16 -31 -19h-420zM930 204q0 -81 -58 -138.5t-139 -57.5t-138 57.5t-57 138.5q0 68 35.5 115.5t92.5 68.5v328q0 14 9.5 25t22.5 11h70q14 0 23 -10.5t9 -25.5v-328q55 -20 92.5 -69.5t37.5 -114.5zM1464 228l-206 277q-14 14 -15 23q2 16 31 16
h420q31 0 31 -16q0 -4 -13 -23l-208 -277q-8 -8 -20 -8t-20 8z" />
    <glyph glyph-name="storm" unicode="&#x151;" 
d="M1577 1054q71 -35 121 -120q45.0213 -75.3617 45.0213 -161.26q0 -1.86736 -0.0212766 -3.7397q-1 -115 -72 -205q-70 -89 -185 -116q-38 -9 -75 -9h-299l-72 -242h372l-517 -633l133 436h-392l135 439h-178q-46 0 -90 15q-88 30 -143 104
q-55.0175 73.6842 -55.0175 163.777q0 1.6088 0.0175439 3.22284q1 129 99 215q16 14 33 25l11 38q34 118 134 193t224 75q53 0 53 -4q0 -13 8 -1q50 79 137 127q83.2653 47.0204 177.086 47.0204q1.9546 0 3.91379 -0.0204082q156 -1 266 -110q111 -110 111 -265v-3
q9 -5 15 -8zM1464 541q81 19 132 82t51 146q0 66 -32 118q-33 55 -86 85q-35 20 -72 27q-20 4 -46 4q-1.84848 0.030303 -3.69238 0.030303q-59.0046 0 -113.308 -31.0303q74 63 171 71q1 17 1 22q-4 118 -83 197q-82 82 -198 82q-78 0 -144 -39q-64 -38 -102 -105
q64 -42 102 -110q38.2045 -68.0227 38.2045 -137.782q0 -5.10434 -0.204545 -10.218v-1q-10 68 -54 126q-43 56 -107 85q-35 16 -73 21q-24 3 -39 3q-94 -1 -167 -56q-74 -56 -99 -143q65 -6 121 -43q54 -36 85 -93h-2q-58 75 -151 75q-33 0 -63 -11q-39 -14 -63 -36
q-66 -59 -66 -144q0 -62 37 -112q38 -51 95 -69q29 -9 60 -9h818q27 0 53 6z" />
    <glyph glyph-name="rain" unicode="&#x152;" 
d="M762 82q32 88 146 188q9.7963 -65.1667 9.7963 -117.997q0 -71.2064 -17.7963 -120.003q-14 -38 -44 -58t-59 -10q-28 11 -38.5 45.5q-4.5 14.7857 -4.5 30.2143q0 20.5714 8 42.2857zM1186 32q-13 -38 -43 -58q-31 -21 -59 -10q-27 11 -38 45q-4.84 15.4 -4.84 31.3808
q0 20.3392 7.84 41.6192q33 89 146 188q9.13208 -60.6038 9.13208 -111.903q0 -72.2855 -18.1321 -126.097zM1482 270q9.61818 -63.1455 9.61818 -115.099q0 -72.283 -18.6182 -122.901q-14 -38 -44 -58q-31 -20 -58 -10q-30 11 -39 45q-4.16667 15 -4.16667 30.3472
q0 21.4861 8.16667 43.6528q31 88 146 187zM475 84q29 84 146 186q10.2857 -64.7143 10.2857 -117.673q0 -70.6122 -18.2857 -120.327q-14 -38 -44 -58t-58 -10q-30 11 -40 45q-4.16667 14.1667 -4.16667 29.5486q0 21.5347 8.16667 45.4514zM537 -316q33 88 146 187
q9.7963 -65.1667 9.7963 -117.997q0 -71.2064 -17.7963 -120.003q-14 -39 -44 -58t-59 -9t-39 45q-4.65385 13.9615 -4.65385 29.176q0 20.747 8.65385 43.824zM964 -364q-13 -39 -46 -62q-27 -18 -59 -8q-29 9 -39 45q-4.16667 14.5833 -4.16667 29.6875
q0 21.1458 8.16667 43.3125q33 88 146 187q9.68 -66.44 9.68 -119.909q0 -68.0512 -15.68 -115.091zM1257 -129q9.7963 -65.1667 9.7963 -117.997q0 -71.2064 -17.7963 -120.003q-14 -39 -44.5 -58t-58.5 -9q-29 10 -39 45q-4.16667 14.5833 -4.16667 29.6875
q0 21.1458 8.16667 43.3125q33 90 146 187zM251 -316q31 87 145 187q10.2857 -64.7143 10.2857 -117.673q0 -70.6122 -18.2857 -120.327q-14 -38 -44 -58t-58 -9q-29 10 -39 44.5q-4.16667 14.375 -4.16667 29.5312q0 21.2188 8.16667 43.9688zM1227 1338q-80 0 -149 -41
q-67 -40 -105 -109q65 -43 105 -115q39 -70 39 -153v-2q-10 74 -55 132t-111 88q-37 17 -76 22q-23 3 -41 3q-98 0 -173 -58t-102 -149q67 -7 125 -45q56 -37 88 -96h-1q-58 74 -157 77q-2.61538 0.0769231 -5.21893 0.0769231q-31.2426 0 -60.7811 -11.0769
q-37 -14 -65 -38q-68 -58 -68 -149q0 -66 38 -117q39 -52 98 -71q31 -10 63 -10h848q28 0 55 6q80 18 135 85q54 66 54 153q0 67 -33 122q-35 58 -89 89q-39 22 -74 28q-21 4 -48 4q-1.85294 0.0294118 -3.70156 0.0294118q-61.0043 0 -117.298 -32.0294q76 66 177 73v24
q0 123 -84 206q-85 84 -207 84zM1227 1438q160 0 276 -115q115 -114 115 -275v-3q10 -5 15 -8q82 -49 126 -126q45 -80 46 -171q0.0131579 -1.56579 0.0131579 -3.12742q0 -117.123 -74.0132 -210.873q-77 -98 -192 -121q-40 -8 -77 -8h-848q-47 0 -94 15q-91 29 -148 108
q-56 78 -56 174q0 134 102 224q17 15 35 26l11 39q35 122 139 201q103 78 231 78q26 0 55 -4q2 0 5 -1h4q53 84 141 132.5t188 48.5z" />
    <glyph glyph-name="clouds" unicode="&#x153;" 
d="M828 1230q-61 11 -117 11q-55 0 -116 -11l117 285zM361 890q0 -56 11 -117l-285 117l285 117q-11 -61 -11 -117zM1034 1048q-33 48 -75 90q-39 39 -90 75l284 119zM464 1138q-40 -39 -75 -90l-119 284l284 -119q-47 -33 -90 -75zM1759 527q88 -44 148 -150
q53 -94 54 -204q0.011236 -1.59551 0.011236 -3.18722q0 -140.071 -87.0112 -250.813q-86 -110 -225 -143q-46 -11 -91 -11h-997q-55 0 -109 18q-106 35 -174 129q-67.0145 91.6522 -67.0145 203.7q0 1.64776 0.0144928 3.29994q1 159 120 266q20 18 41 32l13 46q6 19 13 39
l-128 -54l118 284q36 -50 76 -90l5 -5q4 -4 6 -5q19 23 41 43q-96 87 -96 215q0 121 85 206q86.0114 86.0114 203.3 86.0114q1.34814 0 2.70041 -0.0113636q118 -1 201 -80q84 -80 90 -195q28 22 57 38q-3 36 -8 62l76 -31q76 28 155 28q189 0 324 -136t135 -328v-3
q14 -8 18 -10zM1622 -109q97 22 160 101t63 181q0 80 -39 146q-41 69 -105 106q-45 26 -87 33q-24 4 -56 5q-3.52381 0.0952381 -7.03401 0.0952381q-70.2041 0 -134.966 -38.0952q89 78 207 87q0 7 1 28q0.148148 5.18519 0.148148 10.3224q0 133.567 -100.148 234.678
q-100 101 -242 101q-94 0 -175 -49q-79 -48 -124 -130q79 -53 124 -136q46 -85 46 -183v-2q-12 87 -65 157q-53 71 -131 105q-39 17 -88 25q-22 4 -48 4q-3.06849 0.0547945 -6.12197 0.0547945q-108.399 0 -197.878 -69.0548q-89 -69 -119 -177q80 -8 146 -53t104 -115h-2
q-70 92 -185 92q-40 0 -76 -13q-43 -15 -77 -45q-80 -70 -80 -178q0 -78 45 -139q46 -62 115 -85q36 -12 73 -12h997q29 0 64 8z" />
    <glyph glyph-name="sun" unicode="&#x154;" 
d="M665 -316l4 315q100 -65 216 -90zM1383 1416l-4 -315q-100 65 -216 90zM383 411q25 -115 90 -216l-315 -4zM1665 689q-25 116 -90 216l315 4zM473 905q-65 -100 -90 -216l-225 220zM1575 195q65 100 90 216l225 -220zM885 1191q-116 -25 -216 -90l-4 315zM1163 -91
q115 25 216 90l4 -315zM485 176q68 -97 165 -165l-289 -124zM1563 924q-68 97 -165 165l289 124zM368 550q0 -56 11 -117l-293 117l293 117q-11 -61 -11 -117zM1962 550l-293 -117q11 61 11 117t-11 117zM650 1089q-97 -68 -165 -165l-124 289zM1398 11q97 68 165 165
l124 -289zM1141 1195q-61 11 -117 11t-117 -11l117 292zM907 -95q61 -11 117 -11t117 11l-117 -293zM1024 1144q246 0 420 -174t174 -420t-174 -420t-420 -174t-420 174t-174 420t174 420t420 174zM1024 19q220 0 376 156q155 155 155 375t-156 376q-155 155 -375 155
t-376 -156q-155 -155 -155 -375t155.5 -375.5t375.5 -155.5zM1273 387q15 11 25 -2t0 -30q-35 -63 -113 -108q-72 -42 -161 -43q-1.93333 -0.0222222 -3.86025 -0.0222222q-84.7842 0 -157.14 43.0222q-73 43 -111 108q-10 17 -1 29t24 2q129.582 -85.0989 241.397 -85.0989
q3.81186 0 7.60307 0.0989011q137 4 249 86zM930 571q-49 52 -122 52q-71 0 -123 -52q-6 -6 -17 2t-8 16q25 71 66 113q38 39 82 39q42 0 81 -39t66 -113q3 -8 -7.5 -16.5t-17.5 -1.5zM1240 739q45 0 82 -37q28 -28 66 -113q4 -9 -7 -17t-18 -1q-51 51 -123 52
q-1.27778 0.0185185 -2.55007 0.0185185q-67.4314 0 -119.45 -52.0185q-7 -7 -18 2q-10 8 -7 16q22 67 66 112q36 38 81 38z" />
    <glyph glyph-name="megaphone" unicode="&#x155;" 
d="M1751 426q0 -111 -21 -195q-32 -132 -105 -132q-19 0 -83 43q-78 53 -298 88q-182 30 -319 30q-37 0 -37 -61q0 -21 16 -59.5t16 -60.5t25.5 -49t25.5 -43q0 -4 -2.5 -12t-2.5 -12q0 -14 23.5 -40t23.5 -45q0 -9 -7.5 -23t-7.5 -22q0 -12 12.5 -27.5t12.5 -21.5
q0 -18 -48 -18q-106 0 -149 62q-26 38 -51 159q-46 226 -159 226q-5 0 -13 -1.5t-12 -1.5q-128 0 -128 234q0 134 131 193q68 25 203 79q142 60 311 184q159 115 223 197q27 138 109 138q98 0 189 -216q62 -146 93 -307q29 -145 29 -286zM521 221q-108 7 -153 28
q-71 35 -71 127q0 91 58 135q2 2 134 71q-48 -53 -48 -162q0 -132 80 -199zM1496 493q0 106 -36 199q-41 104 -111 146q39 -356 118 -534q29 88 29 189zM1495 202q-89 134 -141 339q-48 189 -48 365l14 114q-68 -87 -185 -163q-105 -63 -211 -127q-124 -77 -124 -179
q0 -89 32 -154q40 -80 118 -93q6 -1 111 -5q248 -10 434 -97zM446 263q-39 109 -39 171q0 43 11 73l-22 -6q-13 -46 -13 -98q0 -43 35 -140h28zM391 269q-36 86 -36 123t8 92l-28 -19q-7 -40 -7 -75q0 -46 39 -112z" />
    <glyph glyph-name="personality" unicode="&#x156;" 
d="M1126 1391h-217v23q19 2 44 25q6 24 2 53h125q4 -14 0 -39t46 -41v-21zM1103 1359q-5 -40 -32 -40q-17 0 -31.5 14.5t-20.5 14.5q-7 0 -18.5 -15t-24.5 -14q-24 2 -42 40q31 19 90 19q63 0 79 -19zM1296 1180l-62 -465l-49 16l-65 -502h-195l-79 502l-51 -16l-43 465
l205 58l-29 -44l64 -180l23 195l-19 29h60l-19 -29l16 -195l70 180l-30 47zM1119 182q2 -27 2 -50v-8v-7v-7v-6v-6q0.0740741 -2.66667 0.0740741 -5.23457q0 -66.7654 -50.0741 -66.7654q-38 0 -44 84q-7 -84 -50 -84q-44 0 -44 103q-1 23 2 54l14 -1q-8 -44 28 -46
q27 -1 33 23q2 10 -1 24l16 -1q1 -3 2 -14q0 9 1 15l13 -1q-6 -44 30 -46q27 -1 32 23q3 10 0 24zM1272 -221q0 -33 -71.5 -52.5t-177.5 -19.5t-176 19q-73 20 -73 53t73 57t176 24t176 -24t73 -57z" />
    <glyph glyph-name="dialog" unicode="&#x157;" 
d="M832 1152q-153 0 -286 -52t-211.5 -141t-78.5 -181q0 -182 202 -300l97 -56l-35 -84q34 20 62 39l44 31l53 -10q78 -14 153 -14q153 0 286 52t211.5 141t78.5 191t-78.5 191t-211.5 141t-286 52zM656 272q-163 -116 -364 -144h-3q-33 0 -33 36q0 15 7 22t10 10.5l6 7
t21 22.5t26 29.5t27 34.5q19 25 41 77q-124 72 -195 177t-71 234t94 247t256.5 186.5t353.5 68.5t353.5 -68.5t256.5 -186.5t94 -257t-94 -257t-256.5 -186.5t-353.5 -68.5q-86 0 -176 16zM1654 111q22 -52 41 -76.5t27 -35t26 -29.5t24 -26t13 -14t7 -23q0 -17 -16 -29
q-4.38202 -3.79775 -17.9384 -3.79775q-32.8481 0 -119.562 22.2978q-122.5 31.5 -246.5 119.5q-90 -16 -176 -16q-271 0 -472 132q58 -4 88 -4q333 0 573 174q124 90 192 212q67 120 67 254q0 77 -23 152q129 -71 204 -178t75 -228.5t-71 -226t-195 -176.5z" />
    <glyph glyph-name="thought" unicode="&#x158;" 
d="M1668 796q5 0 8 -4q2 -3 2 -7v-44q0 -5 -3 -8t-7 -4l-56 -10q0 -1 -4 -4q-3 -2 0 -6l32 -48q2 -3 2 -7t-4 -8l-30 -31q-4 -4 -8 -4t-8 3l-48 32q-2 2 -6 1t-4 -5l-10 -57q0 -5 -4 -7q-5 -3 -8 -3h-44q-2 0 -6 3t-4 7l-12 57q0 4 -2 5q-4 1 -8 -1l-46 -32q-6 -4 -8 -3
q-7 3 -8 4l-32 31q-4 5 -3.5 8t3.5 7l32 48q2 5 0 7t-6 3l-54 10q-7 1 -8 4q-2 6 -2 8v44q0 3 3 7t7 4l54 11q10 2 6 10l-32 48q-5 3 -4 6q1 5 4 9l32 31q4 5 8 4t8 -3l46 -32q4 -2 6 -1q4 2 4 5l12 56q0 1 4 7q2 3 6 3h44q6 0 9 -3t3 -7l10 -56q0 -4 4 -5t6 1l48 32
q6 3 8 3q4 0 8 -4l30 -31q4 -4 4 -9q1 -2 -2 -6l-32 -48q-6 -8 4 -10zM1490 694q34 1 51 21q16 19 17 48q1 26 -20 47q-19 19 -48 20q-26 1 -48 -20q-20 -19 -20 -48t20 -48q21 -21 48 -20zM1224 777q9 -1 14 -8q6 -8 6 -16v-87q0 -7 -6 -15t-14 -9l-112 -20q-6 -2 -10 -7
q-4 -6 2 -13l64 -95q4 -6 5 -15t-9 -17l-60 -61q-8 -8 -16 -8t-16 5l-94 64q-8 6 -14 3q-7 -4 -8 -11l-20 -113q0 -10 -8 -14q-9 -5 -16 -5h-86q-6 0 -16 6q-8 5 -8 13l-20 113q-2 7 -9 10t-13 -2l-94 -64q-5 -3 -16 -4q-8 -1 -16 7l-60 61q-6 6 -8 17q-1 6 4 15l64 95
q6 7 2 12q-4 6 -10 8l-112 20q-9 1 -14 8q-6 8 -6 16v87q0 7 6 15t14 9l112 20q20 6 8 21l-64 95q-4 6 -5 14t9 17l60 61q8 8 18 8q6 0 14 -4l94 -65q6 -5 13 -2t9 11l20 112q0 10 8 14q9 5 16 5h86q6 0 16 -6q8 -5 8 -13l20 -112q2 -8 9 -11t13 2l94 65q6 3 14 4t18 -8
l60 -61q5 -5 8 -17q1 -4 -4 -14l-64 -95q-12 -15 8 -21zM868 574q56 0 96 40q39 39 40 95q0.0238095 1.2619 0.0238095 2.51814q0 51.5057 -40.0238 93.4819q-38 40 -96 40q-54 0 -94 -40t-40 -96q-0.0246914 -1.38272 -0.0246914 -2.75537q0 -54.2199 38.5247 -92.7446
q39.5 -39.5 95.5 -39.5zM62 -81q0 -10 6 -17t15 -7t15 7t6 17t-6 17t-15 7t-15 -7t-6 -17zM190 45q0 -25 15 -43t37 -18t37 18t15 43t-15 43t-37 18t-37 -18t-15 -43zM360 484q32 0 60 -84q-11 -7 -24 -19q-38.025 -35.1 -38.025 -84.4594q0 -1.26562 0.025 -2.54062v-2v-2
v-3q0 -55 40 -95q38 -38 72 -38l14 -1h14h2q43 0 86 40q14 13 22 26q7.08642 -0.604938 14.0235 -0.604938q73.3346 0 129.977 67.6049q13 -32 38 -56q56 -52 126 -52q72 0 124 52q15 15 24 30q5 -2 6 -5q35 -72 170 -73q1.33333 -0.0133333 2.66133 -0.0133333
q98.272 0 167.339 73.0133q66 70 70 168q31 -6 72 -7q5.10714 -0.142857 10.1709 -0.142857q136.722 0 241.829 104.143q103 102 104 252q0.00943396 1.38679 0.00943396 2.76985q0 145.221 -104.009 249.23q-102 102 -252 104q-2.83333 0.0416667 -5.65278 0.0416667
q-64.8472 0 -122.347 -22.0417q-21 51 -62 91q-88 86 -210 86q-116 0 -208 -86q-15 -14 -26 -30l-10 9q-66 68 -161 68t-163 -68q-41 -41 -58 -92q-22 5 -42 5q-81 0 -136 -56q-56.0172 -57 -56.0172 -132.35q0 -1.32194 0.0172414 -2.64952q1 -62 34 -108q-43 -9 -74 -41
q-46 -47 -46 -110v-3q0 -59 46 -107q44 -45 108 -45zM150 45q0 36 24 60t60 24t60 -24t24 -60t-24 -60t-60 -24t-60 24t-24 60zM42 -75q0 19 14 33t34 14t34 -14t14 -33t-14 -33t-34 -14t-34 14t-14 33zM286 456q-74 0 -122 50q-50 52 -50 119v3q0 72 50 122q36 36 82 46
q-35 51 -36 120q-0.015625 1.34375 -0.015625 2.68213q0 84.3179 62.0156 147.318q61 62 150 62q24 0 48 -5q18 57 62 102q75 75 181.5 75t180.5 -75l10 -10q10 12 30 33q92 96 232 96q136 0 232 -96q46 -46 70 -101q66 25 142 25q165 0 280 -116
q116.008 -117 116.008 -277.257q0 -1.36972 -0.00847458 -2.7426q-1 -166 -116 -280q-117 -116 -280 -116q-42 0 -80 8q-6 -107 -80 -186q-77 -82 -188 -82q-135 0 -190 82q-2 3 -4 5q-10 -15 -28 -33q-56 -58 -138 -58t-140 58q-28 28 -42 62
q-62.6517 -75.5506 -145.677 -75.5506q-7.08749 0 -14.3234 0.550562q-8 -11 -24 -28q-43 -45 -96 -45h-2h-16l-14 1q-39 0 -82 43q-44 44 -44 105v3v3v2q-0.0869565 2.43478 -0.0869565 4.84121q0 52.9414 42.087 92.1588q13 12 26 21q-30 93 -64 93z" />
    <glyph glyph-name="secret" unicode="&#x159;" 
d="M1806 0h-1564q68 215 214 300q142 83 266 94l-178 328l292 -104q-66 106 -66 178v42h-208l208 115l76 347l178 -63l178 63l74 -347l210 -115h-210v-31q0 -108 -62 -189l290 104l-176 -328q124 -11 264 -94q146 -86 214 -300zM950 618h-64l-100 -124l44 -27z" />
    <glyph glyph-name="bicycle" unicode="&#x15a;" 
d="M1426 694l-23 64l-428 -427q-18 -19 -45 -19h-124q-15 -87 -65 -158q-50 -67 -127.5 -110t-172.5 -43q-79 0 -145 30q-100 44 -163.5 131t-63.5 210q0 77 29 144q41 99 130.5 163.5t212.5 64.5q66 -3 129 -24l104 172l-77 206v14h-35q-26 0 -43.5 19t-17.5 45
q0 22 15.5 36.5t37.5 14.5h8l247 -39q22 -5 41.5 -16.5t19.5 -27.5q0 -15 -19.5 -23.5t-41.5 -8.5h-86l75 -184h544l-35 92q-2 18 -2 26q0 30 22.5 48t55.5 18h164q25 0 42.5 -19t17.5 -45q0 -25 -17.5 -42.5t-42.5 -17.5h-97l91 -250q46 6 66 6q77 0 144 -30
q99 -42 163.5 -131.5t64.5 -210.5q0 -122 -72 -219q-114 -152 -300 -152q-78 0 -144 30q-99 44 -163.5 132t-64.5 209q0 107 54 191.5t137 130.5zM957 484l318 320h-437zM806 435h38l-115 309l-52 -87q105 -85 129 -222zM1854 372q0 43 -12 78q-24 74 -85.5 122t-149.5 48
l-23 -4l81 -224q2 -6 2 -20q0 -26 -16.5 -43t-43.5 -17q-42 0 -57 40l-82 225q-108 -74 -108 -205q0 -106 70.5 -177t176.5 -71t176.5 71t70.5 177zM680 312h-239q-26 0 -45 18.5t-19 44.5q0 17 13 43l116 191q-38 11 -65 11q-250 0 -250 -248q0 -106 71.5 -177t178.5 -71
q92 0 155.5 53t83.5 135zM680 435q-16 66 -68 115l-68 -115h136z" />
    <glyph glyph-name="pirate" unicode="&#x15b;" 
d="M1526 179q0 -175 -122 -295q-124 -122 -295 -122q-175 0 -297 122q-123 123 -123 295v247q-70 3 -118 52t-48 116v3v2q-2 8 -2 16.3889q0 41.9444 50 93.6111q47 49 118 51v618q433 0 654 -156q183 -129 183 -327v-716zM1147 1256l-291 67h-97v-102zM1358 1120l-113 84
l-486 -53v-102zM1438 972l-36 78l-643 -77v-84zM1456 816v79l-697 -79h697zM1456 179v581h-56q0 -155 -33 -209q-36 -59 -116 -59h-1h-5q-143 0 -143 268h-343v-581h697zM689 487v212q-103.01 -8.91429 -103.01 -103.179q0 -0.906395 0.00952381 -1.82068q0 -98 103 -107z
M1266 37v54h-316v-54h316zM926 601l-48 -51l-40 51h88zM1057 245h-51v389h-198v48h249v-437z" />
    <glyph glyph-name="medal" unicode="&#x15c;" 
d="M1440 225q0 -172 -122 -294t-294 -122q-173 0 -294.5 122t-121.5 294q0 134 77 241t199 151q-43 49 -43 121v3q-100 24 -155 113.5t-55 224.5v382h786v-382q0 -293 -217 -336v-3q-5 -74 -45 -120q126 -42 204 -149q81 -110 81 -246zM1125 780v656h-204v-656h204z
M1160 737q-30 -3 -64 -3h-185q-15 0 -29 1q3 -71 45 -105q48 11 97 11q44 0 86 -9q43 35 50 105zM1389 220l-88 56l60 86l-103 17l23 103l-104 -24l-16 103l-86 -61l-56 90l-55 -92l-86 63l-15 -106l-105 27l28 -104l-108 -16l66 -87l-94 -55l94 -54l-66 -87l107 -15
l-27 -105l104 27l16 -108l85 65l56 -92l55 90l87 -63l17 105l103 -24l-24 102l104 18l-61 85z" />
    <glyph glyph-name="phone" unicode="&#x15d;" 
d="M1536 343q0 11 -2 16t-18 16.5t-40.5 25t-47.5 26.5t-45.5 25t-28.5 15q-5 3 -19 13t-25 15t-21 5q-15 0 -36.5 -20.5t-39.5 -45t-38.5 -45t-33.5 -20.5q-7 0 -16.5 3.5t-15.5 6.5t-17 9.5t-14 8.5q-99 55 -170 126.5t-127 170.5q-2 3 -8.5 14t-9.5 17t-6.5 15.5
t-3.5 16.5q0 13 20.5 33.5t45 38.5t45 39.5t20.5 36.5q0 10 -5 21t-15 25t-13 19q-3 6 -15 28.5t-25 45.5t-26.5 47.5t-25 40.5t-16.5 18t-16 2q-48 0 -101 -22q-46 -21 -80 -94.5t-34 -130.5q0 -16 2.5 -34t5 -30.5t9 -33t10 -29.5t12.5 -33t11 -30q60 -164 216.5 -320.5
t320.5 -216.5q6 -2 30 -11t33 -12.5t29.5 -10t33 -9t30.5 -5t34 -2.5q57 0 130.5 34t94.5 80q22 53 22 101zM1792 1120v-960q0 -119 -84.5 -203.5t-203.5 -84.5h-960q-119 0 -203.5 84.5t-84.5 203.5v960q0 119 84.5 203.5t203.5 84.5h960q119 0 203.5 -84.5t84.5 -203.5z
" />
    <glyph glyph-name="satelite" unicode="&#x15e;" 
d="M550 1192l-121 121l176 176l121 -121zM714 1028l-121 121l176 176l121 -121zM878 864l-121 121l176 176l121 -121zM1042 523q-41 0 -69 29l-92 91q-29 29 -29 69q0 41 29 70l256 255q27 28 69 28q41 0 70 -28l90 -91q29 -28 29 -70q0 -41 -29 -69l-254 -255
q-29 -29 -70 -29zM1315 427l-121 121l176 176l121 -121zM776 633q70 0 128.5 -58.5t58.5 -128.5q0 -54 -41 -120l-267 266q9 9 49 26q34 15 72 15zM1479 264l-121 120l175 176l122 -120zM759 122q-2 0 -4.5 0.5t-3.5 0.5l-26 9q-93 29 -163.5 99.5t-100.5 163.5l-8 27
q-1 2 -1 7q0 20 18 27l53 17q3 2 8 0q19 0 26 -18l8 -26q22 -68 73.5 -119.5t119.5 -74.5l27 -8q18 -5 18 -26v-9l-18 -51q-5 -19 -26 -19zM764 -101q-1 0 -3 0.5t-3 0.5l-26 4q-128 26 -232 97.5t-171 172.5q-71 105 -95 228l-4 27q-1 1 -1 5q0 22 23 27l53 10l2 1h3
q21 0 27 -23l5 -27q20 -105 79.5 -191t142.5 -141q85 -58 188 -78l27 -5q22 -5 22 -27v-5l-11 -54q-6 -22 -26 -22zM1643 100l-121 121l175 176l122 -121z" />
    <glyph glyph-name="orientation" unicode="&#x15f;" 
d="M1902 611l-704 -166l-176 -710l-166 706l-710 175l706 166l174 711l166 -707zM1154 778l-122 541v-666zM1736 609h-664l124 -123zM978 618l-126 123l-540 -123h666zM1018 -92v666l-124 -125z" />
    <glyph glyph-name="bomb" unicode="&#x160;" 
d="M713 1128v-136q358 -146 358 -499q0 -220 -155.5 -375t-375.5 -155q-219 0 -374.5 155t-155.5 373q0 344 358 501v136q50 26 124 38v21q0 103 67 173.5t164 70.5q131 0 316 -159l53 -46q192 -165 313 -165q41 0 102 32q9 5 24 5q46 0 46 -37q0 -39 -54.5 -69t-124.5 -30
q-149 0 -370 186l-57 48q-162 136 -250 136q-130 0 -130 -166q65 -14 122 -38zM1187 1484l40 33l246 -324zM1533 1517h51l-24 -293zM1888 1517l41 -31l-280 -294zM1980 1186l8 -47l-294 -27zM2038 838l-24 -41l-337 225zM1728 696l-48 -17l-74 284zM1390 576l-47 17l167 372
z" />
    <glyph glyph-name="infinite" unicode="&#x168;" 
d="M618 856h-18q-56 0 -110 -48t-54 -122.5t54 -121.5t131 -47q108 0 201 91l128 -150q-145 -139 -336 -139h-21q-153 0 -270.5 100.5t-117.5 268.5t119 266.5t290 98.5q170 0 301 -106q85 -69 171 -176q83 -104 129 -152q100 -104 214 -104h19q60 0 112 49t52 124.5
t-57 121.5t-128 46h-14q-92 0 -185 -90l-130 151q137 136 323.5 136t304 -99.5t117.5 -267.5t-117 -268t-292 -100q-174 0 -300 106q-87 73 -175 182q-87 109 -127 150.5t-98 70.5t-116 29z" />
    <glyph glyph-name="cut" unicode="&#x161;" 
d="M1679 323q-15 4 -174 52q-397 120 -672 207q-43 16 -43 71v115l-517 246q-43 22 -70.5 63t-27.5 94q0 37 16 75l59 127q21 42 63 70.5t96 28.5q39 0 73 -18l122 -56q51 -24 81.5 -74t30.5 -118v-248q295 -140 561 -266t417.5 -198t178.5 -85q-45 -94 -131 -94h-2
q-27 0 -61 8zM527 1032q12 -8 26 -8q29 0 32 38l9 146v9q0.326531 3.7551 0.326531 7.35693q0 40.5206 -41.3265 61.6431l-138 64q-7 3 -17 3q-27 0 -37 -22l-69 -144q-5 -7 -5 -19q0 -25 23 -35q179 -84 217 -101zM1340 784l-304 144q214 64 539 163q96 30 104 32
q34 8 61 8h2q0.885417 0.0104167 1.7666 0.0104167q83.7126 0 129.233 -94.0104zM854 723q0 -28 20.5 -47.5t48.5 -19.5q29 0 48.5 19.5t19.5 47.5t-19.5 47.5t-48.5 19.5q-28 0 -48.5 -19.5t-20.5 -47.5zM703 637q7 -83 71 -122l-58 -27v-248q0 -68 -30.5 -118t-81.5 -74
l-122 -56q-34 -18 -73 -18q-54 0 -96.5 28.5t-62.5 70.5l-59 127q-16 37 -16 75q0 54 27.5 95t70.5 62zM415 96l138 64q41 21 41 69v9q0 40 -9 146q-3 38 -32 38q-14 0 -26 -8l-217 -101q-9 -4 -16 -14t-7 -21q0 -9 5 -19l69 -144q8 -22 37 -22q10 0 17 3z" />
    <glyph glyph-name="arab" unicode="&#x162;" 
d="M1477 150q-100 -65 -132 -80q-149 -70 -315 -70q-307 0 -523.5 216.5t-216.5 523.5q0 309 217.5 524.5t528.5 215.5q229 0 441 -149l-248 50q-267 0 -455 -187.5t-188 -453.5q0 -264 187 -452.5t449 -188.5zM1195 825h215l67 204l66 -204h215l-174 -126l66 -205l-173 126
l-174 -126l66 205z" />
    <glyph glyph-name="target" unicode="&#x167;" 
d="M1453 512h-109q-26 0 -45 19t-19 45v128q0 26 19 45t45 19h109q-32 108 -112.5 188.5t-188.5 112.5v-109q0 -26 -19 -45t-45 -19h-128q-26 0 -45 19t-19 45v109q-108 -32 -188.5 -112.5t-112.5 -188.5h109q26 0 45 -19t19 -45v-128q0 -26 -19 -45t-45 -19h-109
q32 -108 112.5 -188.5t188.5 -112.5v109q0 26 19 45t45 19h128q26 0 45 -19t19 -45v-109q108 32 188.5 112.5t112.5 188.5zM1792 704v-128q0 -26 -19 -45t-45 -19h-143q-37 -161 -154.5 -278.5t-278.5 -154.5v-143q0 -26 -19 -45t-45 -19h-128q-26 0 -45 19t-19 45v143
q-161 37 -278.5 154.5t-154.5 278.5h-143q-26 0 -45 19t-19 45v128q0 26 19 45t45 19h143q37 161 154.5 278.5t278.5 154.5v143q0 26 19 45t45 19h128q26 0 45 -19t19 -45v-143q161 -37 278.5 -154.5t154.5 -278.5h143q26 0 45 -19t19 -45z" />
    <glyph glyph-name="death" unicode="&#x163;" 
d="M1148 805l-20 -51q-38 -13 -104 -13q-38 0 -58 3q-26 4 -44 10l-20 51l-140 67l-14 84q-2 27 -42 94q-32.0294 53.3824 -32.0294 160.461q0 3.24481 0.0294118 6.53893q1 134 98 217t252 83q158 0 254 -83q95 -82 96 -217q0.0151515 -1.43939 0.0151515 -2.88682
q0 -94.0829 -64.0152 -222.113q-5 -10 -10 -36l-12 -84zM1214 782l-26 -99l-60 -53q-15 -30 -43 -46q-27 -16 -63 -16q-72 0 -104 62l-62 53l-24 99l36 9q6 -15 8 -23q16 -48 51 -70q27 -17 91 -17q72 0 100 16q20 12 50 71q4 8 10 23zM1028 369q66 36 228 105q8 4 42 18
q54 55 96 88q38 30 56 30q19 0 30 -13q9 -10 10 -40q0.125 -2.625 0.125 -5.60938q0 -20.8906 -6.125 -59.3906q42 -54 42 -80q1 -22 -11.5 -33.5t-36.5 -11.5q-10 0 -36 13q-24 12 -62 36q-92 -17 -264 -103q22 -13 32 -19q26 -15 148 -91q8 -5 50 -30
q182.022 -20.7742 182.022 -90.4789q0 -0.75766 -0.0215054 -1.5211q-1 -46 -98 -62q-46 -56 -76 -56q-32 0 -70 94q-9 22 -12 29q-140 115 -252 174q-136 -77 -254 -184q-16 -113 -68 -113q-32 0 -76 64q-102 0 -102 56q1 41 38.5 59.5t159.5 36.5q92 67 216 134
q-168 84 -274 103q-24 -22 -45 -33t-39 -11q-26 0 -40 11t-14 32q0 19 44 77q-11 43 -10 62q1 31 12 44q13 15 36 15q24 0 60 -30q35 -29 88 -91q116 -41 276 -123zM796 1054q0 -96 82 -96q83 0 84 103q0.0121951 1.03659 0.0121951 2.06053q0 82.9395 -80.0122 82.9395
q-44 0 -65 -23t-21 -69zM1092 1054q0 -96 84 -96t84 103q-1 43 -21 64t-61 21q-86 0 -86 -92zM1026 973q-17 -29 -38 -53q-24 -28 -24 -42q1 -16 10 -24t28 -8q10 0 24 8q12 -8 24 -8q33 0 36 33q1 12 -24 41q-20 25 -36 53z" />
    <glyph glyph-name="bell" unicode="&#x164;" 
d="M635 724q47 13 85 179q39 169 230 294q58 38 58 58t-54 20h-2h-2h-2h-2h-2h-2q-1.15663 0.0542169 -2.34199 0.0542169q-64.405 0 -213.658 -160.054q-91 -98 -91 -391zM944 1372q0 86 80 86t80 -86q208 -22 319 -182q44 -63 76 -176t32 -204v-72q0 -100 34.5 -175.5
t141.5 -214.5l38 -50q46 -60 46 -112q0 -123 -216.5 -202.5t-550.5 -79.5q-335 0 -551 79.5t-216 202.5q0 52 46 112l38 50q107 139 141 214.5t34 175.5v72q0 91 32.5 204t76.5 176q111 160 319 182zM569 336q-173 -50 -173 -160q0 -91 167 -137t460 -46q297 0 452.5 46
t155.5 139q0 81 -162.5 144t-442.5 63q-43 0 -107 -3q8 -26 8 -47q0 -77 -51.5 -130.5t-125.5 -53.5q-78 0 -129.5 52.5t-51.5 132.5z" />
    <glyph glyph-name="water" unicode="&#x166;" 
d="M1024 1480q48 -204 109 -325t185 -262l36 -40q164 -182 164 -364q-1 -202 -146 -345q-146 -144 -348 -144t-348 144q-146.007 144.02 -146.007 342.3q0 1.34884 0.00675676 2.70019q1 183 164 364l36 40q124 141 185 262t109 325z" />
    <glyph glyph-name="snow" unicode="&#x165;" 
d="M1758 419l-167 -33l186 -107q23 -13 29.5 -38.5t-6.5 -48.5q-14 -23 -39 -29.5t-48 6.5l-186 106l55 -160q4.44737 -13 4.44737 -24.537q0 -22.1866 -16.4474 -38.963q-25 -25.5 -60.5 -20.5t-48.5 42l-102 300l-271 156v-313l208 -238q16 -18 17 -39t-11 -36.5
t-28.5 -25t-37 -5.5t-36.5 22l-112 128v-214q0 -26 -19 -45t-45 -19t-45 19t-19 45v214l-112 -128q-16 -18 -36.5 -22t-37 5.5t-28.5 25t-11 36.5t17 39l208 238v313l-271 -156l-102 -300q-13 -37 -48.5 -42t-60.5 20.5q-16.4474 16.7763 -16.4474 38.963
q0 11.537 4.44737 24.537l55 160l-186 -106q-23 -13 -48 -6.5t-39 29.5q-13 23 -6.5 48.5t29.5 38.5l186 107l-167 33q-29 6 -42 29t-8.5 46.5t25.5 40t50 10.5l310 -62l271 157l-271 157l-310 -62q-4 -1 -13 -1q-27 0 -44 18t-19 40t11 43t40 26l167 33l-186 107
q-23 13 -29.5 38.5t6.5 48.5t39 30t48 -7l186 -106l-55 160q-4.44737 13 -4.44737 24.537q0 22.1866 16.4474 38.963q25 25.5 60.5 20.5t48.5 -42l102 -300l271 -156v313l-208 238q-16 18 -17 39t11 36.5t28.5 25t37 5.5t36.5 -22l112 -128v214q0 26 19 45t45 19t45 -19
t19 -45v-214l112 128q16 18 36.5 22t37 -5.5t28.5 -25t11 -36.5t-17 -39l-208 -238v-313l271 156l102 300q13 37 48.5 42t60.5 -20.5q16.4474 -16.7763 16.4474 -38.963q0 -11.537 -4.44737 -24.537l-55 -160l186 106q23 13 48 6.5t39 -29.5q13 -23 6.5 -48.5t-29.5 -38.5
l-186 -107l167 -33q27 -5 40 -26t11 -43t-19 -40t-44 -18q-9 0 -13 1l-310 62l-271 -157l271 -157l310 62q29 6 50 -10.5t25.5 -40t-8.5 -46.5t-42 -29z" />
    <glyph glyph-name="telephone" unicode="&#x169;" 
d="M1769 1239q73 -122 99 -277q-79 -17 -156 -17q-132 0 -277 69v19q0 133 -404 133h-6h-6q-3 0.00740741 -5.97778 0.00740741q-399.022 0 -399.022 -133.007v-19q-139 -81 -274 -81q-80 0 -159 29q25 146 100 277q175 66 356 96q187 31 383 31q208 0 394 -31.5t355 -95.5z
M1867 922l1 -43v-8v-7v-4q0.027027 -1.7027 0.027027 -3.38276q0 -60.4821 -35.027 -91.6172q-36 -32 -126 -32h-6q-135 0 -200 48q-66 49 -66 141v6l1 40q128 -68 275 -68q83 0 156 22zM613 962l1 -33v-9v-8v-5q0.0597015 -2.47761 0.0597015 -4.9276
q0 -79.6246 -63.0597 -130.072q-61 -49 -200 -49h-6h-5h-5q-2.37143 -0.0285714 -4.70449 -0.0285714q-79.3241 0 -114.296 33.0286q-36 34 -36 116v9l1 39q84 -31 164 -31q146 0 268 73zM892 912h266v121h200v-168l238 -379q51 -82 68 -136q16 -51 16 -139v-210h-1310v210
q0 135 90 279l232 375v168h200v-121zM775 767v-78h110v78h-110zM964 767v-78h110v78h-110zM1153 767v-78h110v78h-110zM775 634v-78h110v78h-110zM964 634v-78h110v78h-110zM1153 634v-78h110v78h-110zM775 500v-77h110v77h-110zM964 500v-77h110v77h-110zM1153 500v-77h110
v77h-110z" />
    <glyph glyph-name="deco1" unicode="&#x16a;" 
d="M1974 1086v-62q-78 0 -145 -177l-19 -49q-37 -98 -74 -137.5t-121 -72.5q142 -17 219.5 -91.5t77.5 -193.5q0 -128 -102 -215.5t-252 -87.5q-219 0 -354 191l54 42q88 -111 213 -111q99 0 170.5 64.5t71.5 155.5q0 72 -54 120.5t-134 48.5q-130 0 -280 -132l-41 -35
q-129 -113 -295 -182.5t-307 -69.5q-226 0 -377 137t-151 341q0 219 166.5 367.5t412.5 148.5h19v-62q-188 -13 -294.5 -119.5t-106.5 -281.5q0 -189 123 -314t309 -125q183 0 333.5 118t150.5 262q0 76 -50.5 133t-117.5 57q-62 0 -104.5 -47t-42.5 -116q0 -22 7 -52
l-60 -19q-20 65 -20 124q0 121 67 199t170 78q69 0 124.5 -36t97.5 -108q117 309 568 309h148zM1294 509q147 81 215.5 146t112.5 169l14 32q47 113 116 167q-459 -24 -459 -456z" />
    <glyph glyph-name="deco2" unicode="&#x16b;" 
d="M74 0v62q77 0 145 177l19 48q37 98 74 138t121 73q-142 16 -220 91t-78 194q0 128 102.5 215.5t252.5 87.5q219 0 354 -192l-54 -41q-88 111 -214 111q-98 0 -169.5 -65t-71.5 -155q0 -72 54 -120.5t134 -48.5q130 0 280 131l41 36q288 251 601 251q227 0 378 -136.5
t151 -340.5q0 -220 -166.5 -368t-413.5 -148h-19v62q189 13 295.5 119.5t106.5 281.5q0 189 -123 313.5t-309 124.5q-183 0 -333.5 -118t-150.5 -261q0 -76 50 -133.5t118 -57.5q62 0 104 47.5t42 116.5q0 21 -6 52l60 18q20 -64 20 -124q0 -120 -67 -198t-170 -78
q-68 0 -123.5 36t-98.5 108q-117 -309 -569 -309h-147zM754 577q-148 -81 -216 -146.5t-112 -168.5l-14 -32q-47 -114 -116 -167q459 23 459 459z" />
    <glyph glyph-name="deco3" unicode="&#x16c;" 
d="M512 745l66 68q266 273 496 273q142 0 242 -89t100 -215q0 -77 -53 -133t-127 -56q-110 0 -180 152q44 -16 74 -16q64 0 111 35t47 84q0 43 -23 64t-69 21q-98 0 -350 -259l-72 -74q246 -121 436 -121q200 0 331 106t131 266q0 95 -52 159q172 0 271 -64
q101 -65 101 -174q0.00526316 -0.894737 0.00526316 -1.78828q0 -168.88 -188.005 -295.212q-188 -126 -446 -126q-186 0 -384 72l52 -50q220 -211 348 -211q45 0 70 20q26 21 24 58q-1 18 -16 50q194 -26 194 -157q-1 -65 -47.5 -98t-142.5 -33q-214 0 -500 295l-50 52
q-116 120 -208 186q-200 -193 -372 -193q-119 0 -194 70q-76 71 -76 178q-0.0150376 1.35338 -0.0150376 2.70044q0 88.2319 64.515 149.3q65.5 62 159.5 62q100 0 232 -57zM434 667q-70 28 -130 28q-52 0 -79 -19.5t-27 -59.5q0 -28 17 -42.5t49 -14.5q52 0 170 108z" />
    <glyph glyph-name="qrcode" unicode="&#x16d;" 
d="M205 820v681h681v-681h-681zM1162 820v681h681v-681h-681zM272 887h547v547h-547v-547zM957 1159v275h134v-275h-134zM1229 887h547v547h-547v-547zM342 954v410h410v-410h-410zM1296 954v410h410v-410h-410zM957 887v137h134v-137h-134zM205 615v134h137v-134h-137z
M410 615v134h137v-134h-137zM1091 477v138h-409v134h684v-272h-275zM1501 615v134h137v-134h-137zM1706 410v339h137v-339h-137zM205 -137v681h681v-681h-681zM1024 135v275h410v134h137v-272h-275v-137h-272zM272 -70h547v547h-547v-547zM342 0v410h410v-410h-410z
M1706 205v135h137v-135h-137zM1366 10v125h135v-125h-135zM1501 -137v137h205v135h137v-272h-342zM1024 -137v137h342v-137h-342z" />
    <glyph glyph-name="uewa" unicode="&#x16e;" 
d="M845 159q-73 0 -105 -1q-66 -2 -100 -3h-17q-14 0 -110 4q-65 2 -106 13q-36 10 -84 29q-90 36 -102 125q-30 74 -119 75q-88 1 -100 42q-8 26 15.5 45.5t67 22t43.5 -1.5q8 0 93 75q59 52 103 76q36 20 130 42q100 23 224 23q77 85 282 99q18 1 34 1q180 0 335 -83
q77 -17 111 -23q100 -18 102 -19q43 -11 81 -18q41 -8 68 -18q37 -13 49 -19q46 -22 56 -53q34 -13 104 -20q78 -8 115 -36q33 -24 33 -76q0 -10 -2 -18q-74 -2 -126 -37q-56 -38 -82 -79q-83 -128 -159 -167h-834zM1179 742q-59 41 -192 41q-19 0 -49 -1q-172 -7 -192 -90
q42 6 84 6q36 0 76 -5q52 -6 93 -6l71 3q82 9 109 52zM1051.5 661.5q-130.5 -2.5 -178.5 -2.5q-94 0 -137 1l-132 3q-46 0 -116 -7q-72 -7 -111 -23q-102 -41 -132 -124q72 5 217 5q163 0 363 -5q100 -2 205 -2q259 0 349 18q179 24 203 101q-130 38 -322 38
q-78 0 -208.5 -2.5zM274 479q-91 0 -106.5 1.5t-33.5 1.5h-9q-68 0 -97 -40q95 -1 191 -1h45q174 0 342 6q67 2 395 11q47 1 87 1q6 0 237 -4q155 -2 157 -2q331 0 531 39q-5 2 -267 3h-58q-190 -16 -1414 -16zM1295 392q-119 -19 -360 -20q-97 0 -174 2.5t-174 2.5
q-236 0 -359 -19q64 -172 388 -172q54 0 113 5q7 4 11 11q1 4 -5 16q-7 13 -6 24q71 -56 224 -57h30h21q39 0 108 3t120 3h25q42 0 120 -2.5t121 -2.5h13h12q97 0 156 39q-206 -24 -407 -24q-199 0 -393 24q43 38 240 39.5t243 77.5q-4 24 -32 34.5t-35 15.5z" />
    <glyph glyph-name="buy" unicode="&#x16f;" 
d="M206 -2v653h307v-653h-307zM410 142.5q0 50.5 -50.5 50.5t-50.5 -50.5t50.5 -50.5t50.5 50.5zM1415 394q0 42 -33 84l129 130q28 30 58 30t60 -30zM1343 507q-24 15 -42 15t-25 -1h-36l84 84q29 31 58 31t60 -31zM1696 608q30 32 59 32t58 -31t29 -61t-28 -58l-408 -398
l-17 -12l-24 -10l-15 -2h-698q-73 0 -82 72v434h111q111 0 201 -43t195 -43h201q41 0 70 -29t29 -69q0 -81 -79 -101q-12 -3 -20 -3h-201q-19 0 -19 -19t19 -19h259z" />
    <glyph glyph-name="dollar2" unicode="&#x170;" 
d="M930 -114v124q-229 14 -403 164l235 249q101 -110 250 -110q86 0 86 53q0 43 -206 110q-298 97 -298 331q0 324 356 379v120h168v-115q234 -16 403 -163l-240 -240q-82 96 -202 96q-96 0 -96 -53q0 -31 115 -72q389 -138 389 -355q0 -366 -393 -394v-124h-164z" />
    <glyph glyph-name="briefcase" unicode="&#x171;" 
d="M1448 961h-96v88l-48 48h-562l-48 -48v-88h-96v88q0 144 144 144h562q144 0 144 -144v-88zM1292 440v-93q0 -30 30 -30h156q30 0 30 30v131q98 32 196 63v-458q0 -80 -80 -80h-1200q-80 0 -80 80v458q91 -53 196 -63v-131q0 -30 30 -30h156q30 0 30 30v93
q185 -16 268 -16h6q94 0 262 16zM756 502v121q0 30 -30 30h-156q-30 0 -30 -30v-81v-1q-109 1 -196 66v216q0 80 80 80h1200q80 0 80 -80v-216q-98 -33 -196 -65v81q0 30 -30 30h-156q-30 0 -30 -30v-122q-132 -16 -268 -16q-148 0 -268 17zM694 377h-96v216h96v-216z
M1448 377h-96v216h96v-216z" />
    <glyph glyph-name="study" unicode="&#x172;" 
d="M1878 -31l-138 134l-134 -134v272l67 205v168l-123 81l-527 -230l-873 386l873 385l875 -385l-200 -88l80 -55q32 -19 32 -57v-205l68 -205v-272zM1023 83l-512 225v271l512 -226l512 226v-271z" />
    <glyph glyph-name="pieces" unicode="&#x173;" 
d="M227 165l3 86q0 49 43 90q-47 45 -47 90v121q0 64 82 118q-21 30 -21 63v120q0 65 83 118q-22 29 -22 63v120q0 128 276 194q126 30 300 30h6h6q2.92308 0.0192308 5.85429 0.0192308q149.492 0 320.146 -50.0192q103 -30 163 -96q35 -40 35 -119l-2 -79q0 -21 -16 -46
q128 -41 219 -136.5t126 -200t35 -191.5q0 -304 -275 -475q-124 -77 -279 -77q-95 0 -192 34q-140 -35 -293 -35q-258 0 -438 81q-60 27 -89 66.5t-29 110.5zM492 1094q165 -72 379 -72q211 0 391 56q87 27 99 74q-7 37 -37.5 52t-54.5 23l-25 7q-156 52 -340 52t-368 -55
q-92 -28 -104 -76q9 -40 60 -61zM892 835q-77 1 -228 32t-201 55q-48 -19 -90 -71q-4 -5 -4 -10q1 -25 85 -57l30 -12q15 -6 49 -13l40 -9q94 -23 233 -29q26 49 86 114zM1276 896q-216 0 -349 -168q-92 -110 -92 -278q0 -112 57 -206q130 -216 379 -216q172 0 300 128
q55 55 92.5 134.5t37.5 169.5t-36.5 169.5t-91 135t-133.5 93.5t-164 38zM376 609q-6 -4 -15 -9q-39 -19 -48 -46q10 -58 156 -94q92 -33 271 -39q-2 12 -2 42.5t5 73.5q-219 17 -340 83zM367 303q-46 -14 -54 -54q17 -70 164 -94q6 -1 14 -3t97.5 -16t163.5 -14.5t106 -2.5
q-44 53 -63 89q-165 8 -330 47q-80 19 -98 48z" />
    <glyph glyph-name="coin" unicode="&#x174;" horiz-adv-x="2045" 
d="M557 616q0 193 136 329q138 137 329 137q196 0 329 -137q137 -140 137 -326v-3q-1 -197 -137 -329q-140 -137 -329 -137q-190 0 -327.5 138t-137.5 328zM1085 462v459h-106l-194 -197l74 -74l120 120v-308h-161v-105h411v105h-144zM1809 620.5q0 -326.5 -230 -556.5
t-557 -230q-324 0 -556.5 230.5t-232.5 553.5v3q1 328 230 557q232 232 558 232h1q327 -1 557 -232t230 -557.5zM497 1145l112 -111q170 170 413 170v158q-307 0 -525 -217zM609 209q-170 170 -170 412h-158q0 -307 216 -525zM1545 96l-112 113q-169 -171 -408 -171h-3v-159
q307 0 523 217zM1560 621q0 222 -158.5 380.5t-381.5 158.5q-220 0 -379 -159q-158 -157 -159 -377v-3q1 -225 159 -381q158 -157 381 -157q221 0 379.5 158t158.5 380zM1605 621h159q0 307 -219 524l-112 -111q172 -171 172 -413z" />
    <glyph glyph-name="piggy" unicode="&#x175;" 
d="M448 660q0 -60 60 -60t60 60t-60 60t-60 -60zM770 1294q0 204 204 204t204 -204t-204 -204t-204 204zM1220 768q26 0 35 31t-25 39q-128 31 -257 31t-259 -31q-35 -8 -24 -41t48 -24q95 25 231 27q141 -1 251 -32zM510 136q-136 90 -190 205h-57q-53 0 -53 55v221
q0 55 53 55h57q46 96 147 176q-1 11 -1 21q2 62 20 120l69 55q0 -25 14 -55q18 -37 35 -59q163 76 370 76q286 0 488 -146q133 -96 179 -218q22 -2 55 16q41 22 62 53q49 72 53 72v0q10 -2 27 3l-58 -202q-46 -76 -119 -126q-20 -168 -183 -293v-174q0 -125 -158.5 -125
t-158.5 125v33q-84 -16 -167 -16h-10q-89 0 -159 10v-27q0 -125 -160 -125q-155 0 -155 149v7v114z" />
    <glyph glyph-name="journal" unicode="&#x176;" 
d="M1473 466h-247v-202h247v202zM1547 538v-346h-392v346h392zM1387 675h362v-69h-362v69zM951 675h364v-69h-364v69zM1387 128h362v-69h-362v69zM951 128h364v-69h-364v69zM1603 538h146v-69h-146v69zM951 538h149v-69h-149v69zM1603 400h146v-68h-146v68zM951 400h149v-68
h-149v68zM1603 263h146v-69h-146v69zM951 263h149v-69h-149v69zM806 599h-436v-332h436v332zM880 671v-476h-581v476h581zM299 800h1450v-73h-1450v73zM1808 1287h-1571v-1286h1571v1286zM1882 1359v-1432h-1716v1432h1716zM1531 1162v-73h218v-218h-290v73h219v73h-219v218
h290v-73h-218zM661 1235h290v-73h-218v-73h147v-72h-147v-73h218v-73h-290v364zM517 1235h72v-364h-72l-147 230v-230h-71v364h71l147 -230v230zM1315 1235h72v-364h-72l-109 109l-109 -109h-73v364h73v-260l109 109l109 -109v260zM880 131v-73h-581v73h581z" />
    <glyph glyph-name="ufo" unicode="&#x177;" 
d="M56 753q238.903 17.0645 346.795 17.0645q37.5276 0 59.205 -2.06452q357 -34 522 -49q491 -45 582 -70q397 -109 420 -120q19 -9 20 -35q1 -20 -35 -31q-196 -60 -504 -60q-32 -20 -65 -39q-41 -24 -89 -28q-24 -2 -90 -2q-68 0 -143 2q-186 5 -233 9q-224 19 -259 78
q-27 45 -78 67q-83 35 -244 46q-136 9 -166 28q-51 32 -51 77l5 1q-12 51 -12 80.5t14 30.5zM1090 885q76 -5 132 -35q113 -61 113 -83l54 -54q-188 66 -484 82l-179 -12q148 102 301 102h63z" />
    <glyph glyph-name="map" unicode="&#x178;" 
d="M1028 546q-192 192 -289 364q-47 101 -47 193q0 99 46 173.5t118 121.5q78 48 168 48q110 0 189 -59t117 -150q26 -64 26 -130q0 -88 -53 -200q-44 -68 -114.5 -162.5t-119.5 -150.5zM879 1118q0 -62 42 -104.5t104 -42.5q64 0 105.5 42t41.5 105q0 59 -44 102.5
t-103 43.5q-60 0 -103 -43t-43 -103zM1741 1257q30 0 49 -20.5t19 -48.5v-1024q0 -45 -41 -62l-481 -206q-15 -5 -24 -5t-24 5l-454 194l-451 -193q-12 -6 -26 -6q-29 0 -48.5 20.5t-20.5 47.5v1024q0 46 41 63l292 125q-2 -16 -4 -53q0 -39 11 -92l-203 -88v-875l341 147
v524q63 -87 136 -169v-355l342 -147v506q63 77 137 177v-683l340 147v875l-212 -91q19 66 19 128q0 1 -0.5 4.5t-1 10t-0.5 13.5l237 101q12 6 27 6z" />
    <glyph glyph-name="diez" unicode="&#x179;" 
d="M1119 512l64 256h-254l-64 -256h254zM1887 1016l-56 -224q-7 -24 -31 -24h-327l-64 -256h311q15 0 25 -12q10 -14 6 -28l-56 -224q-5 -24 -31 -24h-327l-81 -328q-7 -24 -31 -24h-224q-16 0 -26 12q-9 12 -6 28l78 312h-254l-81 -328q-7 -24 -31 -24h-225q-15 0 -25 12
q-9 12 -6 28l78 312h-311q-15 0 -25 12q-9 12 -6 28l56 224q7 24 31 24h327l64 256h-311q-15 0 -25 12q-10 14 -6 28l56 224q5 24 31 24h327l81 328q7 24 32 24h224q15 0 25 -12q9 -12 6 -28l-78 -312h254l81 328q7 24 32 24h224q15 0 25 -12q9 -12 6 -28l-78 -312h311
q15 0 25 -12q9 -12 6 -28z" />
    <glyph glyph-name="cursor" unicode="&#x17a;" horiz-adv-x="2000" 
d="M1350 50q31 0 53 -22t22 -53t-22 -53t-53 -22h-106q-153 0 -244 128q-91 -128 -244 -128h-106q-31 0 -53 22t-22 53t22 53t53 22h106q73 0 121 63.5t48 167.5v169h-175q-31 0 -53 22t-22 53t22 53t53 22h175v519q0 104 -48 167.5t-121 63.5h-106q-31 0 -53 22t-22 53
t22 53t53 22h106q153 0 244 -128q91 128 244 128h106q31 0 53 -22t22 -53t-22 -53t-53 -22h-106q-73 0 -121 -63.5t-48 -167.5v-519h175q31 0 53 -22t22 -53t-22 -53t-53 -22h-175v-169q0 -104 48 -167.5t121 -63.5h106z" />
    <glyph glyph-name="send" unicode="&#x17b;" 
d="M1810 109q0 -36 -18.5 -60t-49.5 -24q-23 0 -52 16l-485 292l-338 -423q-29 -37 -51 -37q-30 0 -30 66v525h-484q-64 0 -64 21q0 17 45 44l1408 872q29 20 53 20q31 0 48.5 -24t17.5 -60v-1228zM920 177l810 1160l-810 -886v-274z" />
    <glyph glyph-name="attach" unicode="&#x17c;" 
d="M1724 151q0 -117 -79 -196t-196 -79q-135 0 -235 100l-777 776q-113 115 -113 271q0 159 110 270t269 111q158 0 273 -113l605 -606q10 -10 10 -22q0 -16 -30.5 -46.5t-46.5 -30.5q-13 0 -23 10l-606 607q-79 77 -181 77q-106 0 -179 -75t-73 -181q0 -105 76 -181
l776 -777q63 -63 145 -63q64 0 106 42t42 106q0 82 -63 145l-581 581q-26 24 -60 24q-29 0 -48 -19t-19 -48q0 -32 25 -59l410 -410q10 -10 10 -22q0 -16 -31 -47t-47 -31q-12 0 -22 10l-410 410q-63 61 -63 149q0 82 57 139t139 57q88 0 149 -63l581 -581q100 -98 100 -235
z" />
    </font>
</defs>
</svg>
